<svg width="130" height="130" viewBox="0 0 130 130" fill="none" xmlns="http://www.w3.org/2000/svg">
<rect width="130" height="130" rx="20" fill="white"/>
<path fill-rule="evenodd" clip-rule="evenodd" d="M26.5681 29.0687C26.5681 29.1068 26.4356 29.1966 26.2737 29.2683C25.9544 29.4097 25.3758 29.9436 25.3758 30.0969C25.3758 30.149 25.3345 30.1917 25.2841 30.1917C25.2336 30.1917 25.1923 30.2707 25.1923 30.3675C25.1923 30.4642 25.148 30.558 25.0939 30.5761C24.9652 30.619 24.9705 32.5176 25.0995 32.5607C25.1506 32.5777 25.1923 32.8334 25.1923 33.1289C25.1923 33.4244 25.2336 33.6916 25.2841 33.7228C25.3345 33.754 25.3758 33.981 25.3758 34.2273C25.3758 34.4735 25.4171 34.7005 25.4675 34.7317C25.5179 34.7629 25.5592 35.0106 25.5592 35.282C25.5592 35.5535 25.6005 35.8012 25.6509 35.8324C25.7014 35.8635 25.7427 36.1112 25.7427 36.3827C25.7427 36.6542 25.7839 36.9018 25.8344 36.933C25.8848 36.9642 25.9261 37.1912 25.9261 37.4374C25.9261 37.6837 25.9674 37.9107 26.0178 37.9419C26.0683 37.9731 26.1095 38.2148 26.1095 38.4793C26.1095 38.7437 26.1471 38.9991 26.1932 39.0471C26.2392 39.095 26.2983 39.3612 26.3245 39.6387C26.3507 39.9161 26.4142 40.3908 26.4657 40.6934C26.6846 41.9829 26.748 42.4584 26.7497 42.8259C26.7507 43.0403 26.7928 43.2157 26.8433 43.2157C26.8937 43.2157 26.935 43.4402 26.935 43.7148C26.935 43.9893 26.9763 44.2393 27.0267 44.2705C27.0772 44.3017 27.1184 44.5517 27.1184 44.8262C27.1184 45.1007 27.1597 45.3252 27.2102 45.3252C27.2611 45.3252 27.3019 45.5699 27.3019 45.8756C27.3019 46.1812 27.3426 46.4259 27.3936 46.4259C27.444 46.4259 27.4853 46.6504 27.4853 46.9249C27.4853 47.1994 27.5266 47.4494 27.577 47.4806C27.6275 47.5118 27.6687 47.7536 27.6687 48.018C27.6687 48.2824 27.7063 48.538 27.752 48.5858C27.8299 48.6673 27.8678 48.9071 27.9942 50.1175C28.0219 50.3823 28.0816 50.6816 28.127 50.7825C28.1724 50.8834 28.2302 51.1517 28.2556 51.3787C28.3698 52.4018 28.4986 53.2896 28.5844 53.6435C28.6357 53.855 28.6777 54.2137 28.6777 54.4406C28.6777 54.6675 28.7189 54.8787 28.7694 54.9098C28.8198 54.941 28.8611 55.191 28.8611 55.4656C28.8611 55.7401 28.9024 55.9646 28.9528 55.9646C29.0038 55.9646 29.0445 56.2092 29.0445 56.5149C29.0445 56.8206 29.0852 57.0652 29.1362 57.0652C29.1867 57.0652 29.228 57.2898 29.228 57.5643C29.228 57.8388 29.2692 58.0888 29.3197 58.12C29.3701 58.1512 29.4114 58.4012 29.4114 58.6757C29.4114 58.9502 29.4527 59.1748 29.5031 59.1748C29.5536 59.1748 29.5948 59.3993 29.5948 59.6738C29.5948 59.9483 29.6361 60.1983 29.6866 60.2295C29.737 60.2607 29.7783 60.5025 29.7783 60.7669C29.7783 61.0313 29.8158 61.2868 29.8616 61.3347C29.9073 61.3826 29.9674 61.6282 29.9951 61.8805C30.0227 62.1327 30.0864 62.5867 30.1363 62.8894C30.1864 63.192 30.2746 63.8524 30.3322 64.3569C30.3899 64.8613 30.4745 65.3457 30.5204 65.4333C30.5662 65.5209 30.6037 65.797 30.6037 66.047C30.6037 66.2969 30.645 66.5269 30.6955 66.5581C30.7459 66.5893 30.7872 66.8369 30.7872 67.1084C30.7872 67.3799 30.8285 67.6276 30.8789 67.6587C30.9293 67.6899 30.9706 67.9399 30.9706 68.2145C30.9706 68.489 31.0119 68.7135 31.0623 68.7135C31.1133 68.7135 31.1541 68.9581 31.1541 69.2638C31.1541 69.5695 31.1948 69.8141 31.2458 69.8141C31.2962 69.8141 31.3375 70.0387 31.3375 70.3132C31.3375 70.5877 31.3788 70.8377 31.4292 70.8689C31.4797 70.9001 31.5209 71.1418 31.5209 71.4063C31.5209 71.6707 31.5584 71.9261 31.6042 71.9741C31.65 72.022 31.7101 72.2676 31.7378 72.5198C31.785 72.9508 31.8516 73.3763 32.0607 74.5835C32.1088 74.8609 32.1966 75.5213 32.2561 76.051C32.3154 76.5807 32.4013 77.0857 32.4469 77.1733C32.4925 77.2609 32.5298 77.5395 32.5298 77.7924C32.5298 78.0453 32.5711 78.2522 32.6216 78.2522C32.672 78.2522 32.7133 78.4768 32.7133 78.7513C32.7133 79.0258 32.7545 79.2758 32.805 79.307C32.8554 79.3382 32.8967 79.5858 32.8967 79.8573C32.8967 80.1288 32.938 80.3764 32.9884 80.4076C33.0389 80.4388 33.0801 80.6865 33.0801 80.9579C33.0801 81.2294 33.1214 81.4771 33.1719 81.5083C33.2223 81.5394 33.2636 81.7895 33.2636 82.064C33.2636 82.3385 33.3049 82.563 33.3553 82.563C33.4057 82.563 33.447 82.7875 33.447 83.0621C33.447 83.3366 33.4883 83.5866 33.5387 83.6178C33.5892 83.649 33.6305 83.8966 33.6305 84.1681C33.6305 84.4396 33.6667 84.6841 33.7111 84.7115C33.7554 84.7389 33.8155 84.9993 33.8448 85.2902C33.874 85.581 33.9638 86.2318 34.0443 86.7362C34.1248 87.2407 34.2136 87.901 34.2416 88.2037C34.2696 88.5064 34.3293 88.7932 34.3742 88.8412C34.4191 88.889 34.4559 89.1446 34.4559 89.409C34.4559 89.6734 34.4972 89.9152 34.5476 89.9464C34.5981 89.9776 34.6394 90.2276 34.6394 90.5021C34.6394 90.7766 34.6806 91.0011 34.7311 91.0011C34.7815 91.0011 34.8228 91.2199 34.8228 91.4872C34.8228 91.7546 34.8603 92.0126 34.9061 92.0605C34.984 92.1421 35.0254 92.4093 35.154 93.661C35.1825 93.9384 35.2434 94.2046 35.2895 94.2526C35.3355 94.3004 35.3731 94.5296 35.3731 94.7616C35.3731 94.9937 35.4107 95.2228 35.4568 95.2706C35.5028 95.3186 35.5622 95.5848 35.5888 95.8622C35.6154 96.1397 35.6772 96.5937 35.726 96.8711C35.7748 97.1486 35.86 97.6645 35.9154 98.0176C36.0399 98.812 36.3139 99.3793 36.7934 99.8354C37.3197 100.336 37.8976 100.723 38.1183 100.723C38.2227 100.723 38.3081 100.765 38.3081 100.815C38.3081 100.942 92.3894 100.942 92.468 100.815C92.4992 100.765 92.5839 100.723 92.6563 100.723C92.8219 100.723 93.7979 99.8147 93.7979 99.6605C93.7979 99.5976 93.8363 99.5325 93.8834 99.5157C93.9304 99.4989 94.015 99.1962 94.0714 98.8431C94.1279 98.49 94.2153 97.9534 94.2658 97.6507C94.3162 97.3481 94.3796 96.8734 94.4067 96.596C94.4339 96.3185 94.4937 96.0523 94.5397 96.0044C94.5858 95.9564 94.6234 95.6985 94.6234 95.4311C94.6234 95.1638 94.661 94.945 94.7069 94.945C94.7529 94.945 94.8148 94.6974 94.8445 94.3947C94.8742 94.0921 94.9228 93.5968 94.9526 93.2941C94.9823 92.9914 95.0442 92.7438 95.0901 92.7438C95.1361 92.7438 95.1737 92.5193 95.1737 92.2448C95.1737 91.9702 95.215 91.7202 95.2654 91.689C95.3158 91.6578 95.3571 91.4078 95.3571 91.1333C95.3571 90.8588 95.3984 90.6343 95.4488 90.6343C95.4998 90.6343 95.5406 90.3896 95.5406 90.084C95.5406 89.7783 95.5813 89.5336 95.6323 89.5336C95.6827 89.5336 95.724 89.3555 95.724 89.1378C95.724 88.92 95.7684 88.5019 95.8226 88.2085C95.8768 87.9152 95.9609 87.3814 96.0093 87.0223C96.0925 86.4068 96.1339 86.1462 96.3712 84.7413C96.4244 84.4261 96.4899 83.9308 96.5168 83.6407C96.5438 83.3507 96.6034 83.1133 96.6493 83.1133C96.6953 83.1133 96.7329 82.8888 96.7329 82.6143C96.7329 82.3398 96.7742 82.0897 96.8246 82.0586C96.8751 82.0274 96.9163 81.7774 96.9163 81.5028C96.9163 81.2283 96.9576 81.0038 97.0081 81.0038C97.0591 81.0038 97.0998 80.7592 97.0998 80.4535C97.0998 80.1478 97.1405 79.9032 97.1915 79.9032C97.2419 79.9032 97.2832 79.6786 97.2832 79.4041C97.2832 79.1296 97.3245 78.8796 97.3749 78.8484C97.4254 78.8172 97.4667 78.5466 97.4667 78.2468C97.4667 77.9447 97.5076 77.7019 97.5584 77.7019C97.6088 77.7019 97.6509 77.5265 97.6519 77.3121C97.6529 77.0978 97.6966 76.654 97.749 76.3261C97.9411 75.122 98.0278 74.5271 98.0761 74.079C98.1034 73.8268 98.1631 73.5812 98.2088 73.5333C98.2546 73.4853 98.2921 73.2299 98.2921 72.9655C98.2921 72.7011 98.3334 72.4593 98.3838 72.4281C98.4343 72.3969 98.4756 72.1493 98.4756 71.8778C98.4756 71.6063 98.5168 71.3587 98.5673 71.3275C98.6177 71.2963 98.659 71.0487 98.659 70.7772C98.659 70.5057 98.7003 70.258 98.7507 70.2269C98.8012 70.1957 98.8424 69.948 98.8424 69.6765C98.8424 69.4051 98.8837 69.1574 98.9342 69.1262C98.9846 69.0951 99.0259 68.845 99.0259 68.5705C99.0259 68.296 99.0671 68.0715 99.1176 68.0715C99.1686 68.0715 99.2093 67.8269 99.2093 67.5212C99.2093 67.2155 99.25 66.9708 99.301 66.9708C99.3515 66.9708 99.3927 66.7507 99.3927 66.4817C99.3927 66.2126 99.4237 65.9617 99.4615 65.9241C99.4994 65.8864 99.5837 65.3946 99.6489 64.8311C99.7141 64.2676 99.8069 63.5693 99.8553 63.2792C99.9035 62.9892 99.9862 62.4939 100.039 62.1785C100.091 61.8633 100.157 61.3989 100.185 61.1467C100.213 60.8945 100.273 60.6489 100.318 60.601C100.364 60.553 100.402 60.2976 100.402 60.0332C100.402 59.7687 100.443 59.527 100.493 59.4958C100.544 59.4646 100.585 59.2146 100.585 58.9401C100.585 58.6655 100.626 58.441 100.677 58.441C100.728 58.441 100.769 58.1964 100.769 57.8907C100.769 57.585 100.809 57.3404 100.86 57.3404C100.911 57.3404 100.952 57.1159 100.952 56.8413C100.952 56.5668 100.993 56.3168 101.044 56.2856C101.094 56.2544 101.135 56.0127 101.135 55.7482C101.135 55.4838 101.172 55.2284 101.217 55.1804C101.262 55.1325 101.322 54.8456 101.349 54.543C101.377 54.2403 101.469 53.5386 101.552 52.9837C101.636 52.4289 101.725 51.7685 101.75 51.5162C101.774 51.264 101.832 51.0184 101.878 50.9705C101.923 50.9226 101.961 50.6671 101.961 50.4027C101.961 50.1383 102.002 49.8965 102.053 49.8653C102.103 49.8341 102.144 49.5865 102.144 49.315C102.144 49.0435 102.186 48.7959 102.236 48.7647C102.286 48.7335 102.328 48.4859 102.328 48.2144C102.328 47.9429 102.369 47.6952 102.419 47.6641C102.47 47.6329 102.511 47.3852 102.511 47.1138C102.511 46.8423 102.552 46.5946 102.603 46.5634C102.653 46.5323 102.695 46.3053 102.695 46.059C102.695 45.8127 102.736 45.5857 102.786 45.5545C102.837 45.5234 102.878 45.2757 102.878 45.0042C102.878 44.7327 102.919 44.4851 102.97 44.4539C103.02 44.4227 103.061 44.1727 103.061 43.8982C103.061 43.6237 103.103 43.3991 103.153 43.3991C103.204 43.3991 103.246 43.2031 103.247 42.9635C103.248 42.7238 103.293 42.2595 103.348 41.9316C103.553 40.6956 103.622 40.2203 103.67 39.7304C103.697 39.453 103.757 39.1867 103.803 39.1388C103.849 39.0908 103.887 38.8354 103.887 38.571C103.887 38.3066 103.928 38.0648 103.979 38.0336C104.029 38.0024 104.07 37.7548 104.07 37.4833C104.07 37.2118 104.112 36.9642 104.162 36.933C104.213 36.9018 104.254 36.6518 104.254 36.3773C104.254 36.1027 104.295 35.8782 104.346 35.8782C104.396 35.8782 104.437 35.6537 104.437 35.3792C104.437 35.1047 104.479 34.8546 104.529 34.8235C104.579 34.7923 104.621 34.5446 104.621 34.2731C104.621 34.0017 104.662 33.754 104.712 33.7228C104.763 33.6916 104.804 33.4499 104.804 33.1854C104.804 32.921 104.847 32.6623 104.898 32.6105C105.03 32.4793 105.036 30.6204 104.905 30.5769C104.85 30.5584 104.804 30.4642 104.804 30.3675C104.804 30.2707 104.763 30.1917 104.712 30.1917C104.662 30.1917 104.621 30.1456 104.621 30.0894C104.621 29.9525 104.036 29.4238 103.724 29.278C103.587 29.2138 103.403 29.1249 103.315 29.0803C103.12 28.9813 26.5681 28.9697 26.5681 29.0687ZM52.0888 52.9984C51.9519 53.0539 51.936 53.3621 52.0659 53.4423C52.1164 53.4735 52.1576 53.6823 52.1576 53.9063C52.1576 54.1304 52.1989 54.3137 52.2493 54.3137C52.2998 54.3137 52.3411 54.5176 52.3411 54.7669C52.3411 55.0161 52.3823 55.2455 52.4328 55.2767C52.4832 55.3079 52.5245 55.5143 52.5245 55.7353C52.5245 55.9564 52.5658 56.1627 52.6162 56.1939C52.6667 56.2251 52.7079 56.427 52.7079 56.6426C52.7079 56.8582 52.7389 57.0656 52.7767 57.1033C52.8146 57.1411 52.8966 57.5298 52.959 57.967C53.0213 58.4042 53.1158 58.989 53.1689 59.2665C53.3395 60.1581 53.4476 60.7708 53.5006 61.1467C53.5289 61.3485 53.5893 61.5528 53.6345 61.6007C53.6798 61.6487 53.7168 61.886 53.7168 62.1281C53.7168 62.3702 53.7581 62.5683 53.8086 62.5683C53.859 62.5683 53.9003 62.7747 53.9003 63.0269C53.9003 63.2792 53.9376 63.4855 53.9831 63.4855C54.0287 63.4855 54.0906 63.6919 54.1207 63.9441C54.1509 64.1964 54.2 64.6091 54.2302 64.8613C54.2603 65.1135 54.3222 65.3199 54.3678 65.3199C54.4133 65.3199 54.4506 65.5263 54.4506 65.7785C54.4506 66.0307 54.4919 66.2371 54.5423 66.2371C54.5928 66.2371 54.634 66.4366 54.634 66.6804C54.634 66.9243 54.6649 67.1547 54.7028 67.1923C54.7407 67.2301 54.8227 67.6188 54.8851 68.0561C54.9474 68.4933 55.0427 69.0781 55.0968 69.3555C55.1509 69.633 55.2174 70.0457 55.2445 70.2727C55.2717 70.4997 55.3311 70.7246 55.3767 70.7726C55.4223 70.8205 55.4595 71.0347 55.4595 71.2487C55.4595 71.4627 55.5008 71.6632 55.5512 71.6944C55.6017 71.7255 55.6429 71.9319 55.6429 72.153C55.6429 72.374 55.6842 72.5804 55.7347 72.6115C55.7851 72.6427 55.8264 72.8491 55.8264 73.0701C55.8264 73.2912 55.8677 73.4975 55.9181 73.5287C55.9685 73.5599 56.0098 73.7663 56.0098 73.9873C56.0098 74.2084 56.0511 74.4147 56.1015 74.4459C56.152 74.4771 56.1933 74.6835 56.1933 74.9045C56.1933 75.1256 56.2345 75.3319 56.285 75.3631C56.3354 75.3943 56.3767 75.6237 56.3767 75.873C56.3767 76.1223 56.418 76.3261 56.4684 76.3261C56.5189 76.3261 56.5601 76.4456 56.5601 76.5915C56.5601 76.7489 56.6192 76.8795 56.7052 76.9125C56.8948 76.9852 73.2851 76.9852 73.4747 76.9125C73.5669 76.8771 73.6198 76.7453 73.6198 76.551C73.6198 76.3828 73.6611 76.2198 73.7115 76.1886C73.762 76.1574 73.8032 75.9074 73.8032 75.6328C73.8032 75.3583 73.8445 75.1338 73.895 75.1338C73.9454 75.1338 73.9867 74.9068 73.9867 74.6294C73.9867 74.3519 74.0279 74.1249 74.0784 74.1249C74.1288 74.1249 74.1701 73.9004 74.1701 73.6259C74.1701 73.3513 74.2114 73.1013 74.2618 73.0701C74.3123 73.039 74.3535 72.8178 74.3535 72.5786C74.3535 72.3394 74.3911 72.1045 74.4368 72.0566C74.4826 72.0088 74.5423 71.7631 74.5695 71.5109C74.5966 71.2587 74.6637 70.8047 74.7186 70.502C74.8978 69.5138 74.9841 68.9576 75.1055 68.0101C75.1711 67.4971 75.2558 67.0465 75.2937 67.0088C75.3315 66.9711 75.3625 66.7226 75.3625 66.4565C75.3625 66.1904 75.4037 65.9473 75.4542 65.9161C75.5046 65.8849 75.5459 65.6579 75.5459 65.4116C75.5459 65.1654 75.5872 64.9384 75.6376 64.9072C75.6881 64.876 75.7293 64.6466 75.7293 64.3973C75.7293 64.148 75.7706 63.9441 75.821 63.9441C75.8715 63.9441 75.9128 63.7196 75.9128 63.4451C75.9128 63.1706 75.954 62.9205 76.0045 62.8894C76.0549 62.8582 76.0962 62.6312 76.0962 62.3849C76.0962 62.1386 76.1375 61.9116 76.1879 61.8805C76.2384 61.8493 76.2796 61.6016 76.2796 61.3301C76.2796 61.0587 76.3209 60.811 76.3714 60.7798C76.4218 60.7486 76.4631 60.5275 76.4631 60.2883C76.4631 60.0491 76.5006 59.8143 76.5464 59.7663C76.5921 59.7185 76.6515 59.4728 76.6782 59.2206C76.7259 58.7705 76.814 58.2058 77.007 57.1111C77.0603 56.8084 77.1043 56.3878 77.1046 56.1764C77.1048 55.965 77.1464 55.7665 77.1968 55.7353C77.2473 55.7041 77.2885 55.4771 77.2885 55.2309C77.2885 54.9846 77.3298 54.7576 77.3803 54.7264C77.4307 54.6952 77.472 54.4741 77.472 54.2349C77.472 53.9957 77.5163 53.7557 77.5704 53.7016C77.6245 53.6475 77.6554 53.4639 77.6392 53.2935L77.6096 52.9837L64.9065 52.9679C57.9199 52.9592 52.1519 52.9729 52.0888 52.9984Z" fill="#2E87FC"/>
</svg>
