<svg width="150" height="150" viewBox="0 0 150 150" fill="none" xmlns="http://www.w3.org/2000/svg">
<rect width="150" height="150" rx="75" fill="#202020"/>
<rect x="45.0957" y="47.499" width="58.9563" height="68.8496" fill="white"/>
<path fill-rule="evenodd" clip-rule="evenodd" d="M35.1187 37.959C35.2665 39.1547 35.9259 46.6819 36.3526 52.0419C36.5292 54.2629 37.5283 65.5746 38.5723 77.1791C39.6166 88.7836 40.5681 99.641 40.6871 101.307C41.1117 107.257 42.2728 119.222 42.4396 119.367C42.5329 119.448 45.6077 120.357 49.2723 121.388C52.9368 122.418 59.2514 124.198 63.3047 125.343C71.9072 127.773 74.5017 128.463 75.0345 128.463C75.4947 128.463 77.4439 127.94 85.0094 125.785C88.1188 124.899 91.9348 123.834 93.4894 123.418C98.1032 122.184 107.41 119.521 107.555 119.394C107.699 119.268 108.67 108.889 109.343 100.297C109.569 97.41 110.517 86.6888 111.449 76.4724C112.381 66.256 113.203 57.0795 113.274 56.08C113.346 55.0806 113.671 51.1737 113.998 47.3981C114.325 43.6225 114.642 39.9428 114.704 39.221C114.765 38.4991 114.857 37.7042 114.908 37.4543L115 37H75H35L35.1187 37.959ZM100.556 54.5153C100.394 55.8656 98.2954 79.1152 98.1367 81.3181C97.9477 83.9443 96.0056 105.521 95.9537 105.573C95.9297 105.597 93.8662 106.178 91.3682 106.865C88.8703 107.552 84.1578 108.867 80.8958 109.788L74.9653 111.462L68.9834 109.771C65.6936 108.841 60.9803 107.523 58.5094 106.841C56.0385 106.159 54.0126 105.589 54.0073 105.574C53.9171 105.323 52.5072 89.2803 52.5611 89.1185C52.6538 88.8405 62.815 88.7894 62.986 89.066C63.046 89.1632 63.2356 90.8214 63.4074 92.7508C63.8837 98.1053 63.485 97.4035 66.4885 98.172C67.9022 98.5336 70.3843 99.189 72.0041 99.6283L74.9491 100.427L77.9603 99.6196C79.6164 99.1756 82.1071 98.5219 83.4952 98.1669C84.8833 97.8118 86.0361 97.5079 86.0569 97.4915C86.0779 97.4752 86.4208 94.5562 86.8187 91.0051C87.2167 87.454 87.5876 84.3443 87.6427 84.0943L87.7428 83.6401H69.8894H52.0359L51.9186 82.681C51.8542 82.1534 51.6588 80.0865 51.4843 78.0877C51.3099 76.0888 51.1496 74.3171 51.1282 74.1505C51.0791 73.7669 49.6825 73.8101 70.8723 73.5406C80.5312 73.4176 88.4541 73.2969 88.4788 73.2724C88.5359 73.2151 89.1469 64.5483 89.1479 63.7821L89.1485 63.2061L69.5637 63.3559L49.9789 63.5057L49.9733 62.8214C49.97 62.4451 49.8364 60.4563 49.6761 58.4019C49.5158 56.3475 49.3821 54.4169 49.3789 54.1114L49.3732 53.5562H75.022H100.671L100.556 54.5153Z" fill="#2D9BF5"/>
</svg>
