<svg width="70" height="70" viewBox="0 0 70 70" fill="none" xmlns="http://www.w3.org/2000/svg">
<path d="M70 35C70 54.3297 54.3297 70 35 70C15.6703 70 0 54.3297 0 35C0 15.6703 15.6703 0 35 0C54.3297 0 70 15.6703 70 35Z" fill="#FFCC4D"/>
<path d="M34.9992 40.8339C27.9545 40.8339 23.2801 40.0134 17.4992 38.8895C16.179 38.6348 13.6104 38.8895 13.6104 42.7784C13.6104 50.5561 22.5451 60.2784 34.9992 60.2784C47.4515 60.2784 56.3881 50.5561 56.3881 42.7784C56.3881 38.8895 53.8195 38.6328 52.4992 38.8895C46.7184 40.0134 42.044 40.8339 34.9992 40.8339Z" fill="#664500"/>
<path d="M17.5 42.7773C17.5 42.7773 23.3333 44.7218 35 44.7218C46.6667 44.7218 52.5 42.7773 52.5 42.7773C52.5 42.7773 48.6111 50.5551 35 50.5551C21.3889 50.5551 17.5 42.7773 17.5 42.7773Z" fill="white"/>
<path d="M30.4928 8.58028L21.6612 10.1378L17.1112 1.86806C16.6095 0.956113 15.5789 0.468058 14.56 0.646947C13.5353 0.82778 12.7381 1.64056 12.5787 2.66722L11.13 11.9947L2.29838 13.5522C1.2581 13.735 0.455049 14.5731 0.313104 15.6211C0.17116 16.6692 0.723382 17.6881 1.68005 18.1431L9.59394 21.8997L8.13949 31.2564C7.9781 32.2986 8.50699 33.3253 9.4481 33.8017C9.79616 33.9767 10.1695 34.0603 10.5409 34.0603C11.1767 34.0603 11.8048 33.8114 12.2734 33.3369L19.1023 26.4128L27.8873 30.5836C28.84 31.0347 29.9756 30.8228 30.6989 30.0547C31.4223 29.2867 31.5662 28.1414 31.0587 27.2178L26.4931 18.9189L32.6473 12.6811C33.3901 11.9286 33.5592 10.7814 33.0692 9.84417C32.5753 8.90695 31.5273 8.39945 30.4928 8.58028ZM39.5073 8.58028L48.3389 10.1378L52.8889 1.86806C53.3906 0.956113 54.4212 0.468058 55.44 0.646947C56.4628 0.82778 57.2601 1.64056 57.4195 2.66722L58.8681 11.9947L67.6998 13.5522C68.742 13.735 69.5451 14.5711 69.6851 15.6192C69.8251 16.6672 69.2748 17.6861 68.3181 18.1411L60.4042 21.8978L61.8587 31.2544C62.0201 32.2967 61.4912 33.3233 60.55 33.7997C60.202 33.9747 59.8287 34.0583 59.4573 34.0583C58.8214 34.0583 58.1934 33.8094 57.7248 33.335L50.8959 26.4108L42.1109 30.5817C41.1581 31.0328 40.0226 30.8208 39.2992 30.0528C38.5759 29.2847 38.432 28.1394 38.9395 27.2158L43.5051 18.9189L37.3509 12.6811C36.6081 11.9286 36.4389 10.7814 36.9289 9.84417C37.4248 8.90695 38.4728 8.39945 39.5073 8.58028Z" fill="#E95F28"/>
</svg>
