<svg width="70" height="70" viewBox="0 0 70 70" fill="none" xmlns="http://www.w3.org/2000/svg">
<path d="M35 70C54.33 70 70 54.33 70 35C70 15.67 54.33 0 35 0C15.67 0 0 15.67 0 35C0 54.33 15.67 70 35 70Z" fill="#FFCC4D"/>
<path d="M13.6092 33.0561C13.3175 33.0561 13.02 32.99 12.742 32.8519C11.7814 32.3717 11.3925 31.203 11.8728 30.2425C11.9739 30.0383 14.4356 25.2783 21.3889 25.2783C28.3442 25.2783 30.8039 30.0403 30.905 30.2425C31.3853 31.203 30.9945 32.3717 30.0359 32.8519C29.0811 33.3322 27.9261 32.9472 27.4381 32.0042C27.3525 31.8467 25.8222 29.1672 21.3889 29.1672C16.8836 29.1672 15.3631 31.9536 15.3495 31.9808C15.0092 32.6633 14.3228 33.0561 13.6092 33.0561ZM56.3889 33.0561C56.6806 33.0561 56.9781 32.99 57.2561 32.8519C58.2167 32.3717 58.6056 31.203 58.1253 30.2425C58.0242 30.0383 55.5625 25.2783 48.6092 25.2783C41.6539 25.2783 39.1942 30.0403 39.0931 30.2425C38.6128 31.203 39.0036 32.3717 39.9622 32.8519C40.917 33.3322 42.072 32.9472 42.56 32.0042C42.6456 31.8467 44.1759 29.1672 48.6092 29.1672C53.1145 29.1672 54.635 31.9536 54.6486 31.9808C54.9889 32.6633 55.6753 33.0561 56.3889 33.0561ZM57.367 45.7339C57.995 44.2775 58.2634 43.2897 58.2731 43.2508C58.5336 42.2125 57.9036 41.1605 56.8634 40.898C55.8211 40.6336 54.7692 41.2636 54.5009 42.3039C54.357 42.8775 50.7131 56.3894 35 56.3894C19.287 56.3894 15.6431 42.8775 15.4972 42.3019C15.2289 41.2636 14.177 40.6336 13.1347 40.8961C12.0964 41.1586 11.4664 42.2105 11.725 43.2489C11.7678 43.42 16.1992 60.2783 35 60.2783C38.2084 60.2783 40.9695 59.7611 43.3903 58.9464C51.8097 56.1114 55.7842 49.3992 57.367 45.7339Z" fill="#664500"/>
<path d="M63.0137 51.8807L57.2659 45.9482C57.2659 45.9482 55.9436 45.0965 54.7906 47.0526C53.2739 49.6232 50.7559 52.7596 47.1411 55.1629C45.6225 56.1721 42.982 57.4749 41.897 57.7257C40.4678 58.0543 41.1425 59.6001 41.1425 59.6001C42.28 59.3532 43.1861 59.0149 43.1861 59.0149L43.7617 59.5904L49.0623 64.891C52.4223 68.251 58.7845 68.7799 62.6734 64.891C66.5623 61.0021 66.3756 55.2426 63.0137 51.8807Z" fill="#E75B70"/>
<path d="M58.1686 60.4208C58.5828 60.0066 58.5828 59.3358 58.1686 58.9216L51.1122 51.8652L49.5645 53.3197L56.6675 60.4227C57.0817 60.835 57.7545 60.835 58.1686 60.4208Z" fill="#DE3146"/>
</svg>
