<svg width="130" height="130" viewBox="0 0 130 130" fill="none" xmlns="http://www.w3.org/2000/svg">
<rect width="130" height="130" rx="20" fill="white"/>
<path fill-rule="evenodd" clip-rule="evenodd" d="M64.0769 17.4538C64.0378 17.517 63.8245 17.6056 63.6029 17.6506C62.8237 17.8092 62.3221 18.0208 61.6441 18.4768C61.2677 18.73 58.9717 20.9297 56.5422 23.3651L52.1247 27.7931L57.5259 33.1953C62.2198 37.8902 62.9612 38.5842 63.1878 38.4958C63.3313 38.4398 63.8547 38.3239 64.351 38.2383C65.0745 38.1134 65.432 38.1137 66.1555 38.2394C66.6519 38.3256 67.1698 38.441 67.3067 38.4956C67.4436 38.5504 67.7516 38.6681 67.9912 38.7572C68.8833 39.089 69.6959 39.6581 70.5425 40.5444C71.3293 41.3679 72.229 42.7861 72.2244 43.1957C72.2234 43.2822 72.2726 43.4502 72.3336 43.5691C72.4852 43.8639 72.7204 45.191 72.7204 45.751C72.7204 46.1748 72.5757 46.9582 72.3593 47.7054C72.2773 47.9887 72.7279 48.4779 77.3796 53.1552L82.49 58.2938L83.1122 58.2156C83.9988 58.1038 86.2797 58.1003 86.7214 58.21C87.0995 58.3038 87.5393 58.4714 87.9331 58.6718C88.0519 58.7323 88.2091 58.7817 88.2822 58.7817C88.5704 58.7817 89.8995 59.8056 90.5625 60.5381C91.2535 61.3016 91.9413 62.5464 92.2726 63.6325C92.5196 64.4426 92.4813 66.7657 92.208 67.5556C91.8905 68.4729 91.6454 68.9676 91.1168 69.757C89.7857 71.7452 87.1138 73.0832 84.7814 72.9296C83.7691 72.8631 83.1212 72.7586 82.7389 72.6006C81.1115 71.9275 79.895 71.0526 79.1295 70.0046C78.6636 69.3667 78.0749 68.2099 77.82 67.4312C77.6265 66.8402 77.6023 64.0525 77.7875 63.6917C77.8562 63.5581 77.9448 63.2769 77.9844 63.067C78.0534 62.7023 77.8471 62.4761 73.335 57.965L68.6135 53.2448V65.961V78.6772L68.9749 78.9346C69.1738 79.0761 69.3738 79.192 69.4194 79.192C69.4651 79.192 69.5728 79.262 69.6586 79.3475C69.7446 79.4332 70.0178 79.681 70.2657 79.8983C71.9977 81.4163 72.9795 84.127 72.6003 86.3447C72.5182 86.8257 72.3995 87.3164 72.3367 87.4352C72.274 87.5541 72.2226 87.7344 72.2226 87.836C72.2226 87.9375 72.1018 88.2322 71.9542 88.4911C71.8066 88.7498 71.6147 89.0952 71.5277 89.2586C70.8682 90.4973 69.1985 91.7714 67.2445 92.5267C66.6759 92.7465 63.4552 92.7514 63.2365 92.5327C63.1547 92.4509 62.9927 92.384 62.8765 92.384C62.5669 92.384 61.3081 91.6954 60.5514 91.1121C59.3216 90.1643 58.3935 88.6959 57.9242 86.9558C57.7587 86.342 57.7405 84.1741 57.8976 83.7715C57.9589 83.6143 58.0823 83.2336 58.1719 82.9256C58.6609 81.243 60.0112 79.7065 61.9572 78.6184C62.201 78.4821 62.2042 78.3151 62.2042 65.5022C62.2042 52.6529 62.2017 52.5226 61.9553 52.3859C61.8184 52.31 61.6783 52.2198 61.6441 52.1855C61.6099 52.1512 61.4162 52.0392 61.2138 51.9365C60.4658 51.5578 59.109 50.0441 58.6073 49.0288C57.9339 47.6661 57.8615 47.3365 57.8646 45.6519C57.8674 44.1569 57.9318 43.6619 58.1938 43.1244C58.3255 42.8543 58.0138 42.5172 53.0182 37.5256L47.7025 32.2142L33.32 46.5869C25.2064 54.695 18.7367 61.2579 18.477 61.6441C18.0208 62.3221 17.8092 62.8236 17.6506 63.6029C17.6056 63.8245 17.517 64.0378 17.4538 64.0769C17.2581 64.1978 17.3164 65.6219 17.5256 65.8311C17.6282 65.9338 17.7123 66.1825 17.7123 66.3839C17.7123 66.5853 17.7627 66.8474 17.8241 66.9662C17.8857 67.0851 18.0677 67.4623 18.2286 67.8045C18.4673 68.3123 21.7694 71.6799 36.1671 86.0991C45.8723 95.8189 55.589 105.509 57.7597 107.632C61.9782 111.759 62.4125 112.095 63.8186 112.317C64.1617 112.371 64.4616 112.473 64.4849 112.543C64.5385 112.703 65.6266 112.711 65.6266 112.551C65.6266 112.486 65.8367 112.4 66.0933 112.361C66.7412 112.261 67.3342 112.076 67.9912 111.768C68.8033 111.387 111.387 68.8033 111.768 67.9912C112.076 67.3342 112.261 66.7412 112.361 66.0933C112.4 65.8367 112.486 65.6266 112.551 65.6266C112.711 65.6266 112.703 64.5385 112.543 64.4849C112.473 64.4616 112.37 64.1629 112.314 63.8212C112.181 63.0014 111.811 62.2232 111.128 61.3227C110.821 60.9177 101.087 51.1216 89.4979 39.5537C72.2662 22.3536 68.3134 18.4679 67.8045 18.2286C67.4623 18.0677 67.0851 17.8857 66.9662 17.8241C66.8474 17.7627 66.5853 17.7123 66.3839 17.7123C66.1825 17.7123 65.9338 17.6282 65.8311 17.5256C65.6219 17.3164 64.1978 17.2581 64.0769 17.4538Z" fill="#EE513B"/>
</svg>
