<svg width="130" height="130" viewBox="0 0 130 130" fill="none" xmlns="http://www.w3.org/2000/svg">
<rect width="130" height="130" rx="20" fill="white"/>
<path fill-rule="evenodd" clip-rule="evenodd" d="M61.2633 22.6796C54.4709 23.3306 48.37 25.3209 42.6969 28.7363C39.6552 30.5675 37.1387 32.564 34.3708 35.3422C28.9054 40.8278 24.926 47.7867 23.0871 55.0748C22.5998 57.006 22.2981 58.4869 22.1094 59.8723C21.183 66.678 21.7089 73.1123 23.7119 79.4765C24.1853 80.9812 24.1896 80.9932 24.6378 82.1418C26.8581 87.8301 30.1325 92.831 34.4898 97.1883C38.7465 101.445 43.5323 104.599 49.1217 106.83C51.6021 107.821 51.9389 107.892 52.7622 107.604C53.2325 107.44 53.5316 107.24 53.7906 106.918L54.1561 106.463L54.1899 102.071C54.2141 98.9261 54.1861 97.6553 54.0911 97.5967C54.0183 97.5516 53.63 97.581 53.2282 97.6622C49.2538 98.4641 45.397 97.9126 42.8409 96.1768C41.8009 95.4705 41.1599 94.8605 40.5548 94.0008C40.1308 93.3982 39.4084 92.0465 39.4084 91.8553C39.4084 91.8265 39.2716 91.5036 39.1042 91.1379C38.1054 88.9542 36.5996 87.1134 34.8503 85.9374C33.2585 84.8672 32.7386 84.0248 33.4016 83.5904C33.9004 83.2635 34.9515 83.1169 35.7067 83.2687C37.1808 83.5652 38.0109 83.9435 39.2497 84.8832C40.2578 85.6478 40.909 86.3868 41.8448 87.8276C42.2255 88.4139 42.6068 88.9649 42.6921 89.0521C42.7774 89.1391 42.9896 89.397 43.1636 89.6252C43.3377 89.8533 43.8516 90.3307 44.3056 90.686C46.1073 92.0956 48.2854 92.7014 50.4617 92.3981C51.7143 92.2235 52.4438 92.0464 53.4453 91.6735C54.3347 91.3424 54.4522 91.2487 54.4522 90.8694C54.4522 90.3985 55.0111 88.6245 55.4267 87.7757C55.6322 87.3561 56.0561 86.6793 56.3686 86.2715C56.6812 85.8636 56.8976 85.5059 56.8495 85.4765C56.8014 85.447 56.4422 85.386 56.0513 85.3409C51.3668 84.8 47.3723 83.3906 44.4015 81.2307C43.317 80.4422 41.6337 78.6495 40.7957 77.3904C39.1145 74.8651 38.3253 72.6349 37.6142 68.401C37.3612 66.8944 37.3978 61.5597 37.6694 60.3461C38.3388 57.3562 39.9109 54.1902 41.6295 52.3717C41.8111 52.1796 41.8122 52.227 41.61 51.6142C41.1433 50.2002 41.013 49.2194 41.0153 47.1384C41.0169 45.6178 41.0737 44.7971 41.2278 44.0585C41.5245 42.6376 42.1088 40.7909 42.3161 40.6187C42.44 40.5159 42.8286 40.4912 43.6447 40.5342C46.1014 40.6638 49.0412 41.8188 52.6161 44.0589C53.761 44.7763 54.232 45.0102 54.4522 44.9705C54.6151 44.9412 55.388 44.7728 56.1698 44.5963C59.1865 43.9152 61.5036 43.6675 64.9354 43.6595C68.6552 43.6507 71.0939 43.9298 74.7899 44.7869L75.8787 45.0395L76.9813 44.3331C79.4488 42.7526 81.9679 41.5211 83.829 40.986C84.1222 40.9016 84.5219 40.782 84.7174 40.7201C84.9128 40.6582 85.6665 40.5769 86.3921 40.5393C87.6598 40.4736 87.7169 40.4811 87.8492 40.7284C88.4366 41.8258 89.1595 45.4068 89.1595 47.219C89.1595 48.1062 88.8707 50.1279 88.6127 51.0474C88.5121 51.4057 88.4019 51.8146 88.3679 51.9562C88.3228 52.1442 88.4666 52.4062 88.9021 52.9294C90.2148 54.5067 91.2039 56.32 91.8815 58.3916C92.9431 61.6364 92.9698 66.2869 91.9542 71.0294C90.8913 75.9923 87.9378 80.0692 83.7105 82.4088C81.3235 83.7298 79.2033 84.4178 75.241 85.1568C74.9153 85.2176 74.3155 85.3023 73.9082 85.3449C73.1829 85.421 72.9233 85.5442 73.1688 85.6959C73.6536 85.9955 74.7517 87.8994 75.1839 89.1898C75.6696 90.6401 75.6903 90.9828 75.7626 98.8034L75.8333 106.463L76.1987 106.918C76.4578 107.24 76.7569 107.44 77.2271 107.604C78.0504 107.892 78.3873 107.821 80.8676 106.83C92.1029 102.345 100.947 93.4268 105.352 82.1418C105.8 80.9932 105.804 80.9812 106.277 79.4765C108.656 71.9183 108.975 63.9907 107.212 56.2594C106.9 54.8904 106.836 54.6514 106.384 53.1796C105.637 50.7465 105.356 50.0243 104.106 47.3161C100.773 40.0942 94.4904 33.0958 87.5603 28.8846C86.1246 28.0122 83.3702 26.5739 82.1706 26.0702C81.8123 25.9198 81.4125 25.7493 81.2822 25.6914C79.7815 25.0244 76.2517 23.9177 74.4711 23.5559C74.1127 23.4831 73.6063 23.3769 73.3457 23.3201C70.1245 22.6165 64.8426 22.3365 61.2633 22.6796Z" fill="#171515"/>
</svg>
