<svg width="130" height="130" viewBox="0 0 130 130" fill="none" xmlns="http://www.w3.org/2000/svg">
<rect width="130" height="130" rx="20" fill="white"/>
<path fill-rule="evenodd" clip-rule="evenodd" d="M37.0361 25.3203C36.5269 25.5514 36.3614 25.8536 35.8075 27.5606C35.5503 28.3532 34.7336 30.8635 33.9925 33.1391C33.2514 35.4146 31.9273 39.4938 31.0501 42.204C30.173 44.9142 29.2089 47.8848 28.908 48.8052C28.6069 49.7256 28.005 51.5665 27.5704 52.8961C27.1358 54.2256 26.6923 55.645 26.5849 56.0504C26.4041 56.7327 25.5765 59.3197 24.7237 61.8681C24.4153 62.7895 23.5558 65.4421 22.0273 70.1893C21.6785 71.2726 21.6422 71.4704 21.6779 72.0976C21.7101 72.6678 21.7757 72.9063 22.0317 73.3867C22.4007 74.0791 22.7575 74.401 24.6793 75.7755C25.4464 76.3241 27.0781 77.506 28.3053 78.4021C30.8867 80.2868 34.0424 82.5829 35.9757 83.9829C36.7172 84.5198 37.6167 85.176 37.9746 85.4411C38.3326 85.7062 39.253 86.3745 40.0201 86.9263C40.7871 87.478 41.6239 88.0844 41.8796 88.2739C42.1352 88.4634 43.2858 89.3002 44.4363 90.1335C45.5869 90.9667 46.8211 91.8646 47.1791 92.1286C48.5692 93.1541 49.2622 93.6591 50.2472 94.3644C51.3006 95.1188 53.3142 96.578 54.1754 97.2113C54.7211 97.6125 55.2475 97.9959 56.4765 98.8873C56.9367 99.2211 57.8363 99.8762 58.4754 100.343C59.1146 100.81 60.6836 101.951 61.962 102.878C63.2404 103.806 64.4433 104.687 64.635 104.837L64.9836 105.11L65.3323 104.837C65.5241 104.687 66.9989 103.612 68.6096 102.448C70.2204 101.284 71.8312 100.114 72.1891 99.8479C72.8033 99.391 76.4154 96.7653 79.3946 94.6099C80.1361 94.0736 81.0356 93.419 81.3936 93.1553C81.7515 92.8918 82.6511 92.2367 83.3925 91.6997C84.134 91.1628 85.6611 90.0541 86.7861 89.2358C90.1776 86.7692 93.9866 84.0011 94.8748 83.3575C95.3351 83.0241 96.0045 82.5365 96.3624 82.274C96.7204 82.0115 97.9546 81.1146 99.1052 80.2808C100.256 79.447 101.406 78.6102 101.662 78.4213C102.527 77.7823 104.905 76.0476 105.109 75.9072C107.135 74.5112 107.816 73.8694 108.119 73.0708C108.436 72.2372 108.406 71.5288 108.002 70.3287C107.392 68.5185 104.533 59.633 102.826 54.2442C102.115 51.999 99.3429 43.4323 98.1779 39.8797C97.6749 38.3456 96.4808 34.6638 95.5243 31.698C94.5678 28.7321 93.6956 26.1394 93.586 25.9364C93.1927 25.208 92.1783 24.9262 91.3924 25.3271C90.8789 25.5891 90.7234 25.862 90.2517 27.3282C90.0213 28.0441 88.7973 31.8095 87.5315 35.6958C86.2658 39.5822 85.01 43.4522 84.7409 44.296C84.4719 45.1397 83.9155 46.8551 83.5046 48.1079C83.0936 49.3607 82.3548 51.6304 81.8627 53.1517L80.968 55.9177H64.9991H49.0301L47.8045 52.1755C47.1306 50.1173 45.7668 45.923 44.774 42.8549C43.7813 39.7867 42.4379 35.6447 41.7887 33.6504C41.1396 31.6561 40.3112 29.1099 39.9479 27.9923C39.5846 26.8746 39.2077 25.8588 39.1103 25.7351C38.6714 25.177 37.7549 24.9938 37.0361 25.3203Z" fill="#FAA435"/>
<path fill-rule="evenodd" clip-rule="evenodd" d="M37.1334 25.2689C36.7328 25.4507 36.4106 25.8692 36.1829 26.5033C36.0751 26.8036 35.5063 28.5346 34.919 30.3499C34.3318 32.1652 33.3639 35.1567 32.7684 36.9975C32.1728 38.8384 31.1053 42.1227 30.3961 44.296C28.1078 51.3086 26.6784 55.7556 26.6787 55.8612C26.6789 55.9179 27.4769 56.9893 28.4521 58.2421C31.5778 62.2576 33.2149 64.3583 35.5167 67.3071C36.7541 68.8923 38.679 71.3608 39.7941 72.7926C40.9092 74.2244 42.3755 76.1071 43.0527 76.9764C43.7297 77.8457 44.938 79.3937 45.7378 80.4165C46.5374 81.4392 48.4622 83.9076 50.0149 85.9019C51.5675 87.8962 53.3458 90.1764 53.9666 90.969C54.5874 91.7616 57.0343 94.8995 59.4041 97.9421C61.7739 100.985 64.0023 103.84 64.3561 104.287L64.9994 105.1L65.4846 104.473C65.7516 104.128 67.0317 102.486 68.3295 100.824C69.6272 99.1624 71.4215 96.8613 72.3167 95.7107C73.2119 94.5602 74.5984 92.782 75.3979 91.7593C76.6826 90.1157 81.7717 83.5894 90.5864 72.2812C92.121 70.3125 94.0302 67.865 94.829 66.8422C101.512 58.2866 103.289 55.9754 103.288 55.8407C103.288 55.7553 103.063 54.995 102.788 54.1513C102.514 53.3075 101.235 49.3747 99.9462 45.4117C98.6573 41.4487 97.3808 37.5159 97.1095 36.6721C95.8492 32.7515 93.8863 26.7308 93.7514 26.3716C93.2688 25.0864 91.9707 24.7342 91.0369 25.635C90.767 25.8952 90.6148 26.2894 89.7193 29.0461C86.1688 39.9753 85.1873 43 83.2169 49.0842L81.019 55.8713L65.0028 55.8948C52.2356 55.9135 48.979 55.8947 48.9495 55.8018C48.7312 55.1166 47.5555 51.4929 46.5438 48.3869C45.8526 46.2647 44.549 42.2483 43.647 39.4614C42.745 36.6745 41.7611 33.6412 41.4605 32.7207C41.1599 31.8003 40.5757 30.0012 40.1622 28.7228C39.2945 26.0402 39.1603 25.7357 38.7114 25.4294C38.3116 25.1567 37.5512 25.0794 37.1334 25.2689Z" fill="#FA6E30"/>
<path fill-rule="evenodd" clip-rule="evenodd" d="M37.3215 25.2421C36.6537 25.4363 36.3582 25.9583 35.667 28.165C35.3837 29.0692 34.4918 31.8248 30.9424 42.7619C30.4279 44.3471 29.7439 46.4391 29.4223 47.4106C29.1007 48.3822 28.3671 50.6415 27.7919 52.4312C27.2168 54.221 26.7265 55.7377 26.7025 55.8016C26.6679 55.8942 28.9217 55.9178 37.7793 55.9178C44.3623 55.9178 48.8997 55.8834 48.8997 55.8335C48.8997 55.7872 48.5595 54.7099 48.1438 53.4395C47.728 52.1691 47.1867 50.502 46.9408 49.735C46.695 48.968 45.862 46.3949 45.0898 44.0171C44.3176 41.6393 43.2868 38.4596 42.7992 36.951C42.3117 35.4425 41.7295 33.6644 41.5056 32.9996C41.2817 32.3349 40.6724 30.4735 40.1515 28.8633C39.1125 25.6509 39.0108 25.4577 38.2497 25.2464C37.828 25.1293 37.711 25.1287 37.3215 25.2421ZM91.6916 25.2472C91.5257 25.2951 91.2498 25.4745 91.0784 25.6459C90.7446 25.9797 90.7575 25.9427 87.9488 34.6267C86.1418 40.2135 85.8943 40.974 85.5733 41.9252C85.4007 42.4365 84.7739 44.3611 84.1803 46.202C83.5867 48.0429 82.6681 50.8879 82.139 52.5242C81.61 54.1606 81.1499 55.5935 81.1166 55.7086L81.0562 55.9178H92.1828C102.742 55.9178 103.306 55.9095 103.247 55.7551C103.212 55.6656 103.038 55.1112 102.86 54.5232C102.683 53.9351 102.374 52.9728 102.174 52.3848C101.975 51.7967 101.367 49.9349 100.823 48.2474C98.9314 42.3748 97.8794 39.1283 97.4791 37.9273C97.0243 36.5627 96.4905 34.92 95.0621 30.4893C94.5181 28.8019 93.9666 27.0939 93.8367 26.6939C93.5658 25.8601 93.1777 25.3958 92.6225 25.2417C92.2149 25.1285 92.1003 25.1292 91.6916 25.2472ZM49.0856 56.0571C49.0856 56.0827 49.4028 57.0764 49.7904 58.2653C51.2277 62.6732 61.5257 94.3821 63.484 100.429C64.2829 102.896 64.9602 104.915 64.9891 104.915C65.0179 104.915 65.2153 104.382 65.4276 103.73C65.8732 102.361 69.7145 90.5194 73.5782 78.6035C75.0457 74.0779 76.6175 69.2456 77.0713 67.865C78.3031 64.117 80.8828 56.1323 80.8828 56.0674C80.8828 56.0362 73.7284 56.0107 64.9842 56.0107C56.24 56.0107 49.0856 56.0317 49.0856 56.0571Z" fill="#E1432E"/>
</svg>
