<svg width="150" height="150" viewBox="0 0 150 150" fill="none" xmlns="http://www.w3.org/2000/svg">
<rect width="150" height="150" rx="75" fill="#202020"/>
<rect x="44.7393" y="45.3478" width="56.3478" height="67.942" fill="white"/>
<path fill-rule="evenodd" clip-rule="evenodd" d="M35 37.1039C35 37.1612 35.311 40.6308 35.6908 44.814C36.0708 48.9974 36.9606 58.942 37.6678 66.913C38.3753 74.8841 39.4679 87.1449 40.0961 94.1594C40.7243 101.174 41.4679 109.578 41.7488 112.835L42.2594 118.756L48.7746 120.565C57.8918 123.095 68.1694 125.937 71.8696 126.952L75 127.81L77.2029 127.181C78.4145 126.835 81.4928 125.977 84.0435 125.273C102.93 120.065 107.482 118.787 107.611 118.656C107.693 118.574 107.985 115.899 108.261 112.71C108.537 109.522 109.276 101.174 109.902 94.1594C110.529 87.1449 111.621 74.8841 112.33 66.913C113.039 58.942 113.93 48.9974 114.31 44.814C114.689 40.6308 115 37.1612 115 37.1039C115 37.0468 97 37 75 37C53 37 35 37.0468 35 37.1039ZM100.219 53.6377C100.267 53.7332 100.09 56.0551 99.8264 58.7971L99.3467 63.7826L80.159 63.842C62.0871 63.8979 60.9708 63.9248 60.9689 64.3057C60.9657 64.959 61.6854 72.7769 61.8014 73.3478L61.9074 73.8696H80.2246H98.5418L98.4224 74.7391C98.2965 75.6569 96.4409 96.049 95.9802 101.58C95.8313 103.365 95.6048 104.891 95.4765 104.97C95.3485 105.049 93.8192 105.501 92.0783 105.975C87.8679 107.119 81.2057 108.969 77.8545 109.924L75.1438 110.697L70.2023 109.318C67.4844 108.56 62.8087 107.256 59.8116 106.421C56.8145 105.585 54.3514 104.885 54.3382 104.864C54.3248 104.843 54.0351 101.643 53.6947 97.7536C53.3541 93.8638 53.0167 90.29 52.9448 89.8116L52.8143 88.942H57.9206C62.5854 88.942 63.0366 88.977 63.1415 89.3478C63.2045 89.5711 63.3854 91.3903 63.5433 93.3905L63.8306 97.0274L65.2414 97.4025C66.0173 97.6089 68.5302 98.28 70.8256 98.894C73.5862 99.6321 75.1563 99.9482 75.4633 99.8271C76.0405 99.5994 84.2408 97.3764 85.2365 97.1774C86.085 97.0081 86.0746 97.0524 86.4859 91.8406C86.6267 90.0551 86.8235 87.6551 86.9232 86.5072C87.023 85.3594 87.0863 84.395 87.064 84.3644C87.0417 84.3336 79.2312 84.2383 69.7075 84.1525L52.3913 83.9962L52.3901 83.5127C52.3897 83.2467 51.8158 76.7813 51.1148 69.1452C50.414 61.5092 49.8406 54.91 49.8406 54.4806V53.6996L62.4203 53.6377C95.2915 53.4756 100.138 53.4756 100.219 53.6377Z" fill="#E34D2C"/>
</svg>
