<svg width="150" height="150" viewBox="0 0 150 150" fill="none" xmlns="http://www.w3.org/2000/svg">
<rect width="150" height="150" rx="75" fill="#202020"/>
<rect x="45.582" y="42.5695" width="60.3355" height="71.103" fill="white"/>
<path fill-rule="evenodd" clip-rule="evenodd" d="M35.0895 37.789C35.1385 38.223 35.3048 40.0817 35.4587 41.9197C35.6128 43.7576 35.8191 46.0967 35.9171 47.1178C36.0149 48.1389 36.1826 49.9768 36.2893 51.202C36.3961 52.4273 36.7317 56.2284 37.0354 59.649C37.339 63.0696 37.6368 66.453 37.6971 67.1677C37.7574 67.8825 37.8348 68.6761 37.8692 68.9314C37.9033 69.1866 37.9824 70.0638 38.045 70.8807C38.1074 71.6975 38.2423 73.243 38.3446 74.3152C38.4471 75.3873 38.7783 79.0631 39.0807 82.4837C39.3831 85.9042 39.757 90.1231 39.9119 91.8589C40.0665 93.5947 40.4419 97.8135 40.7458 101.234C41.0497 104.655 41.3822 108.33 41.4845 109.403C41.587 110.475 41.8071 112.939 41.974 114.879C42.1409 116.819 42.3301 118.458 42.3945 118.52C42.4589 118.582 42.8458 118.72 43.2543 118.825C43.6627 118.93 44.7487 119.225 45.6677 119.481C56.4351 122.477 62.5065 124.16 64.8822 124.807C65.5459 124.988 68.0791 125.693 70.5116 126.375L74.9343 127.615L77.3806 126.94C78.7259 126.568 80.704 126.015 81.7761 125.71C82.8483 125.405 84.1431 125.044 84.6537 124.907C85.1642 124.769 88.1717 123.94 91.337 123.065C94.5023 122.189 99.473 120.814 102.383 120.01L107.674 118.549L107.792 117.364C107.919 116.082 108.077 114.337 108.787 106.339C109.041 103.48 109.371 99.8046 109.522 98.1709C109.673 96.5372 109.924 93.7385 110.081 91.9517C110.238 90.1648 110.572 86.4055 110.824 83.5975C111.076 80.7896 111.412 76.9885 111.571 75.1506C111.729 73.3127 111.983 70.4723 112.134 68.8386C112.285 67.2049 112.574 63.9885 112.776 61.6911C112.978 59.3937 113.226 56.6369 113.326 55.5648C113.426 54.4926 113.597 52.5712 113.707 51.2949C113.816 50.0185 113.985 48.1389 114.083 47.1178C114.181 46.0967 114.387 43.7576 114.541 41.9197C114.695 40.0817 114.862 38.223 114.911 37.789L115 37H75H35L35.0895 37.789ZM72.3081 80.9257V108.886L71.8904 108.784C71.6606 108.727 66.0843 107.621 59.4984 106.325C52.9126 105.029 47.472 103.917 47.4081 103.854C47.3443 103.792 47.0272 100.649 46.7032 96.8713C46.3793 93.0934 46.0657 89.6057 46.0063 89.1206L45.8983 88.2387H50.9347C53.7047 88.2387 55.9719 88.2597 55.9726 88.2851C55.9893 88.7834 56.7187 96.1017 56.7551 96.1353C56.8141 96.1896 61.7999 96.9642 62.0912 96.9642C62.2221 96.9642 62.2831 91.5533 62.2831 79.9774V62.9907H56.6244H50.9657L50.8758 62.573C50.7786 62.1211 50.0304 53.9483 50.0304 53.3374C50.0304 52.9698 50.1513 52.9657 61.1693 52.9657H72.3081V80.9257ZM104.057 53.2906C104.059 53.4694 103.877 55.7248 103.654 58.3031L103.248 62.9907H95.7608H88.2738V68.096V73.2013H95.3397H102.406L102.299 73.9903C102.24 74.4243 101.607 81.2925 100.892 89.2533C100.178 97.2139 99.5315 103.784 99.4563 103.854C99.2504 104.045 78.0121 108.836 77.8406 108.73C77.7587 108.679 77.6919 106.386 77.6919 103.633V98.627L78.1096 98.451C78.3394 98.3541 81.1171 97.8085 84.2824 97.2384C87.4477 96.6682 90.0889 96.1436 90.1518 96.0725C90.2146 96.0012 90.4912 93.3951 90.7665 90.2809C91.0418 87.1666 91.3142 84.3063 91.3717 83.9247L91.4766 83.2309L84.6307 83.1821L77.7847 83.1334L77.7368 68.2816C77.7105 60.1131 77.7286 53.3255 77.7773 53.1978C77.8471 53.0151 80.6558 52.9657 90.9599 52.9657C103.305 52.9657 104.054 52.9843 104.057 53.2906Z" fill="#D3B73F"/>
</svg>
