<svg width="150" height="150" viewBox="0 0 150 150" fill="none" xmlns="http://www.w3.org/2000/svg">
<rect width="150" height="150" rx="75" fill="#202020"/>
<rect x="35" y="35" width="80" height="80" rx="8" fill="white"/>
<path fill-rule="evenodd" clip-rule="evenodd" d="M82.1987 42.4129C82.3868 45.428 81.3933 48.329 79.3498 50.7316C78.7938 51.3851 76.9653 53.0526 75.2862 54.4369C69.2483 59.4152 67.2351 61.5172 66.4133 63.7019C65.6588 65.7075 66.207 67.2986 68.8657 70.8184C70.2029 72.5887 73.6998 76.5397 74.0683 76.6964C74.1438 76.7286 73.7334 76.0417 73.1564 75.1699C71.7196 72.9999 69.914 69.2479 69.637 67.8561C69.359 66.4602 69.4963 65.6298 70.2395 64.2171C71.1535 62.4798 72.4983 60.9451 76.702 56.8432C80.9039 52.7427 81.3531 52.2308 82.1579 50.6254C82.7851 49.3741 82.9703 48.7556 83.2058 47.1256C83.4746 45.2664 83.0228 42.0414 82.3683 41.1463C82.1279 40.8175 82.1085 40.9637 82.1987 42.4129ZM87.4024 55.2749C86.4054 55.6356 84.6922 56.3662 83.595 56.8983C76.7521 60.2178 74.1108 64.1885 75.6861 68.7871C75.8607 69.2965 76.7188 70.7776 77.5928 72.0785C78.4671 73.3794 79.2853 74.7872 79.411 75.207C79.6976 76.1635 79.4377 77.1398 78.5102 78.5896C78.1538 79.1469 77.8621 79.6484 77.8621 79.7037C77.8621 79.7592 78.2498 79.5379 78.7236 79.212C80.1216 78.2501 81.5948 76.6945 82.1552 75.5884C82.6038 74.7032 82.665 74.392 82.5855 73.4006C82.484 72.1376 81.7999 70.5881 80.4937 68.6623C78.5144 65.7447 78.5177 64.2157 80.5085 61.7091C81.5654 60.3782 84.181 58.2238 86.9551 56.3986C90.1981 54.2652 90.199 54.2629 87.4024 55.2749ZM92.8339 77.4837C92.5154 77.56 92.0861 77.7203 91.8798 77.8399C91.5746 78.017 91.774 78.0586 92.9493 78.0633C95.7456 78.0744 97.3266 79.4499 97.3224 81.8674C97.3197 83.4246 96.6573 84.687 94.8902 86.5029C94.0791 87.3363 92.7072 88.4995 91.8415 89.0876C90.9758 89.6754 90.2979 90.187 90.3351 90.224C90.4385 90.3274 93.1023 89.3394 94.176 88.7996C95.7443 88.0108 97.1993 86.941 98.215 85.8297C99.3244 84.616 99.8233 83.6637 99.9531 82.5129C100.327 79.1902 96.6254 76.5749 92.8339 77.4837ZM62.9792 78.4449C58.4862 79.4121 54.8313 81.1296 55.5146 81.9527C56.4162 83.039 66.1202 83.9654 72.7103 83.594C76.2843 83.3927 80.2128 82.9909 83.9469 82.4448C86.1948 82.1161 86.6372 81.9888 87.631 81.3853C88.2522 81.0079 88.7254 80.6642 88.6829 80.6217C88.6403 80.5789 87.4547 80.7115 86.048 80.9161C79.2164 81.91 71.982 82.3439 66.652 82.0792C61.5273 81.8249 60.2222 81.5352 60.3439 80.6797C60.4208 80.1403 61.7803 79.3915 64.0286 78.6504C66.0023 77.9998 65.5022 77.9019 62.9792 78.4449ZM62.9969 86.1386C62.6391 86.2527 62.0167 86.6601 61.6136 87.0436C60.782 87.8345 60.6601 88.534 61.2508 89.1248C62.189 90.063 66.2074 90.7529 71.9471 90.9611C76.8487 91.1387 80.3881 90.7367 84.9654 89.4823L86.4632 89.0719L85.6149 88.5791C85.1486 88.3081 84.5657 87.9423 84.3197 87.7662C83.9003 87.4661 83.7238 87.468 81.4874 87.7967C76.3789 88.548 68.3269 88.833 65.7333 88.3547C63.7672 87.9919 63.0272 87.2882 63.6355 86.3598C63.9719 85.8463 63.9433 85.8364 62.9969 86.1386ZM64.2843 93.7194C63.5237 94.1212 62.7884 94.9384 62.7884 95.3819C62.7884 95.9478 64.0181 96.8946 65.3102 97.3235C68.154 98.2676 73.4115 98.7055 77.0034 98.2974C78.959 98.0751 83.5344 97.0701 84.8185 96.5809L85.3829 96.3657L83.6458 95.4342L81.9089 94.5025L80.3694 94.7711C76.5636 95.4355 68.9348 95.5719 66.664 95.0163C65.7182 94.7848 65.1803 94.2655 65.3225 93.7215C65.4486 93.2395 65.1937 93.2389 64.2843 93.7194ZM56.3593 98.5779C53.5306 99.0912 51.3312 99.9906 50.5054 100.972C49.704 101.924 49.8334 102.405 51.0538 103.011C53.8464 104.397 61.9442 105.101 72.9011 104.912C79.6055 104.796 82.4229 104.625 86.1621 104.104C90.7087 103.471 94.9432 102.064 96.3226 100.728C97.0415 100.032 97.0749 99.8357 96.5787 99.2228L96.2144 98.7731L96.3148 99.2982C96.3712 99.5934 96.3066 99.9542 96.1671 100.122C95.1776 101.314 91.1735 102.169 83.5863 102.806C77.8945 103.284 64.8813 103.293 61.1842 102.822C56.0014 102.161 54.3448 101.662 54.2375 100.732C54.1897 100.316 54.3047 100.134 54.81 99.8261C55.5472 99.3762 56.9169 98.8958 58.3998 98.5666L59.4492 98.3337L58.5906 98.3314C58.1184 98.33 57.1143 98.4411 56.3593 98.5779ZM98.7956 103.065C95.8837 104.999 91.3217 106.244 84.3495 107.006C80.7677 107.398 69.9358 107.452 65.6504 107.1C60.7076 106.693 60.147 106.668 60.7849 106.882C64.3211 108.068 72.5586 108.75 79.2273 108.408C89.5675 107.879 95.4164 106.554 98.66 104.008C99.1866 103.594 100.218 102.251 99.9588 102.316C99.9265 102.324 99.4032 102.661 98.7956 103.065Z" fill="#EB252F"/>
<path fill-rule="evenodd" clip-rule="evenodd" d="M92.8339 77.4837C92.5154 77.56 92.0861 77.7203 91.8798 77.8399C91.5746 78.017 91.774 78.0586 92.9493 78.0633C95.7456 78.0744 97.3266 79.4499 97.3224 81.8674C97.3197 83.4246 96.6573 84.687 94.8902 86.5029C94.0791 87.3363 92.7072 88.4995 91.8415 89.0876C90.9758 89.6754 90.2979 90.187 90.3351 90.224C90.4385 90.3274 93.1023 89.3394 94.176 88.7996C95.7443 88.0108 97.1993 86.941 98.215 85.8297C99.3244 84.616 99.8233 83.6637 99.9531 82.5129C100.327 79.1902 96.6254 76.5749 92.8339 77.4837ZM62.9792 78.4449C58.4862 79.4121 54.8313 81.1296 55.5146 81.9527C56.4162 83.039 66.1202 83.9654 72.7103 83.594C76.2843 83.3927 80.2128 82.9909 83.9469 82.4448C86.1948 82.1161 86.6372 81.9888 87.631 81.3853C88.2522 81.0079 88.7254 80.6642 88.6829 80.6217C88.6403 80.5789 87.4547 80.7115 86.048 80.9161C79.2164 81.91 71.982 82.3439 66.652 82.0792C61.5273 81.8249 60.2222 81.5352 60.3439 80.6797C60.4208 80.1403 61.7803 79.3915 64.0286 78.6504C66.0023 77.9998 65.5022 77.9019 62.9792 78.4449ZM62.9969 86.1386C62.6391 86.2527 62.0167 86.6601 61.6136 87.0436C60.782 87.8345 60.6601 88.534 61.2508 89.1248C62.189 90.063 66.2074 90.7529 71.9471 90.9611C76.8487 91.1387 80.3881 90.7367 84.9654 89.4823L86.4632 89.0719L85.6149 88.5791C85.1486 88.3081 84.5657 87.9423 84.3197 87.7662C83.9003 87.4661 83.7238 87.468 81.4874 87.7967C76.3789 88.548 68.3269 88.833 65.7333 88.3547C63.7672 87.9919 63.0272 87.2882 63.6355 86.3598C63.9719 85.8463 63.9433 85.8364 62.9969 86.1386ZM64.2843 93.7194C63.5237 94.1212 62.7884 94.9384 62.7884 95.3819C62.7884 95.9478 64.0181 96.8946 65.3102 97.3235C68.154 98.2676 73.4115 98.7055 77.0034 98.2974C78.959 98.0751 83.5344 97.0701 84.8185 96.5809L85.3829 96.3657L83.6458 95.4342L81.9089 94.5025L80.3694 94.7711C76.5636 95.4355 68.9348 95.5719 66.664 95.0163C65.7182 94.7848 65.1803 94.2655 65.3225 93.7215C65.4486 93.2395 65.1937 93.2389 64.2843 93.7194ZM56.3593 98.5779C53.5306 99.0912 51.3312 99.9906 50.5054 100.972C49.704 101.924 49.8334 102.405 51.0538 103.011C53.8464 104.397 61.9442 105.101 72.9011 104.912C79.6055 104.796 82.4229 104.625 86.1621 104.104C90.7087 103.471 94.9432 102.064 96.3226 100.728C97.0415 100.032 97.0749 99.8357 96.5787 99.2228L96.2144 98.7731L96.3148 99.2982C96.3712 99.5934 96.3066 99.9542 96.1671 100.122C95.1776 101.314 91.1735 102.169 83.5863 102.806C77.8945 103.284 64.8813 103.293 61.1842 102.822C56.0014 102.161 54.3448 101.662 54.2375 100.732C54.1897 100.316 54.3047 100.134 54.81 99.8261C55.5472 99.3762 56.9169 98.8958 58.3998 98.5666L59.4492 98.3337L58.5906 98.3314C58.1184 98.33 57.1143 98.4411 56.3593 98.5779ZM98.7956 103.065C95.8837 104.999 91.3217 106.244 84.3495 107.006C80.7677 107.398 69.9358 107.452 65.6504 107.1C60.7076 106.693 60.147 106.668 60.7849 106.882C64.3211 108.068 72.5586 108.75 79.2273 108.408C89.5675 107.879 95.4164 106.554 98.66 104.008C99.1866 103.594 100.218 102.251 99.9588 102.316C99.9265 102.324 99.4032 102.661 98.7956 103.065Z" fill="#1C8BC6"/>
</svg>
