<svg width="270" height="150" viewBox="0 0 270 150" fill="none" xmlns="http://www.w3.org/2000/svg">
<rect width="270" height="150" rx="20" fill="white"/>
<path fill-rule="evenodd" clip-rule="evenodd" d="M165.727 18.0883C163.934 18.4712 162.87 19.4036 162.297 21.0932C161.495 23.4574 162.208 25.1792 166.079 30.226C168.09 32.8473 168.65 33.8417 169.21 35.7901C169.429 36.5527 169.939 38.0605 170.342 39.1408C170.746 40.2211 171.16 41.373 171.263 41.7009C171.517 42.5115 173.514 46.4746 174.104 47.3386C174.367 47.7228 174.891 48.3687 175.269 48.7736C175.947 49.4992 175.952 49.5225 175.605 50.3911C175.411 50.8759 174.904 52.6763 174.476 54.392C173.741 57.345 173.7 57.7274 173.706 61.5555C173.712 65.225 173.77 65.8076 174.335 67.8492C175.29 71.298 176.798 73.9296 178.617 75.3181C179.5 75.9926 179.844 76.1135 180.879 76.1135C181.867 76.1135 182.239 75.9949 182.841 75.4889C183.81 74.6736 184.133 73.8487 184.563 71.1011C185.177 67.173 184.992 67.2361 186.597 70.4058C187.931 73.0417 188.197 73.3978 190.683 75.8849C193.467 78.6702 196.81 81.7232 197.827 82.4088C199.039 83.2257 198.803 82.7723 197.188 81.1834C195.467 79.4896 194.564 78.3552 192.599 75.4202C189.977 71.5053 186.606 64.9376 185.689 61.9599C185.503 61.3561 185.225 60.8657 185.071 60.8701C184.512 60.8856 182.382 64.1034 181.89 65.6752C181.521 66.8521 180.817 71.2148 180.755 72.7051C180.739 73.0891 180.026 72.8396 179.288 72.1918C177.68 70.7797 176.122 65.4549 176.131 61.4037C176.137 58.4572 176.47 56.4942 177.496 53.3522C178.971 48.8336 178.963 48.6996 177.081 46.6402C175.51 44.9217 174.321 42.4556 172.661 37.4724C171.073 32.7075 170.449 31.505 167.639 27.7899C165.463 24.9141 164.803 23.7398 164.803 22.7434C164.803 21.2291 166.216 20.7413 168.434 21.4893C170.323 22.1257 174.108 24.1003 175.2 25.0186C176.735 26.3094 176.886 26.3575 180.318 26.641C184.771 27.0089 187.31 27.9753 192.202 31.1635C195.642 33.4056 197.796 35.1933 200.745 38.2555C203.419 41.0312 204.61 42.5326 206.675 45.7291C208.425 48.438 209.205 49.8753 209.871 51.6191C210.439 53.1051 213.085 59.0224 213.332 59.3602C213.425 59.4873 214.101 60.9431 214.833 62.5953C216.638 66.67 218.101 69.1187 219.107 69.7509C219.552 70.0303 221.111 70.6526 222.573 71.1337C226.686 72.4874 227.796 73.0198 230.723 75.0427C232.22 76.0765 233.969 77.2483 234.611 77.6469C235.797 78.3822 237.131 79.5355 237.131 79.8249C237.131 79.9122 235.649 80.0351 233.838 80.098C230.879 80.2008 230.264 80.299 227.772 81.0655C226.247 81.5348 224.814 82.1003 224.588 82.3224C224.194 82.7092 224.2 82.7785 224.744 83.9836C226.08 86.9435 229.1 89.5038 234.44 92.2049C238.286 94.1497 240.041 95.2462 242.023 96.9439C242.744 97.5611 243.448 98.066 243.588 98.066C244.134 98.066 242.751 96.0097 240.739 93.8292C238.217 91.0971 236.08 89.3352 232.969 87.4239C231.697 86.6417 230.291 85.576 229.845 85.0553L229.035 84.1088L231.523 83.4907C232.892 83.1508 234.767 82.8012 235.69 82.7138C237.626 82.5308 240.878 81.6247 241.009 81.2319C241.137 80.8495 238.98 78.2145 237.543 76.9971C235.768 75.4937 232.655 73.1353 230.644 71.7706C228.97 70.6344 224.033 68.16 222.298 67.5874C221.408 67.2934 221 66.9117 220.422 65.8305C218.622 62.4655 213.869 52.2397 213.333 50.5792C211.605 45.2249 204.431 36.2262 197.9 31.2205C194.943 28.9534 190.034 25.8234 188.373 25.1455C186.454 24.3621 183.19 23.6458 180.863 23.4974C178.546 23.3497 178.3 23.2599 176.819 22.0206C173.855 19.5406 168.243 17.551 165.727 18.0883ZM178.841 31.9055C178.278 32.0527 178.326 32.2267 179.212 33.2644C179.638 33.764 180.325 34.8226 180.737 35.6168C181.15 36.4113 181.583 37.0611 181.699 37.0611C181.815 37.0611 182.116 36.723 182.368 36.3101C183.792 33.9732 181.567 31.1933 178.841 31.9055ZM29.275 87.762C27.3933 88.2283 26.2372 88.9474 25.5876 90.0559L25 91.0588V106.347V121.636H28.5817H32.1635V107.494C32.1635 99.7159 32.251 93.4507 32.3578 93.5715C32.4648 93.6922 33.6507 96.2347 34.993 99.2214C42.0232 114.864 43.8385 118.819 44.3273 119.556C45.2114 120.89 46.6521 121.637 48.7501 121.849C52.0619 122.183 54.3961 121.526 55.6254 119.914C56.1895 119.174 57.5344 116.276 64.9033 99.9186C66.3623 96.6798 67.6309 93.896 67.7224 93.7324C67.8139 93.569 67.8669 99.1824 67.8398 106.207C67.813 113.231 67.8474 119.579 67.9163 120.313L68.0418 121.647L71.6508 121.584L75.2598 121.521L75.3205 107.078C75.3628 97.0269 75.3021 92.2516 75.1207 91.3726C74.7907 89.7751 73.904 88.8508 72.0247 88.1446C70.3611 87.5196 66.7394 87.2474 65.3014 87.6393C64.0159 87.9896 62.5823 88.9906 61.7793 90.0989C61.413 90.6045 59.3714 94.9176 57.2427 99.6836C53.484 108.1 52.009 111.388 50.6195 114.449C50.2505 115.263 49.9092 115.887 49.8609 115.836C49.8126 115.785 48.8365 113.56 47.6918 110.891C46.547 108.222 44.8601 104.323 43.9434 102.225C43.0265 100.128 41.8339 97.3728 41.2929 96.1019C38.5177 89.5817 37.7399 88.4998 35.3089 87.7777C33.9372 87.3705 30.8874 87.3624 29.275 87.762ZM81.3064 98.2202C81.2216 98.3047 81.1523 102.144 81.1523 106.751C81.1523 114.46 81.1872 115.208 81.5893 116.129C82.5219 118.265 84.707 119.782 88.2702 120.766C89.9137 121.22 90.7467 121.264 99.2343 121.35L108.42 121.442L108.416 122.868C108.412 124.671 108.088 125.302 106.796 126.026L105.762 126.604L93.5728 126.67L81.3834 126.735V129.287V131.838L94.035 131.747C106.312 131.659 106.745 131.641 108.651 131.131C110.946 130.518 113.408 129.155 114.405 127.945C115.826 126.222 115.814 126.353 115.814 111.543V98.066H112.117H108.42V107.425V116.783H99.8032C91.3267 116.783 91.1698 116.775 90.1563 116.264C89.5897 115.978 88.9972 115.484 88.8398 115.166C88.6286 114.74 88.5528 112.425 88.5503 106.327L88.5468 98.066H85.0037C83.0548 98.066 81.391 98.1354 81.3064 98.2202Z" fill="#0B6289"/>
<path fill-rule="evenodd" clip-rule="evenodd" d="M130.834 88.1528C128.458 88.3215 126.293 88.9433 124.75 89.9C123.315 90.7899 122.764 91.3574 122.098 92.6357C121.542 93.7012 121.488 94.0645 121.403 97.307C121.318 100.547 121.35 100.904 121.811 101.856C122.44 103.155 123.72 104.322 125.51 105.225C127.961 106.462 129.196 106.646 136.38 106.843C140.261 106.949 143.327 107.135 143.844 107.296C144.328 107.446 145.056 107.866 145.462 108.229C146.188 108.877 146.202 108.929 146.28 111.23C146.324 112.519 146.294 113.836 146.213 114.158C146.048 114.817 145.105 115.778 144.237 116.174C143.842 116.354 140.14 116.474 132.567 116.552L121.475 116.668L121.409 119.169L121.344 121.67L133.079 121.575C143.97 121.486 144.931 121.446 146.432 121.015C149.653 120.092 152.401 118.226 153.138 116.46C153.348 115.957 153.472 114.432 153.515 111.8C153.568 108.531 153.516 107.771 153.2 107.182C152.627 106.114 150.822 104.562 149.443 103.952C146.723 102.749 145.932 102.644 138.46 102.487C132.055 102.352 131.327 102.297 130.487 101.878C129.104 101.188 128.755 100.295 128.755 97.4415C128.754 94.7811 128.988 94.0467 130.012 93.485C130.638 93.1423 132.041 93.0847 142.272 92.9824L153.826 92.8668V90.455V88.0433L143.428 88.0202C137.709 88.0072 132.041 88.0671 130.834 88.1528ZM199.631 88.0673L198.757 88.1583L198.822 101.72L198.887 115.282L199.511 116.465C200.72 118.758 203.001 120.183 206.872 121.067C208.319 121.397 210.363 121.477 219.742 121.571L230.891 121.683V119.118V116.552H220.249C213.307 116.552 209.256 116.464 208.601 116.3C208.032 116.156 207.312 115.749 206.939 115.36L206.281 114.674L206.218 101.427L206.155 88.1808L205.64 88.0428C205.097 87.897 201.108 87.9134 199.631 88.0673ZM165.958 88.4844C161.467 89.4355 158.904 91.5175 158.317 94.691C158.163 95.5228 158.1 99.5616 158.145 105.645L158.217 115.282L158.859 116.59C160.014 118.941 161.969 120.251 165.756 121.209C167.588 121.673 168.1 121.693 175.393 121.585L183.095 121.472L185.857 123.98L188.62 126.489H192.8C196.12 126.489 196.929 126.429 196.734 126.2C196.599 126.041 195.032 124.611 193.251 123.023C190.585 120.644 190.078 120.093 190.381 119.903C193.27 118.086 193.826 117.261 194.191 114.242C194.317 113.191 194.384 108.409 194.341 103.422C194.266 94.6704 194.253 94.4603 193.733 93.329C192.637 90.9429 190.569 89.5081 186.945 88.6207C185.072 88.162 184.364 88.1308 176.2 88.1479C169.722 88.1616 167.071 88.2487 165.958 88.4844ZM169.158 93.3031C167.864 93.6516 167.018 94.1777 166.513 94.9481C166.184 95.4505 166.134 96.6551 166.106 104.725L166.074 113.928L166.651 114.782C166.97 115.253 167.695 115.866 168.269 116.152C169.214 116.621 169.698 116.674 173.584 116.733L177.859 116.798L176.01 115.117C174.993 114.192 173.641 112.943 173.006 112.341L171.851 111.248L176.031 111.243L180.21 111.238L182.916 113.694L185.622 116.15L186.218 115.6C187.42 114.492 187.448 114.246 187.448 104.76C187.448 98.7055 187.368 95.7983 187.189 95.4512C186.671 94.4432 185.71 93.6576 184.585 93.3234C183.069 92.8733 170.814 92.8569 169.158 93.3031ZM237.477 111.673C235.577 112.549 234.613 113.951 234.416 116.126C233.981 120.92 239.618 123.745 243.191 120.523C245.542 118.403 245.61 114.847 243.34 112.694C241.8 111.232 239.357 110.807 237.477 111.673ZM237.715 112.907C235.234 114.348 234.843 117.624 236.917 119.599C238.494 121.1 240.962 121.095 242.469 119.587C244.376 117.68 244.126 114.635 241.928 113.007C240.947 112.28 238.879 112.231 237.715 112.907ZM237.593 116.552C237.593 119.402 237.616 119.556 238.055 119.556C238.461 119.556 238.517 119.402 238.517 118.286C238.517 117.114 238.559 117.015 239.048 117.015C239.446 117.015 239.75 117.317 240.269 118.228C240.8 119.16 241.105 119.458 241.587 119.514C242.375 119.606 242.37 119.52 241.521 118.286C240.763 117.184 240.661 116.784 241.139 116.784C241.651 116.784 242.214 115.984 242.211 115.263C242.204 113.961 241.486 113.548 239.225 113.548H237.593V116.552ZM238.921 114.401C238.636 114.476 238.517 114.739 238.517 115.298C238.517 116.077 238.533 116.09 239.511 116.09C240.057 116.09 240.629 115.966 240.782 115.813C241.665 114.93 240.443 114.003 238.921 114.401Z" fill="#E28E22"/>
</svg>
