<svg width="150" height="150" viewBox="0 0 150 150" fill="none" xmlns="http://www.w3.org/2000/svg">
<rect width="150" height="150" rx="75" fill="#202020"/>
<rect x="35" y="34" width="80" height="80" rx="8" fill="#8A94BD"/>
<path d="M76.3872 56H69.879L64.4785 84.11H70.9867L73.8947 68.601H78.7412C81.6215 68.601 81.3722 69.7088 81.2337 70.8166L78.7412 84.11H85.9418C86.5419 80.4174 87.8804 72.1459 88.4343 68.601C88.9882 65.0561 84.5571 63.3391 82.0646 63.3391H75.1409L76.3872 56Z" fill="#232630"/>
<path d="M103.943 63.3391H91.0653L85.3879 91.3106H91.8962L93.4194 84.11H102.282C108.236 82.5868 111.421 78.7096 111.975 70.8166C112.418 64.5022 106.805 63.2006 103.943 63.3391Z" fill="#232630"/>
<path d="M57.5554 63.339H44.6774L39 91.3105H45.5082L47.0314 84.1099H55.8937C61.848 82.5867 65.0329 78.7095 65.5868 70.8165C66.0299 64.5021 60.4171 63.2005 57.5554 63.339Z" fill="#232630"/>
<path d="M94.5273 78.7096L96.189 68.6011H102.282C103.944 68.6011 105.605 69.9858 104.913 74.2785C104.359 77.7126 100.897 78.6634 99.2354 78.7096H94.5273Z" fill="#8A94BD"/>
<path d="M48.1396 78.7096L49.8013 68.6011H55.8941C57.5558 68.6011 59.2175 69.9858 58.5251 74.2785C57.9712 77.7126 54.5094 78.6634 52.8477 78.7096H48.1396Z" fill="#8A94BD"/>
</svg>
