<svg width="150" height="150" viewBox="0 0 150 150" fill="none" xmlns="http://www.w3.org/2000/svg">
<rect width="150" height="150" rx="75" fill="#202020"/>
<rect x="47.6484" y="65.5538" width="62.4219" height="46.3237" fill="white"/>
<path fill-rule="evenodd" clip-rule="evenodd" d="M41.3603 35.1507C40.3269 35.3244 38.6193 36.1336 37.7052 36.8826C36.7312 37.6806 35.7364 39.2034 35.3307 40.5166C35.0048 41.572 35.0007 41.9979 35.0007 74.962C35.0007 111.51 34.9407 109.228 35.9506 111.099C36.9767 113 39.2915 114.62 41.4995 114.981C42.824 115.198 107.176 115.198 108.501 114.981C110.708 114.62 113.023 113 114.049 111.099C115.059 109.228 114.999 111.51 114.999 74.962C114.999 41.9979 114.995 41.572 114.669 40.5166C114.269 39.2213 113.247 37.645 112.307 36.8749C111.369 36.1063 109.668 35.3327 108.492 35.1402C107.31 34.9466 42.5138 34.9567 41.3603 35.1507ZM102.927 72.5191C103.854 72.6568 105.12 72.9341 105.741 73.1352L106.868 73.5008L106.912 77.2327L106.956 80.9647L106.009 80.4042C103.456 78.8946 99.1918 78.1591 96.4101 78.7487C94.0536 79.2481 92.8231 80.3782 92.8231 82.0428C92.8231 83.9258 94.3474 85.1496 99.4515 87.3649C104.604 89.6012 107.154 91.8447 108.145 95.0131C108.618 96.5274 108.646 99.5958 108.2 101.098C107.09 104.832 104.297 107.115 99.5581 108.159C97.6531 108.579 92.878 108.673 90.4798 108.338C88.3931 108.046 86.1228 107.45 85.0907 106.923L84.4454 106.594V102.645C84.4454 99.5306 84.4888 98.7224 84.6508 98.8192C84.7638 98.8865 85.23 99.2216 85.6868 99.5638C88.3154 101.533 92.7786 102.672 95.9352 102.179C98.6619 101.754 100.051 100.585 100.051 98.716C100.051 97.6494 99.7869 97.1512 98.6911 96.1496C97.6459 95.1944 96.6783 94.6637 93.4802 93.2915C90.2374 91.9002 88.7207 90.9854 87.2224 89.517C85.1929 87.5278 84.3756 85.5445 84.3794 82.6177C84.3828 79.9902 85.1009 78.0266 86.7339 76.1782C88.3836 74.3108 91.6933 72.7972 95.0407 72.3795C96.4554 72.2029 101.385 72.2903 102.927 72.5191ZM81.4886 76.2112V79.4966H76.4784H71.4682V93.7879V108.079H67.4437H63.4191V93.7879V79.4966H58.4089H53.3987V76.2112V72.9259H67.4437H81.4886V76.2112Z" fill="#327BC5"/>
</svg>
