<svg width="1920" height="444" viewBox="0 0 1920 444" fill="none" xmlns="http://www.w3.org/2000/svg">
<path d="M-48.5226 210.879C-10.7246 156.021 104.571 45.1801 263.368 40.6776C461.864 35.0496 467.007 244.351 589.516 269.967C779.249 309.64 718.996 106.061 906.918 118.262C1030.66 126.296 1070.2 333.724 1246.07 352.043C1422.58 370.429 1466.48 209.901 1675.48 209.767C1812.08 209.678 1936.57 349.598 2004.61 419.554" stroke="white" stroke-width="70"/>
<path d="M-48.5226 205.879C-10.7246 151.021 104.571 40.1801 263.368 35.6776C461.864 30.0496 467.007 239.351 589.516 264.967C779.249 304.64 718.996 101.061 906.918 113.262C1030.66 121.296 1070.2 328.724 1246.07 347.043C1422.58 365.429 1466.48 204.901 1675.48 204.767C1812.08 204.678 1936.57 344.598 2004.61 414.554" stroke="#FFE500" stroke-width="70"/>
<path d="M-19.066 139.549L-15.852 136.591L-7.51896 145.644L-7.26244 145.408C-7.71189 144.112 -7.72005 142.791 -7.28691 141.445C-6.86303 140.088 -6.03244 138.841 -4.79513 137.702C-2.9442 135.998 -1.02504 135.217 0.962355 135.357C2.95981 135.488 4.85665 136.529 6.65289 138.481L16.4165 149.089L13.1723 152.075L4.14482 142.267C1.71897 139.631 -0.716172 139.438 -3.16061 141.688C-4.47839 142.901 -5.17273 144.246 -5.24362 145.724C-5.32377 147.191 -4.78516 148.554 -3.62779 149.811L5.20526 159.408L1.96111 162.394L-19.066 139.549Z" fill="#131313"/>
<path d="M7.12365 127.553L10.4085 124.864L12.6558 127.609L12.9097 127.401C12.5448 126.092 12.6176 124.778 13.1281 123.459C13.6405 122.121 14.5474 120.919 15.8486 119.854C17.7741 118.278 19.7151 117.617 21.6718 117.87C23.6371 118.134 25.4598 119.292 27.1399 121.345L36.2979 132.533L32.886 135.325L24.4295 124.995C22.1605 122.223 19.7671 121.867 17.2492 123.929C15.8739 125.054 15.1152 126.329 14.9732 127.753C14.8206 129.185 15.2985 130.579 16.407 131.933L24.6817 142.041L21.2699 144.834L7.12365 127.553Z" fill="#131313"/>
<path d="M28.0391 110.8L31.5447 108.16L44.9806 125.999L41.475 128.64L28.0391 110.8ZM27.4354 106.351C26.7801 106.845 26.0833 107.044 25.3448 106.95C24.6036 106.875 24.0027 106.532 23.5421 105.92C23.0815 105.309 22.9133 104.631 23.0376 103.887C23.151 103.151 23.5353 102.537 24.1905 102.043C24.8458 101.549 25.5481 101.346 26.2975 101.432C27.036 101.526 27.6355 101.879 28.0961 102.49C28.5567 103.102 28.7263 103.77 28.6047 104.495C28.4804 105.239 28.0906 105.858 27.4354 106.351Z" fill="#131313"/>
<path d="M53.3791 101.551C52.5071 100.775 51.5207 100.362 50.4198 100.311C49.2317 100.254 48.0537 100.631 46.886 101.442C45.3701 102.495 44.5621 103.872 44.4619 105.573C44.3505 107.282 44.9735 109.114 46.3307 111.067C47.7035 113.043 49.2218 114.294 50.8854 114.82C52.53 115.342 54.1102 115.077 55.6261 114.024C58.0289 112.355 58.7737 110.347 57.8603 108.002L61.3804 105.557C62.455 107.607 62.703 109.665 62.1244 111.732C61.5243 113.864 60.1126 115.701 57.8893 117.246C55.217 119.102 52.5284 119.713 49.8235 119.079C47.0995 118.44 44.7002 116.628 42.6253 113.641C40.5817 110.699 39.7384 107.856 40.0954 105.111C40.4524 102.366 41.9671 100.065 44.6395 98.2086C46.874 96.6564 49.1159 95.9896 51.3653 96.2082C53.4893 96.414 55.3339 97.38 56.8992 99.106L53.3791 101.551Z" fill="#131313"/>
<path d="M73.1222 102.687C74.5285 101.816 75.4577 100.694 75.9096 99.3202C76.3499 97.9539 76.2029 96.678 75.4686 95.4925L74.4859 93.9059L70.0319 97.0747C67.6061 98.8185 66.9043 100.516 67.9266 102.166C68.445 103.003 69.1866 103.46 70.1514 103.538C71.0859 103.619 72.0761 103.335 73.1222 102.687ZM74.1178 106.437C72.2582 107.588 70.4304 108.013 68.6346 107.71C66.7823 107.394 65.327 106.381 64.2688 104.673C63.2177 102.976 63 101.261 63.6157 99.5291C64.2386 97.8085 65.6401 96.1766 67.8202 94.6333L72.7797 91.1513L71.7647 89.5124C70.4688 87.4203 68.5249 87.1769 65.933 88.7823C63.7363 90.143 62.8526 91.6633 63.282 93.3432L59.6557 95.5893C58.8338 93.8469 58.8295 92.0484 59.6427 90.1938C60.4516 88.358 61.937 86.7706 64.0988 85.4316C66.4699 83.9629 68.6555 83.3892 70.6556 83.7103C72.6368 84.027 74.2502 85.1908 75.4956 87.2015L83.5298 100.173L79.9209 102.408L78.2687 99.7406L77.9723 99.9242C78.0178 102.646 76.733 104.817 74.1178 106.437Z" fill="#131313"/>
<path d="M73.3504 70.2487L77.19 68.0812L92.4538 95.119L88.6142 97.2866L73.3504 70.2487Z" fill="#131313"/>
<path d="M101.171 72.2387C100.323 70.4622 100.358 68.6497 101.278 66.8011C102.204 64.9649 103.808 63.5017 106.091 62.4115C108.361 61.3272 110.431 60.9517 112.303 61.2851C114.174 61.6185 115.633 62.6263 116.679 64.3085L112.867 66.1294C111.687 64.7077 109.944 64.5479 107.638 65.6499C106.515 66.1861 105.705 66.8686 105.206 67.6975C104.69 68.5504 104.617 69.3655 104.988 70.1427C105.536 71.29 106.995 71.6006 109.365 71.0746L113.086 70.2519C115.235 69.7709 116.966 69.747 118.279 70.1804C119.616 70.6326 120.635 71.5927 121.337 73.0608C122.232 74.936 122.173 76.8429 121.16 78.7815C120.16 80.6836 118.444 82.2151 116.014 83.376C113.621 84.5193 111.445 84.9295 109.488 84.6068C107.525 84.3024 106.029 83.297 105.002 81.5907L108.981 79.6902C110.325 81.1087 112.187 81.2493 114.568 80.112C115.814 79.5168 116.711 78.7777 117.259 77.8948C117.807 77.0118 117.89 76.1694 117.507 75.3675C116.947 74.1955 115.568 73.8466 113.37 74.3206L109.465 75.1859C107.323 75.6487 105.586 75.6449 104.255 75.1745C102.912 74.71 101.884 73.7314 101.171 72.2387Z" fill="#131313"/>
<path d="M131.697 51.6422L136.516 49.664L131.654 62.0128L145.566 70.0903L140.558 72.1463L129.724 65.9528L128.623 68.4001L131.66 75.799L127.582 77.4734L115.79 48.7507L119.869 47.0762L126.715 63.7521L127.037 63.6197L131.697 51.6422Z" fill="#131313"/>
<path d="M142.881 47.3996L147.014 45.9224L154.531 66.9522L150.398 68.4294L142.881 47.3996ZM143.629 42.9726C142.857 43.2487 142.132 43.2319 141.455 42.9221C140.77 42.6299 140.298 42.1233 140.04 41.4023C139.783 40.6814 139.824 39.9842 140.164 39.3109C140.491 38.6423 141.041 38.1699 141.813 37.8937C142.586 37.6176 143.317 37.6321 144.007 37.9373C144.684 38.247 145.151 38.7624 145.409 39.4833C145.667 40.2043 145.63 40.8926 145.298 41.5485C144.958 42.2217 144.401 42.6965 143.629 42.9726Z" fill="#131313"/>
<path d="M150.48 35.5205L154.673 34.1585L164.264 63.6891L160.07 65.051L150.48 35.5205Z" fill="#131313"/>
<path d="M161.23 32.1062L165.463 30.8709L174.161 60.6764L169.929 61.9117L161.23 32.1062Z" fill="#131313"/>
<path d="M176.921 43.1638C176.461 41.2496 176.873 39.4842 178.158 37.8676C179.446 36.2643 181.319 35.1669 183.778 34.5756C186.224 33.9874 188.328 34.0511 190.089 34.7667C191.85 35.4822 193.067 36.7715 193.74 38.6346L189.632 39.6222C188.775 37.9863 187.103 37.4673 184.617 38.065C183.408 38.3559 182.473 38.8548 181.813 39.5618C181.13 40.2885 180.89 41.0706 181.091 41.9081C181.388 43.1443 182.751 43.7518 185.178 43.7305L188.989 43.7002C191.191 43.6769 192.889 44.0138 194.083 44.711C195.297 45.4315 196.094 46.5828 196.474 48.1646C196.96 50.1852 196.506 52.0381 195.111 53.7233C193.737 55.3756 191.74 56.5166 189.121 57.1463C186.542 57.7664 184.329 57.715 182.482 56.992C180.625 56.2856 179.372 54.991 178.722 53.1083L183.009 52.0774C184.029 53.7446 185.821 54.2698 188.387 53.6529C189.729 53.33 190.76 52.7938 191.48 52.0442C192.2 51.2946 192.456 50.4878 192.248 49.6238C191.944 48.361 190.668 47.7327 188.42 47.739L184.421 47.7726C182.229 47.7794 180.531 47.4143 179.327 46.6772C178.11 45.9434 177.308 44.7722 176.921 43.1638Z" fill="#131313"/>
<path d="M233.538 55.25L239.157 18.6831L243.161 18.3289L237.461 54.9031L233.538 55.25Z" fill="#131313"/>
<path d="M283.248 31.3381C283.444 29.3791 284.414 27.848 286.16 26.7448C287.904 25.6552 290.034 25.2363 292.551 25.4881C295.054 25.7385 297.019 26.4916 298.446 27.7473C299.873 29.003 300.598 30.6212 300.619 32.602L296.416 32.1814C296.145 30.3544 294.738 29.3136 292.194 29.0591C290.956 28.9353 289.909 29.0985 289.053 29.5487C288.169 30.0099 287.684 30.669 287.598 31.526C287.472 32.7912 288.558 33.8136 290.857 34.5932L294.465 35.8197C296.552 36.5232 298.044 37.4007 298.942 38.4523C299.85 39.5325 300.224 40.8821 300.062 42.5009C299.855 44.5687 298.816 46.1685 296.944 47.3003C295.102 48.4076 292.841 48.8272 290.161 48.559C287.521 48.295 285.449 47.5174 283.943 46.2264C282.422 44.9475 281.665 43.3123 281.672 41.3206L286.059 41.7596C286.473 43.6696 287.992 44.7559 290.618 45.0186C291.992 45.1561 293.142 44.9895 294.068 44.5188C294.995 44.0482 295.502 43.3707 295.591 42.4864C295.72 41.1941 294.722 40.1805 292.597 39.4458L288.81 38.1601C286.738 37.4444 285.255 36.5403 284.362 35.4479C283.454 34.3541 283.083 32.9842 283.248 31.3381Z" fill="#131313"/>
<path d="M313.284 48.1838C315.141 48.5881 316.728 48.2409 318.045 47.1423C319.345 46.0542 320.254 44.3212 320.772 41.9433C321.286 39.5788 321.18 37.6247 320.453 36.0812C319.709 34.548 318.409 33.5793 316.552 33.175C314.682 32.7678 313.097 33.1083 311.796 34.1964C310.496 35.2846 309.587 37.0176 309.069 39.3955C308.549 41.7867 308.653 43.7474 309.384 45.2777C310.114 46.8079 311.414 47.7766 313.284 48.1838ZM312.451 52.0111C309.245 51.3131 306.946 49.7562 305.555 47.3405C304.164 44.9249 303.853 41.9537 304.621 38.4269C305.386 34.9135 306.91 32.3489 309.192 30.7331C311.462 29.1144 314.193 28.6526 317.385 29.3477C320.565 30.0399 322.85 31.5939 324.241 34.0095C325.645 36.4281 325.965 39.3941 325.2 42.9075C324.432 46.4343 322.914 49.007 320.644 50.6257C318.375 52.2445 315.644 52.7062 312.451 52.0111Z" fill="#131313"/>
<path d="M333.681 37.9659L330.197 36.8081L331.368 33.2856L334.851 34.4434L335.55 32.3416C336.257 30.2138 337.33 28.8488 338.769 28.2466C340.148 27.653 341.96 27.7292 344.204 28.4752C344.983 28.7339 345.746 29.0596 346.494 29.4524L345.382 32.7997C344.819 32.4976 344.214 32.2387 343.565 32.0231C341.58 31.3634 340.264 32.0066 339.618 33.9527L338.997 35.821L343.687 37.3798L342.516 40.9022L337.865 39.3564L332.024 56.9299L327.84 55.5393L333.681 37.9659Z" fill="#131313"/>
<path d="M357.485 37.0693L355.29 42.1302L359.88 44.1217L358.403 47.527L353.813 45.5355L349.242 56.0711C348.779 57.1372 348.671 58.0218 348.918 58.7248C349.17 59.4153 349.797 59.9782 350.801 60.4135C351.177 60.5767 351.692 60.763 352.347 60.9724L350.886 64.34C350.048 64.1406 349.297 63.8967 348.632 63.6083C346.387 62.6343 344.96 61.5087 344.352 60.2314C343.756 58.9595 343.888 57.3327 344.748 55.351L349.768 43.7806L346.4 42.3197L347.877 38.9144L351.245 40.3754L353.441 35.3145L357.485 37.0693Z" fill="#131313"/>
<path d="M371.121 56.901C372.186 55.2449 373.746 54.3219 375.802 54.132C377.851 53.9537 379.939 54.5484 382.067 55.916C384.183 57.2763 385.591 58.8399 386.292 60.6068C386.993 62.3738 386.903 64.1444 386.022 65.9188L382.469 63.6345C383.058 61.8839 382.277 60.3174 380.126 58.935C379.08 58.2622 378.073 57.932 377.106 57.9444C376.109 57.9535 375.377 58.3203 374.912 59.0448C374.224 60.1144 374.727 61.5187 376.421 63.2577L379.078 65.9893C380.617 67.564 381.548 69.0237 381.87 70.3684C382.189 71.7436 381.908 73.1154 381.029 74.484C379.905 76.2321 378.252 77.1851 376.07 77.3429C373.926 77.4925 371.722 76.8391 369.456 75.3827C367.225 73.9485 365.732 72.3143 364.977 70.48C364.203 68.6498 364.271 66.8491 365.182 65.078L368.891 67.4622C368.392 69.3516 369.252 71.0097 371.472 72.4365C372.633 73.1831 373.734 73.5573 374.773 73.5589C375.812 73.5605 376.572 73.1875 377.052 72.4399C377.755 71.3474 377.326 69.9912 375.767 68.3713L372.977 65.5053C371.457 63.9265 370.546 62.4475 370.247 61.0683C369.935 59.6817 370.227 58.2926 371.121 56.901Z" fill="#131313"/>
<path d="M405.254 73.6098L409.291 76.9018L396.119 78.5177L395.654 94.5984L391.458 91.1769L391.735 78.7009L389.059 78.9L384.004 85.0984L380.587 82.312L400.209 58.2494L403.627 61.0359L392.234 75.0062L392.505 75.2265L405.254 73.6098Z" fill="#131313"/>
<path d="M412.682 80.2266L415.876 83.2364L400.56 99.49L397.366 96.4803L412.682 80.2266ZM416.965 78.8807C416.368 78.3182 416.053 77.665 416.022 76.9212C415.971 76.178 416.208 75.5278 416.733 74.9706C417.258 74.4134 417.897 74.1332 418.652 74.1302C419.396 74.1178 420.067 74.3928 420.664 74.9554C421.261 75.518 421.58 76.1758 421.622 76.929C421.654 77.6728 421.407 78.3233 420.882 78.8805C420.357 79.4377 419.727 79.7175 418.992 79.72C418.238 79.7231 417.562 79.4433 416.965 78.8807Z" fill="#131313"/>
<path d="M427.723 82.637L430.796 85.7989L408.531 107.439L405.458 104.277L427.723 82.637Z" fill="#131313"/>
<path d="M436.32 91.6699L439.27 94.9471L416.192 115.718L413.243 112.441L436.32 91.6699Z" fill="#131313"/>
<path d="M433.065 110.548C434.589 109.301 436.358 108.904 438.372 109.357C440.376 109.819 442.179 111.029 443.781 112.986C445.375 114.932 446.233 116.854 446.355 118.751C446.477 120.648 445.845 122.305 444.46 123.721L441.784 120.452C442.884 118.969 442.624 117.238 441.005 115.259C440.216 114.297 439.361 113.672 438.437 113.386C437.485 113.087 436.677 113.211 436.01 113.756C435.026 114.562 435.072 116.053 436.147 118.229L437.832 121.647C438.811 123.62 439.247 125.295 439.139 126.674C439.018 128.08 438.328 129.299 437.069 130.329C435.461 131.646 433.595 132.043 431.471 131.52C429.385 131.001 427.489 129.7 425.783 127.616C424.103 125.564 423.186 123.549 423.034 121.571C422.862 119.592 423.482 117.9 424.895 116.496L427.688 119.907C426.63 121.551 426.937 123.393 428.609 125.435C429.484 126.503 430.415 127.199 431.403 127.52C432.391 127.842 433.229 127.722 433.917 127.159C434.922 126.336 434.932 124.914 433.948 122.892L432.178 119.306C431.218 117.335 430.809 115.647 430.948 114.243C431.08 112.828 431.785 111.596 433.065 110.548Z" fill="#131313"/>
<path d="M447.501 166L481.832 152.212L484.176 155.478L449.797 169.198L447.501 166Z" fill="#131313"/>
<path d="M491.101 208.6C492.146 209.882 493.379 210.659 494.799 210.93C496.211 211.19 497.457 210.88 498.538 209.999L499.984 208.82L496.268 204.812C494.226 202.631 492.453 202.154 490.948 203.38C490.185 204.002 489.827 204.797 489.874 205.763C489.915 206.7 490.323 207.646 491.101 208.6ZM487.511 210.07C486.129 208.375 485.472 206.617 485.541 204.797C485.616 202.919 486.432 201.346 487.99 200.076C489.538 198.815 491.21 198.378 493.007 198.765C494.793 199.161 496.592 200.341 498.404 202.304L502.496 206.773L503.991 205.555C505.898 204 505.889 202.041 503.963 199.678C502.33 197.675 500.709 196.995 499.098 197.637L496.403 194.331C498.025 193.291 499.808 193.055 501.752 193.622C503.677 194.188 505.443 195.456 507.049 197.427C508.811 199.589 509.662 201.683 509.601 203.707C509.543 205.713 508.597 207.463 506.763 208.957L494.936 218.596L492.254 215.306L494.686 213.323L494.466 213.053C491.773 213.449 489.454 212.455 487.511 210.07Z" fill="#131313"/>
<path d="M504.855 230.053C502.873 228.014 502.045 225.672 502.372 223.027C502.7 220.383 504.133 217.826 506.672 215.358C509.201 212.899 511.797 211.548 514.459 211.305C517.112 211.053 519.424 211.941 521.397 213.97C522.464 215.068 523.177 216.292 523.535 217.641C523.883 218.999 523.826 220.323 523.363 221.612L523.592 221.847L532.385 213.299L535.459 216.46L513.196 238.103L510.252 235.074L512.781 232.615L512.538 232.365C509.684 233.157 507.123 232.386 504.855 230.053ZM519.431 217.626C518.135 216.293 516.635 215.721 514.931 215.909C513.226 216.079 511.531 216.983 509.845 218.622C508.149 220.271 507.183 221.945 506.947 223.643C506.729 225.341 507.269 226.857 508.565 228.191C509.861 229.524 511.366 230.101 513.08 229.922C514.803 229.753 516.503 228.854 518.179 227.224C519.846 225.604 520.793 223.93 521.02 222.202C521.247 220.475 520.718 218.95 519.431 217.626Z" fill="#131313"/>
<path d="M527.121 250.397C524.849 248.686 523.672 246.499 523.59 243.836C523.507 241.172 524.531 238.426 526.661 235.597C528.783 232.78 531.141 231.046 533.734 230.398C536.317 229.741 538.738 230.264 540.999 231.966C542.222 232.888 543.114 233.987 543.675 235.265C544.228 236.554 544.374 237.871 544.115 239.216L544.377 239.413L551.754 229.616L555.276 232.269L536.599 257.072L533.224 254.531L535.346 251.713L535.068 251.503C532.369 252.723 529.72 252.354 527.121 250.397ZM539.617 235.881C538.132 234.762 536.562 234.427 534.907 234.875C533.249 235.304 531.713 236.458 530.298 238.336C528.875 240.226 528.177 242.028 528.204 243.742C528.25 245.454 529.016 246.869 530.501 247.987C531.986 249.106 533.562 249.445 535.228 249.006C536.905 248.574 538.447 247.424 539.853 245.557C541.251 243.7 541.93 241.901 541.89 240.159C541.849 238.417 541.092 236.991 539.617 235.881Z" fill="#131313"/>
<path d="M554.779 241.839L558.617 243.966L547.791 263.499L543.952 261.372L554.779 241.839ZM558.597 239.477C557.88 239.079 557.414 238.524 557.199 237.811C556.966 237.103 557.035 236.415 557.406 235.745C557.777 235.075 558.328 234.646 559.058 234.456C559.777 234.261 560.494 234.361 561.212 234.759C561.929 235.157 562.401 235.715 562.628 236.435C562.842 237.148 562.764 237.839 562.393 238.509C562.022 239.178 561.48 239.605 560.769 239.789C560.038 239.978 559.315 239.874 558.597 239.477Z" fill="#131313"/>
<path d="M571.205 243.913L569.103 249.013L573.729 250.92L572.314 254.352L567.688 252.445L563.311 263.063C562.868 264.137 562.776 265.023 563.036 265.722C563.3 266.407 563.938 266.959 564.949 267.376C565.328 267.532 565.847 267.709 566.505 267.906L565.106 271.3C564.265 271.116 563.51 270.886 562.84 270.61C560.577 269.677 559.13 268.578 558.498 267.312C557.879 266.051 557.982 264.422 558.805 262.425L563.612 250.765L560.218 249.365L561.632 245.934L565.026 247.333L567.129 242.232L571.205 243.913Z" fill="#131313"/>
<path d="M578.316 252.204L582.547 253.37L576.616 274.901L572.385 273.735L578.316 252.204ZM581.472 249.011C580.681 248.793 580.098 248.363 579.722 247.72C579.329 247.087 579.234 246.402 579.438 245.664C579.641 244.926 580.075 244.379 580.741 244.023C581.393 243.664 582.114 243.593 582.905 243.811C583.696 244.029 584.286 244.461 584.675 245.107C585.051 245.75 585.137 246.44 584.934 247.178C584.731 247.916 584.305 248.458 583.656 248.804C582.991 249.16 582.263 249.229 581.472 249.011Z" fill="#131313"/>
<path d="M594.733 275.062C596.608 275.372 598.175 274.944 599.434 273.78C600.678 272.627 601.497 270.85 601.894 268.449C602.288 266.062 602.082 264.115 601.277 262.611C600.457 261.117 599.109 260.216 597.234 259.907C595.345 259.595 593.779 260.016 592.536 261.168C591.293 262.321 590.473 264.098 590.077 266.499C589.678 268.914 589.883 270.867 590.69 272.358C591.497 273.849 592.845 274.75 594.733 275.062ZM594.096 278.927C590.858 278.393 588.483 276.955 586.971 274.613C585.459 272.271 584.997 269.319 585.585 265.758C586.17 262.21 587.562 259.572 589.759 257.842C591.944 256.11 594.648 255.51 597.872 256.042C601.082 256.572 603.443 258.007 604.955 260.349C606.481 262.693 606.951 265.639 606.365 269.187C605.778 272.748 604.392 275.395 602.208 277.127C600.024 278.859 597.319 279.459 594.096 278.927Z" fill="#131313"/>
<path d="M614.158 258.93L618.4 259.104L618.254 262.649L618.582 262.662C619.18 261.441 620.107 260.508 621.365 259.861C622.637 259.202 624.114 258.907 625.794 258.975C628.28 259.077 630.17 259.873 631.464 261.363C632.757 262.866 633.349 264.943 633.241 267.593L632.65 282.039L628.244 281.858L628.79 268.519C628.936 264.94 627.384 263.084 624.133 262.951C622.357 262.878 620.943 263.327 619.891 264.296C618.825 265.265 618.256 266.624 618.184 268.372L617.65 281.425L613.245 281.245L614.158 258.93Z" fill="#131313"/>
<path d="M647.952 277.62C649.594 277.421 650.909 276.794 651.897 275.738C652.871 274.683 653.274 273.464 653.107 272.079L652.882 270.227L647.509 271.228C644.574 271.79 643.224 273.035 643.457 274.962C643.576 275.939 644.056 276.666 644.899 277.143C645.713 277.609 646.73 277.768 647.952 277.62ZM647.278 281.44C645.107 281.703 643.27 281.32 641.768 280.29C640.22 279.224 639.326 277.693 639.084 275.698C638.844 273.716 639.368 272.069 640.655 270.757C641.944 269.458 643.902 268.566 646.529 268.083L652.493 267.01L652.261 265.096C651.965 262.653 650.304 261.615 647.277 261.981C644.712 262.292 643.271 263.299 642.954 265.004L638.719 265.517C638.707 263.59 639.459 261.957 640.977 260.616C642.483 259.291 644.498 258.475 647.023 258.17C649.791 257.834 652.016 258.233 653.695 259.366C655.359 260.486 656.334 262.221 656.618 264.569L658.452 279.716L654.237 280.226L653.86 277.111L653.514 277.153C652.411 279.642 650.332 281.071 647.278 281.44Z" fill="#131313"/>
<path d="M659.148 247.663L663.395 246.477L671.745 276.382L667.499 277.568L659.148 247.663Z" fill="#131313"/>
<path d="M697.836 247.722C697.009 246.898 696.048 246.43 694.951 246.317C693.768 246.194 692.571 246.504 691.359 247.248C689.787 248.214 688.903 249.544 688.707 251.236C688.5 252.936 689.019 254.8 690.264 256.827C691.523 258.877 692.969 260.211 694.6 260.829C696.213 261.443 697.806 261.267 699.378 260.301C701.871 258.77 702.728 256.807 701.948 254.414L705.6 252.171C706.557 254.278 706.689 256.347 705.995 258.378C705.276 260.473 703.763 262.228 701.457 263.645C698.684 265.349 695.966 265.807 693.301 265.022C690.617 264.231 688.323 262.287 686.42 259.188C684.545 256.136 683.863 253.25 684.373 250.529C684.884 247.808 686.526 245.596 689.298 243.893C691.617 242.469 693.892 241.929 696.126 242.274C698.235 242.599 700.022 243.667 701.488 245.478L697.836 247.722Z" fill="#131313"/>
<path d="M720.54 243.903C721.917 242.594 722.521 241.086 722.352 239.379C722.182 237.692 721.258 235.967 719.582 234.203C717.914 232.449 716.238 231.44 714.552 231.175C712.866 230.929 711.334 231.461 709.957 232.77C708.57 234.089 707.961 235.591 708.131 237.278C708.301 238.965 709.224 240.691 710.901 242.455C712.587 244.228 714.268 245.243 715.945 245.498C717.621 245.753 719.153 245.222 720.54 243.903ZM723.239 246.742C720.86 249.003 718.281 250.03 715.501 249.824C712.721 249.618 710.088 248.207 707.601 245.591C705.124 242.985 703.858 240.284 703.803 237.488C703.738 234.701 704.89 232.182 707.258 229.931C709.617 227.689 712.186 226.671 714.966 226.877C717.756 227.073 720.389 228.474 722.866 231.081C725.353 233.697 726.629 236.398 726.694 239.185C726.759 241.972 725.607 244.491 723.239 246.742Z" fill="#131313"/>
<path d="M747.863 218.145L745.22 221.441L742.452 219.222L742.234 219.494C743.593 222.038 743.17 224.686 740.963 227.438C739.406 229.38 737.631 230.436 735.636 230.606C733.633 230.788 731.603 230.053 729.544 228.402L718.264 219.358L721.023 215.918L731.438 224.27C734.212 226.493 736.624 226.325 738.677 223.765C739.789 222.379 740.276 220.973 740.139 219.549C740.002 218.125 739.251 216.865 737.885 215.77L727.694 207.598L730.439 204.174L747.863 218.145Z" fill="#131313"/>
<path d="M733.652 199.683L736.153 196.253L738.92 198.27L739.114 198.005C738.404 197.099 738.092 195.983 738.178 194.658C738.264 193.334 738.734 192.086 739.588 190.915C740.079 190.241 740.511 189.752 740.884 189.449L744.398 192.01C743.956 192.314 743.405 192.919 742.744 193.825C741.762 195.173 741.353 196.558 741.517 197.981C741.673 199.414 742.381 200.59 743.64 201.508L754.296 209.276L751.698 212.839L733.652 199.683Z" fill="#131313"/>
<path d="M748.811 189.485C747.225 188.319 746.402 186.703 746.342 184.639C746.294 182.583 747.019 180.537 748.518 178.5C750.009 176.473 751.658 175.166 753.466 174.579C755.274 173.991 757.035 174.192 758.75 175.183L756.246 178.585C754.537 177.887 752.924 178.568 751.409 180.627C750.671 181.629 750.278 182.613 750.229 183.578C750.176 184.574 750.496 185.327 751.189 185.838C752.213 186.592 753.647 186.178 755.489 184.597L758.383 182.118C760.051 180.681 761.567 179.844 762.929 179.607C764.322 179.376 765.673 179.743 766.984 180.707C768.657 181.939 769.504 183.648 769.524 185.836C769.538 187.985 768.747 190.144 767.15 192.313C765.578 194.449 763.853 195.836 761.975 196.474C760.1 197.131 758.307 196.949 756.597 195.928L759.21 192.377C761.064 192.995 762.773 192.241 764.337 190.116C765.156 189.003 765.598 187.929 765.666 186.892C765.733 185.855 765.408 185.073 764.693 184.546C763.647 183.777 762.266 184.119 760.551 185.572L757.515 188.176C755.843 189.594 754.31 190.409 752.914 190.621C751.511 190.845 750.143 190.466 748.811 189.485Z" fill="#131313"/>
<path d="M766.164 161.87C765.119 163.117 764.663 164.483 764.794 165.966C764.925 167.449 765.622 168.799 766.885 170.017L774.126 161.369C772.739 160.279 771.331 159.777 769.903 159.865C768.455 159.954 767.208 160.623 766.164 161.87ZM782.357 162.752C783.574 164.43 784.078 166.288 783.87 168.325C783.653 170.372 782.728 172.371 781.095 174.321C779.041 176.773 776.635 178.039 773.876 178.118C771.119 178.217 768.372 177.12 765.636 174.829C762.901 172.538 761.323 170.004 760.902 167.227C760.482 164.45 761.281 161.856 763.3 159.445C765.292 157.065 767.624 155.835 770.296 155.754C772.959 155.683 775.637 156.776 778.331 159.032L779.51 160.019L769.385 172.11L769.573 172.268C771.127 173.48 772.686 174.046 774.251 173.965C775.816 173.885 777.165 173.169 778.297 171.817C780.026 169.752 780.471 167.815 779.632 166.007L782.357 162.752Z" fill="#131313"/>
<path d="M778.524 152.143C777.18 150.703 776.67 148.964 776.992 146.924C777.324 144.895 778.414 143.017 780.263 141.292C782.103 139.575 783.965 138.595 785.85 138.351C787.735 138.107 789.429 138.63 790.932 139.92L787.843 142.802C786.291 141.8 784.581 142.171 782.712 143.916C781.802 144.764 781.234 145.659 781.008 146.599C780.771 147.568 780.947 148.367 781.534 148.997C782.402 149.926 783.887 149.784 785.989 148.571L789.291 146.668C791.196 145.564 792.84 145.021 794.223 145.04C795.634 145.069 796.894 145.679 798.004 146.868C799.422 148.388 799.939 150.224 799.555 152.378C799.172 154.493 797.996 156.469 796.027 158.306C794.087 160.116 792.136 161.16 790.172 161.441C788.208 161.74 786.479 161.231 784.987 159.912L788.211 156.904C789.919 157.853 791.738 157.427 793.667 155.627C794.677 154.685 795.31 153.711 795.568 152.704C795.825 151.697 795.651 150.869 795.044 150.219C794.158 149.27 792.738 149.351 790.784 150.463L787.32 152.462C785.415 153.547 783.758 154.065 782.347 154.016C780.927 153.977 779.652 153.352 778.524 152.143Z" fill="#131313"/>
<path d="M830.92 141.398L826.737 104.639L830.507 103.246L834.613 140.033L830.92 141.398Z" fill="#131313"/>
<path d="M882.811 101.952C885.654 101.894 887.93 102.88 889.64 104.91C891.35 106.953 892.241 109.745 892.313 113.286C892.386 116.826 891.609 119.652 889.984 121.764C888.372 123.875 886.152 124.96 883.322 125.017C879.987 125.086 877.672 123.882 876.377 121.405L876.029 121.413L876.245 132.033L871.837 132.123L871.234 102.557L875.478 102.471L875.553 106.161L875.881 106.155C876.525 104.87 877.462 103.852 878.691 103.102C879.92 102.366 881.293 101.983 882.811 101.952ZM881.95 121.087C883.823 121.048 885.278 120.349 886.317 118.987C887.342 117.613 887.83 115.743 887.782 113.378C887.734 111.013 887.17 109.172 886.09 107.854C884.996 106.536 883.52 105.896 881.661 105.934C879.802 105.972 878.347 106.679 877.294 108.054C876.242 109.443 875.74 111.306 875.788 113.643C875.835 115.967 876.413 117.801 877.521 119.146C878.628 120.478 880.105 121.124 881.95 121.087Z" fill="#131313"/>
<path d="M901.676 102.564L905.901 102.975L905.57 106.383L905.896 106.415C906.316 105.343 907.119 104.508 908.303 103.909C909.488 103.31 910.801 103.08 912.244 103.22C913.074 103.301 913.714 103.425 914.165 103.593L913.744 107.92C913.258 107.694 912.457 107.527 911.341 107.418C909.681 107.257 908.28 107.608 907.138 108.473C905.983 109.336 905.33 110.543 905.179 112.094L903.903 125.219L899.515 124.792L901.676 102.564Z" fill="#131313"/>
<path d="M923.55 125.29C925.371 125.834 926.979 125.608 928.375 124.612C929.754 123.626 930.792 121.967 931.489 119.635C932.181 117.316 932.223 115.359 931.615 113.765C930.99 112.18 929.767 111.116 927.946 110.572C926.112 110.024 924.505 110.244 923.126 111.23C921.747 112.216 920.709 113.876 920.013 116.207C919.313 118.552 919.269 120.515 919.881 122.097C920.493 123.678 921.716 124.742 923.55 125.29ZM922.429 129.043C919.285 128.104 917.111 126.378 915.907 123.863C914.703 121.349 914.618 118.363 915.651 114.905C916.68 111.459 918.393 109.018 920.792 107.579C923.177 106.137 925.936 105.884 929.066 106.819C932.184 107.75 934.345 109.473 935.549 111.987C936.766 114.505 936.86 117.486 935.831 120.932C934.798 124.39 933.089 126.84 930.704 128.282C928.318 129.725 925.56 129.978 922.429 129.043Z" fill="#131313"/>
<path d="M945.502 117.478L942.22 115.834L943.882 112.515L947.164 114.16L948.156 112.179C949.161 110.175 950.418 108.977 951.929 108.587C953.378 108.197 955.16 108.532 957.275 109.591C958.008 109.958 958.717 110.39 959.402 110.886L957.822 114.04C957.308 113.66 956.746 113.317 956.135 113.011C954.265 112.074 952.87 112.522 951.952 114.356L951.07 116.116L955.489 118.33L953.826 121.649L949.444 119.453L941.149 136.01L937.207 134.035L945.502 117.478Z" fill="#131313"/>
<path d="M966.681 129.123C965.341 128.202 963.938 127.876 962.474 128.148C961.01 128.419 959.732 129.241 958.639 130.613L967.934 137.002C968.888 135.518 969.254 134.069 969.032 132.655C968.805 131.222 968.022 130.045 966.681 129.123ZM967.338 145.327C965.783 146.697 963.981 147.375 961.934 147.361C959.875 147.339 957.798 146.608 955.702 145.168C953.066 143.355 951.577 141.08 951.237 138.341C950.878 135.605 951.709 132.767 953.73 129.826C955.752 126.886 958.125 125.075 960.85 124.393C963.575 123.711 966.233 124.261 968.824 126.042C971.382 127.8 972.827 130.005 973.161 132.657C973.484 135.301 972.65 138.071 970.66 140.966L969.788 142.234L956.792 133.3L956.653 133.503C955.594 135.164 955.179 136.77 955.407 138.32C955.635 139.871 956.476 141.146 957.929 142.145C960.149 143.67 962.119 143.93 963.84 142.923L967.338 145.327Z" fill="#131313"/>
<path d="M977.392 140.604C978.689 139.123 980.368 138.44 982.43 138.555C984.482 138.681 986.46 139.576 988.363 141.243C990.256 142.9 991.418 144.654 991.851 146.505C992.284 148.356 991.934 150.094 990.802 151.719L987.623 148.936C988.464 147.291 987.922 145.627 985.999 143.943C985.063 143.123 984.116 142.648 983.158 142.518C982.17 142.38 981.392 142.635 980.825 143.283C979.987 144.24 980.278 145.703 981.697 147.672L983.922 150.766C985.213 152.55 985.918 154.131 986.039 155.508C986.152 156.915 985.672 158.231 984.6 159.455C983.231 161.018 981.456 161.717 979.275 161.552C977.132 161.384 975.048 160.413 973.021 158.639C971.026 156.891 969.79 155.055 969.313 153.129C968.818 151.205 969.151 149.434 970.313 147.817L973.63 150.721C972.858 152.516 973.464 154.283 975.449 156.021C976.488 156.931 977.521 157.463 978.549 157.618C979.576 157.773 980.383 157.516 980.968 156.847C981.824 155.87 981.6 154.466 980.297 152.634L977.96 149.388C976.688 147.602 976.006 146.005 975.913 144.597C975.809 143.179 976.302 141.849 977.392 140.604Z" fill="#131313"/>
<path d="M994.783 156.153C996.188 154.773 997.913 154.217 999.961 154.486C1002 154.765 1003.9 155.806 1005.68 157.61C1007.44 159.405 1008.47 161.241 1008.76 163.119C1009.05 164.997 1008.57 166.704 1007.32 168.24L1004.36 165.227C1005.32 163.65 1004.91 161.949 1003.12 160.126C1002.24 159.239 1001.34 158.694 1000.39 158.493C999.415 158.281 998.621 158.477 998.006 159.081C997.1 159.972 997.28 161.453 998.548 163.523L1000.54 166.774C1001.69 168.65 1002.27 170.28 1002.29 171.662C1002.3 173.074 1001.72 174.35 1000.56 175.49C999.079 176.947 997.257 177.511 995.094 177.183C992.97 176.855 990.964 175.731 989.076 173.81C987.217 171.918 986.122 169.994 985.791 168.038C985.44 166.083 985.905 164.342 987.185 162.815L990.275 165.96C989.371 167.693 989.843 169.5 991.693 171.382C992.661 172.366 993.651 172.974 994.664 173.206C995.678 173.437 996.501 173.241 997.135 172.618C998.061 171.708 997.943 170.29 996.78 168.366L994.693 164.954C993.558 163.079 992.997 161.435 993.01 160.024C993.012 158.603 993.604 157.312 994.783 156.153Z" fill="#131313"/>
<path d="M1016.13 169.22L1019.09 172.46L1002.61 187.525L999.645 184.285L1016.13 169.22ZM1020.5 168.198C1019.95 167.592 1019.69 166.918 1019.71 166.173C1019.71 165.428 1020 164.798 1020.56 164.281C1021.13 163.765 1021.79 163.533 1022.54 163.587C1023.28 163.63 1023.93 163.954 1024.49 164.56C1025.04 165.165 1025.31 165.845 1025.29 166.599C1025.27 167.343 1024.98 167.974 1024.41 168.49C1023.84 169.007 1023.2 169.239 1022.46 169.186C1021.71 169.133 1021.06 168.803 1020.5 168.198Z" fill="#131313"/>
<path d="M1015.81 197.155C1017.06 198.589 1018.54 199.258 1020.25 199.164C1021.94 199.068 1023.71 198.222 1025.54 196.624C1027.37 195.035 1028.45 193.405 1028.79 191.733C1029.11 190.059 1028.65 188.505 1027.4 187.072C1026.14 185.628 1024.67 184.954 1022.97 185.05C1021.28 185.145 1019.52 185.992 1017.68 187.589C1015.84 189.196 1014.75 190.831 1014.42 192.494C1014.09 194.158 1014.55 195.711 1015.81 197.155ZM1012.86 199.727C1010.7 197.251 1009.79 194.63 1010.12 191.862C1010.44 189.093 1011.97 186.525 1014.69 184.155C1017.4 181.795 1020.16 180.648 1022.96 180.716C1025.74 180.774 1028.21 182.035 1030.35 184.5C1032.49 186.955 1033.39 189.566 1033.07 192.335C1032.75 195.113 1031.23 197.683 1028.52 200.043C1025.8 202.412 1023.04 203.568 1020.25 203.511C1017.47 203.453 1015 202.192 1012.86 199.727Z" fill="#131313"/>
<path d="M1040.11 196.483L1042.86 199.718L1040.16 202.015L1040.37 202.265C1041.67 201.876 1042.99 201.925 1044.31 202.412C1045.66 202.9 1046.88 203.784 1047.97 205.066C1049.58 206.962 1050.28 208.891 1050.06 210.852C1049.83 212.822 1048.71 214.665 1046.68 216.382L1035.67 225.743L1032.81 222.383L1042.99 213.739C1045.72 211.42 1046.03 209.02 1043.92 206.541C1042.77 205.186 1041.48 204.451 1040.05 204.335C1038.62 204.208 1037.24 204.712 1035.9 205.845L1025.95 214.302L1023.09 210.942L1040.11 196.483Z" fill="#131313"/>
<path d="M1048.22 235.262C1049.3 236.513 1050.55 237.253 1051.98 237.482C1053.4 237.701 1054.64 237.354 1055.69 236.442L1057.1 235.221L1053.27 231.324C1051.16 229.204 1049.38 228.779 1047.91 230.049C1047.16 230.693 1046.83 231.498 1046.91 232.463C1046.97 233.398 1047.41 234.331 1048.22 235.262ZM1044.67 236.837C1043.24 235.183 1042.53 233.445 1042.55 231.624C1042.57 229.745 1043.34 228.148 1044.86 226.833C1046.37 225.527 1048.02 225.041 1049.83 225.376C1051.63 225.719 1053.46 226.845 1055.33 228.754L1059.55 233.101L1061.01 231.84C1062.87 230.23 1062.8 228.272 1060.81 225.966C1059.12 224.012 1057.48 223.379 1055.89 224.069L1053.1 220.843C1054.69 219.756 1056.46 219.468 1058.42 219.978C1060.36 220.486 1062.16 221.702 1063.83 223.626C1065.65 225.735 1066.57 227.802 1066.56 229.828C1066.56 231.834 1065.67 233.611 1063.88 235.159L1052.34 245.141L1049.56 241.931L1051.94 239.878L1051.71 239.614C1049.03 240.089 1046.68 239.164 1044.67 236.837Z" fill="#131313"/>
<path d="M1079.91 229.408L1082.85 232.692L1059.73 253.414L1056.79 250.131L1079.91 229.408Z" fill="#131313"/>
<path d="M1092.73 260.784C1091.58 259.627 1090.27 259.044 1088.78 259.035C1087.29 259.026 1085.88 259.593 1084.55 260.735L1092.48 268.758C1093.69 267.48 1094.33 266.125 1094.37 264.695C1094.42 263.245 1093.87 261.941 1092.73 260.784ZM1090.33 276.823C1088.54 277.876 1086.65 278.203 1084.64 277.804C1082.62 277.396 1080.72 276.287 1078.93 274.478C1076.68 272.203 1075.65 269.688 1075.83 266.934C1075.99 264.179 1077.34 261.548 1079.88 259.04C1082.41 256.532 1085.09 255.199 1087.89 255.042C1090.69 254.884 1093.2 255.924 1095.41 258.161C1097.59 260.368 1098.6 262.806 1098.43 265.473C1098.25 268.13 1096.91 270.694 1094.41 273.164L1093.32 274.245L1082.23 263.027L1082.06 263.2C1080.7 264.633 1079.99 266.132 1079.93 267.698C1079.86 269.263 1080.44 270.673 1081.68 271.928C1083.58 273.844 1085.46 274.469 1087.34 273.803L1090.33 276.823Z" fill="#131313"/>
<path d="M1101.55 284.663L1092.62 287.258L1089.03 284.01L1101.98 280.736L1103.97 267.41L1107.79 270.864L1106.06 279.923L1106.32 280.157L1115.13 277.51L1118.77 280.799L1105.91 284.04L1103.84 297.413L1100.09 294.014L1101.8 284.884L1101.55 284.663Z" fill="#131313"/>
<path d="M1132.23 291.081C1134.48 292.818 1135.64 295.014 1135.7 297.667C1135.75 300.331 1134.69 303.065 1132.53 305.869C1130.37 308.673 1127.99 310.388 1125.4 311.015C1122.82 311.65 1120.41 311.103 1118.17 309.374C1115.53 307.337 1114.48 304.948 1115.02 302.207L1114.75 301.994L1108.26 310.405L1104.77 307.712L1122.83 284.297L1126.19 286.89L1123.94 289.812L1124.19 290.013C1125.5 289.415 1126.87 289.21 1128.3 289.396C1129.72 289.593 1131.03 290.155 1132.23 291.081ZM1119.56 305.451C1121.05 306.595 1122.62 306.963 1124.28 306.553C1125.94 306.124 1127.5 304.974 1128.94 303.101C1130.38 301.228 1131.1 299.44 1131.08 297.736C1131.06 296.024 1130.31 294.6 1128.84 293.464C1127.36 292.328 1125.79 291.966 1124.11 292.378C1122.42 292.801 1120.86 293.938 1119.43 295.789C1118.01 297.63 1117.31 299.421 1117.33 301.163C1117.36 302.895 1118.1 304.324 1119.56 305.451Z" fill="#131313"/>
<path d="M1149.56 307.654C1148.18 306.789 1146.77 306.523 1145.32 306.855C1143.87 307.186 1142.62 308.061 1141.59 309.477L1151.14 315.475C1152.03 313.952 1152.34 312.489 1152.06 311.085C1151.77 309.663 1150.94 308.519 1149.56 307.654ZM1150.89 323.817C1149.4 325.25 1147.62 326.003 1145.58 326.074C1143.52 326.138 1141.41 325.494 1139.26 324.142C1136.55 322.441 1134.97 320.229 1134.51 317.506C1134.04 314.788 1134.75 311.918 1136.65 308.896C1138.55 305.874 1140.84 303.965 1143.54 303.171C1146.23 302.376 1148.91 302.815 1151.57 304.487C1154.2 306.137 1155.74 308.28 1156.18 310.915C1156.62 313.544 1155.9 316.346 1154.03 319.322L1153.21 320.624L1139.86 312.239L1139.72 312.447C1138.74 314.151 1138.39 315.773 1138.68 317.313C1138.97 318.852 1139.87 320.091 1141.36 321.029C1143.64 322.461 1145.62 322.638 1147.3 321.56L1150.89 323.817Z" fill="#131313"/>
<path d="M1163.91 312.317L1167.69 314.25L1166.13 317.299L1166.42 317.448C1167.21 316.606 1168.26 316.123 1169.58 316.001C1170.9 315.878 1172.21 316.147 1173.5 316.807C1174.24 317.186 1174.79 317.537 1175.15 317.858L1173.17 321.729C1172.8 321.34 1172.12 320.891 1171.12 320.38C1169.63 319.621 1168.2 319.434 1166.82 319.818C1165.43 320.197 1164.38 321.08 1163.67 322.468L1157.67 334.208L1153.74 332.2L1163.91 312.317Z" fill="#131313"/>
<path d="M1179.48 319.946L1183.51 321.686L1174.65 342.188L1170.62 340.448L1179.48 319.946ZM1183.05 317.22C1182.29 316.895 1181.77 316.388 1181.49 315.7C1181.19 315.018 1181.19 314.326 1181.49 313.623C1181.8 312.921 1182.3 312.439 1183.01 312.179C1183.71 311.913 1184.43 311.943 1185.18 312.269C1185.94 312.594 1186.46 313.103 1186.76 313.797C1187.04 314.486 1187.03 315.181 1186.73 315.884C1186.42 316.587 1185.93 317.065 1185.24 317.318C1184.53 317.578 1183.8 317.545 1183.05 317.22Z" fill="#131313"/>
<path d="M1196.67 330.202C1195.13 329.685 1193.69 329.758 1192.36 330.421C1191.03 331.085 1190.02 332.227 1189.35 333.847L1200.04 337.432C1200.55 335.742 1200.51 334.249 1199.9 332.951C1199.29 331.635 1198.21 330.719 1196.67 330.202ZM1201.76 345.6C1200.64 347.345 1199.1 348.492 1197.13 349.042C1195.14 349.588 1192.94 349.456 1190.53 348.648C1187.5 347.631 1185.44 345.853 1184.36 343.313C1183.26 340.782 1183.28 337.825 1184.41 334.441C1185.55 331.058 1187.33 328.664 1189.76 327.259C1192.2 325.853 1194.9 325.65 1197.88 326.65C1200.83 327.636 1202.82 329.359 1203.87 331.816C1204.91 334.269 1204.87 337.162 1203.76 340.493L1203.27 341.951L1188.31 336.938L1188.24 337.172C1187.67 339.06 1187.72 340.718 1188.36 342.146C1189.01 343.574 1190.17 344.568 1191.84 345.129C1194.39 345.985 1196.36 345.692 1197.74 344.25L1201.76 345.6Z" fill="#131313"/>
<path d="M1210.21 331.11L1214.37 331.99L1213.63 335.461L1213.95 335.529C1214.75 334.425 1215.82 333.659 1217.16 333.232C1218.53 332.795 1220.03 332.75 1221.68 333.099C1224.11 333.615 1225.84 334.715 1226.87 336.4C1227.89 338.098 1228.13 340.245 1227.58 342.839L1224.58 356.983L1220.27 356.069L1223.04 343.009C1223.78 339.505 1222.56 337.415 1219.38 336.741C1217.64 336.372 1216.17 336.578 1214.97 337.358C1213.76 338.135 1212.97 339.38 1212.61 341.092L1209.9 353.872L1205.59 352.958L1210.21 331.11Z" fill="#131313"/>
<path d="M1251.71 345.001C1251.54 343.846 1251.05 342.895 1250.24 342.149C1249.37 341.341 1248.22 340.873 1246.81 340.743C1244.97 340.575 1243.47 341.111 1242.3 342.349C1241.11 343.586 1240.41 345.389 1240.2 347.758C1239.98 350.155 1240.34 352.089 1241.27 353.561C1242.2 355.018 1243.58 355.831 1245.41 355.999C1248.33 356.265 1250.19 355.207 1251 352.823L1255.27 353.213C1254.77 355.474 1253.64 357.21 1251.87 358.421C1250.04 359.668 1247.77 360.168 1245.08 359.922C1241.84 359.626 1239.38 358.365 1237.72 356.14C1236.04 353.9 1235.37 350.969 1235.7 347.348C1236.03 343.781 1237.21 341.06 1239.25 339.187C1241.29 337.314 1243.93 336.526 1247.17 336.822C1249.88 337.07 1252.02 338 1253.6 339.614C1255.1 341.137 1255.89 343.063 1255.98 345.391L1251.71 345.001Z" fill="#131313"/>
<path d="M1269.49 341.626C1267.87 341.627 1266.53 342.154 1265.47 343.207C1264.42 344.261 1263.83 345.662 1263.71 347.413L1274.99 347.407C1274.94 345.643 1274.42 344.242 1273.43 343.203C1272.43 342.151 1271.12 341.625 1269.49 341.626ZM1279.22 354.603C1278.71 356.613 1277.62 358.192 1275.92 359.342C1274.21 360.491 1272.09 361.066 1269.54 361.068C1266.34 361.069 1263.83 360.038 1261.99 357.975C1260.15 355.925 1259.22 353.116 1259.22 349.548C1259.22 345.979 1260.15 343.142 1262.01 341.035C1263.86 338.929 1266.37 337.875 1269.51 337.873C1272.61 337.872 1275.06 338.868 1276.83 340.864C1278.6 342.859 1279.48 345.613 1279.48 349.127L1279.48 350.665L1263.71 350.673L1263.71 350.919C1263.78 352.888 1264.35 354.446 1265.42 355.594C1266.49 356.742 1267.9 357.316 1269.66 357.315C1272.36 357.313 1274.13 356.41 1274.97 354.605L1279.22 354.603Z" fill="#131313"/>
<path d="M1320.28 362.136L1320.64 325.142L1324.55 324.221L1324.12 361.234L1320.28 362.136Z" fill="#131313"/>
<path d="M1365.62 311.224L1367.91 316.243L1372.46 314.166L1374 317.543L1369.45 319.62L1374.21 330.069C1374.69 331.126 1375.28 331.798 1375.97 332.086C1376.65 332.361 1377.49 332.272 1378.48 331.818C1378.85 331.648 1379.34 331.39 1379.93 331.044L1381.45 334.384C1380.75 334.872 1380.06 335.267 1379.4 335.568C1377.18 336.583 1375.38 336.889 1374.03 336.486C1372.69 336.077 1371.57 334.89 1370.67 332.925L1365.43 321.45L1362.09 322.973L1360.55 319.596L1363.89 318.072L1361.6 313.053L1365.62 311.224Z" fill="#131313"/>
<path d="M1386.24 310.735C1384.81 311.497 1383.87 312.59 1383.43 314.013C1383 315.436 1383.13 316.95 1383.84 318.553L1393.81 313.269C1392.93 311.737 1391.82 310.742 1390.46 310.285C1389.09 309.823 1387.68 309.973 1386.24 310.735ZM1400.91 317.65C1401.41 319.662 1401.18 321.573 1400.22 323.382C1399.24 325.197 1397.63 326.7 1395.39 327.892C1392.56 329.39 1389.86 329.657 1387.27 328.691C1384.68 327.744 1382.55 325.694 1380.87 322.542C1379.2 319.389 1378.7 316.447 1379.35 313.716C1380.01 310.985 1381.73 308.883 1384.5 307.41C1387.25 305.956 1389.87 305.694 1392.37 306.625C1394.87 307.562 1396.94 309.583 1398.58 312.687L1399.3 314.046L1385.37 321.434L1385.49 321.652C1386.47 323.359 1387.7 324.47 1389.18 324.985C1390.66 325.5 1392.18 325.345 1393.74 324.518C1396.12 323.257 1397.26 321.63 1397.16 319.639L1400.91 317.65Z" fill="#131313"/>
<path d="M1414.5 299.188C1413.68 298.353 1412.73 297.872 1411.63 297.745C1410.45 297.605 1409.25 297.899 1408.03 298.627C1406.44 299.572 1405.54 300.889 1405.32 302.579C1405.09 304.276 1405.58 306.146 1406.8 308.19C1408.03 310.257 1409.46 311.611 1411.08 312.251C1412.69 312.886 1414.28 312.732 1415.87 311.787C1418.38 310.289 1419.26 308.339 1418.52 305.935L1422.2 303.741C1423.13 305.861 1423.23 307.932 1422.51 309.953C1421.76 312.038 1420.23 313.773 1417.9 315.159C1415.11 316.825 1412.38 317.247 1409.73 316.425C1407.06 315.599 1404.79 313.624 1402.93 310.5C1401.09 307.422 1400.45 304.527 1401 301.814C1401.54 299.1 1403.22 296.91 1406.01 295.245C1408.35 293.852 1410.63 293.343 1412.86 293.718C1414.96 294.071 1416.74 295.163 1418.18 296.994L1414.5 299.188Z" fill="#131313"/>
<path d="M1412.83 281.441L1416.52 279.107L1423.1 289.507L1423.39 289.321C1423.18 287.965 1423.41 286.664 1424.08 285.417C1424.74 284.159 1425.78 283.08 1427.2 282.182C1429.33 280.837 1431.35 280.412 1433.28 280.906C1435.23 281.393 1436.9 282.758 1438.32 285L1446.03 297.185L1442.3 299.542L1435.18 288.275C1433.26 285.247 1430.9 284.621 1428.09 286.396C1426.58 287.353 1425.65 288.552 1425.32 289.993C1424.98 291.423 1425.26 292.859 1426.18 294.304L1433.15 305.328L1429.42 307.685L1412.83 281.441Z" fill="#131313"/>
<path d="M1440.92 273.912L1444.5 271.634L1446.4 274.628L1446.68 274.452C1446.47 273.109 1446.7 271.813 1447.37 270.564C1448.04 269.296 1449.08 268.212 1450.5 267.309C1452.6 265.974 1454.6 265.549 1456.52 266.034C1458.44 266.531 1460.11 267.898 1461.53 270.136L1469.29 282.337L1465.57 284.702L1458.41 273.437C1456.48 270.414 1454.15 269.776 1451.4 271.522C1449.9 272.475 1449 273.651 1448.69 275.047C1448.36 276.451 1448.67 277.891 1449.61 279.368L1456.62 290.392L1452.9 292.758L1440.92 273.912Z" fill="#131313"/>
<path d="M1462.72 260.124L1466.45 257.816L1478.2 276.812L1474.47 279.12L1462.72 260.124ZM1462.53 255.639C1461.83 256.07 1461.12 256.205 1460.39 256.044C1459.66 255.901 1459.09 255.504 1458.69 254.853C1458.29 254.202 1458.18 253.511 1458.37 252.782C1458.55 252.059 1458.99 251.483 1459.69 251.051C1460.39 250.62 1461.11 250.481 1461.85 250.636C1462.57 250.797 1463.14 251.203 1463.54 251.855C1463.94 252.506 1464.05 253.187 1463.86 253.897C1463.67 254.627 1463.23 255.207 1462.53 255.639Z" fill="#131313"/>
<path d="M1488.46 253.138C1487.65 252.299 1486.7 251.813 1485.61 251.679C1484.43 251.533 1483.22 251.82 1482 252.541C1480.41 253.477 1479.5 254.79 1479.27 256.478C1479.03 258.174 1479.51 260.047 1480.72 262.097C1481.94 264.171 1483.36 265.533 1484.98 266.182C1486.58 266.826 1488.18 266.681 1489.77 265.745C1492.29 264.261 1493.18 262.315 1492.45 259.908L1496.14 257.734C1497.06 259.86 1497.15 261.931 1496.42 263.948C1495.66 266.029 1494.11 267.755 1491.78 269.128C1488.98 270.778 1486.25 271.185 1483.6 270.349C1480.93 269.507 1478.68 267.52 1476.83 264.385C1475.02 261.298 1474.39 258.399 1474.95 255.689C1475.51 252.978 1477.2 250.798 1480 249.148C1482.35 247.768 1484.63 247.272 1486.86 247.659C1488.96 248.024 1490.73 249.126 1492.16 250.965L1488.46 253.138Z" fill="#131313"/>
<path d="M1508.76 255.235C1510.22 254.46 1511.22 253.402 1511.77 252.062C1512.3 250.728 1512.24 249.445 1511.58 248.213L1510.71 246.565L1506.05 249.429C1503.52 251.007 1502.7 252.653 1503.61 254.368C1504.07 255.238 1504.78 255.744 1505.74 255.886C1506.67 256.029 1507.67 255.812 1508.76 255.235ZM1509.5 259.043C1507.57 260.068 1505.72 260.369 1503.95 259.947C1502.12 259.508 1500.74 258.401 1499.79 256.625C1498.86 254.862 1498.76 253.137 1499.49 251.449C1500.22 249.774 1501.73 248.24 1504.01 246.845L1509.19 243.702L1508.29 241.999C1507.13 239.825 1505.21 239.453 1502.52 240.881C1500.23 242.092 1499.25 243.55 1499.57 245.255L1495.8 247.254C1495.09 245.461 1495.21 243.666 1496.15 241.87C1497.08 240.092 1498.66 238.607 1500.91 237.416C1503.37 236.109 1505.59 235.682 1507.57 236.136C1509.52 236.584 1511.05 237.853 1512.16 239.943L1519.31 253.422L1515.56 255.411L1514.09 252.639L1513.78 252.802C1513.65 255.521 1512.22 257.601 1509.5 259.043Z" fill="#131313"/>
<path d="M1511.86 222.542L1515.84 220.642L1529.21 248.662L1525.23 250.562L1511.86 222.542Z" fill="#131313"/>
<path d="M1537.14 227.441C1536.43 225.605 1536.6 223.801 1537.66 222.027C1538.72 220.265 1540.43 218.927 1542.79 218.012C1545.13 217.101 1547.23 216.883 1549.07 217.356C1550.91 217.829 1552.29 218.944 1553.2 220.7L1549.27 222.229C1548.2 220.722 1546.47 220.432 1544.09 221.357C1542.93 221.807 1542.07 222.427 1541.51 223.216C1540.93 224.028 1540.8 224.835 1541.11 225.638C1541.57 226.823 1543 227.243 1545.4 226.897L1549.17 226.356C1551.35 226.038 1553.08 226.145 1554.36 226.676C1555.66 227.227 1556.6 228.261 1557.19 229.778C1557.94 231.715 1557.74 233.612 1556.58 235.469C1555.44 237.291 1553.62 238.689 1551.11 239.663C1548.63 240.623 1546.43 240.869 1544.51 240.4C1542.57 239.948 1541.16 238.833 1540.26 237.054L1544.37 235.459C1545.6 236.974 1547.45 237.255 1549.91 236.3C1551.2 235.8 1552.15 235.131 1552.76 234.291C1553.37 233.452 1553.52 232.618 1553.2 231.79C1552.73 230.579 1551.38 230.127 1549.15 230.435L1545.19 231.004C1543.02 231.304 1541.29 231.17 1540 230.6C1538.69 230.036 1537.74 228.983 1537.14 227.441Z" fill="#131313"/>
<path d="M1571.79 208.53L1576.77 207.001L1570.8 218.853L1583.92 228.168L1578.74 229.758L1568.52 222.601L1567.2 224.937L1569.55 232.582L1565.33 233.877L1556.22 204.197L1560.43 202.902L1565.72 220.134L1566.06 220.032L1571.79 208.53Z" fill="#131313"/>
<path d="M1580.6 206.108L1584.86 205.036L1590.31 226.694L1586.05 227.765L1580.6 206.108ZM1581.77 201.773C1580.98 201.974 1580.26 201.887 1579.61 201.513C1578.96 201.156 1578.54 200.607 1578.35 199.864C1578.16 199.122 1578.27 198.432 1578.68 197.794C1579.07 197.16 1579.66 196.743 1580.45 196.543C1581.25 196.343 1581.98 196.428 1582.63 196.798C1583.28 197.172 1583.69 197.73 1583.88 198.472C1584.07 199.215 1583.96 199.896 1583.57 200.517C1583.17 201.154 1582.57 201.573 1581.77 201.773Z" fill="#131313"/>
<path d="M1591.43 194.536L1595.75 193.622L1602.18 223.996L1597.87 224.91L1591.43 194.536Z" fill="#131313"/>
<path d="M1602.51 192.276L1606.85 191.511L1612.24 222.089L1607.89 222.854L1602.51 192.276Z" fill="#131313"/>
<path d="M1617.84 204.858C1617.6 202.903 1618.22 201.197 1619.68 199.739C1621.14 198.295 1623.13 197.42 1625.64 197.116C1628.14 196.814 1630.22 197.119 1631.89 198.033C1633.55 198.946 1634.62 200.367 1635.07 202.295L1630.88 202.803C1630.21 201.08 1628.61 200.372 1626.07 200.679C1624.84 200.829 1623.85 201.217 1623.12 201.843C1622.35 202.486 1622.02 203.235 1622.13 204.091C1622.28 205.353 1623.56 206.113 1625.98 206.372L1629.77 206.78C1631.96 207.011 1633.6 207.541 1634.71 208.371C1635.83 209.226 1636.49 210.462 1636.69 212.077C1636.94 214.14 1636.27 215.928 1634.69 217.442C1633.14 218.925 1631.02 219.828 1628.35 220.152C1625.72 220.471 1623.52 220.165 1621.77 219.234C1620.01 218.319 1618.91 216.888 1618.48 214.943L1622.86 214.413C1623.68 216.187 1625.4 216.915 1628.02 216.597C1629.39 216.431 1630.48 216.017 1631.28 215.356C1632.08 214.694 1632.43 213.922 1632.32 213.04C1632.17 211.75 1630.97 210.979 1628.74 210.727L1624.76 210.299C1622.58 210.054 1620.94 209.496 1619.83 208.625C1618.7 207.756 1618.04 206.5 1617.84 204.858Z" fill="#131313"/>
<path d="M1672.61 223.352L1682.97 187.838L1686.99 188.012L1676.54 223.522L1672.61 223.352Z" fill="#131313"/>
<path d="M1724.01 207.485C1724.54 205.59 1725.77 204.252 1727.68 203.471C1729.59 202.703 1731.76 202.662 1734.19 203.35C1736.61 204.034 1738.41 205.119 1739.6 206.604C1740.79 208.09 1741.22 209.81 1740.89 211.764L1736.83 210.615C1736.88 208.769 1735.67 207.499 1733.21 206.804C1732.02 206.465 1730.96 206.443 1730.04 206.737C1729.09 207.037 1728.49 207.601 1728.26 208.43C1727.91 209.653 1728.8 210.85 1730.93 212.019L1734.27 213.857C1736.2 214.914 1737.52 216.039 1738.22 217.231C1738.92 218.454 1739.06 219.848 1738.61 221.413C1738.05 223.413 1736.75 224.807 1734.7 225.594C1732.7 226.362 1730.4 226.381 1727.81 225.648C1725.25 224.927 1723.35 223.8 1722.09 222.265C1720.82 220.74 1720.36 218.998 1720.71 217.038L1724.96 218.237C1725.03 220.19 1726.34 221.525 1728.87 222.242C1730.2 222.618 1731.37 222.655 1732.36 222.353C1733.35 222.051 1733.97 221.473 1734.21 220.618C1734.57 219.368 1733.76 218.196 1731.8 217.101L1728.29 215.173C1726.38 214.107 1725.08 212.958 1724.39 211.726C1723.68 210.49 1723.56 209.076 1724.01 207.485Z" fill="#131313"/>
<path d="M1749.47 228.615C1751.25 229.286 1752.87 229.175 1754.33 228.281C1755.78 227.395 1756.93 225.814 1757.79 223.537C1758.65 221.273 1758.83 219.325 1758.33 217.692C1757.82 216.066 1756.68 214.917 1754.9 214.246C1753.11 213.569 1751.49 213.674 1750.05 214.56C1748.6 215.446 1747.45 217.027 1746.59 219.304C1745.72 221.593 1745.54 223.548 1746.04 225.169C1746.53 226.789 1747.68 227.938 1749.47 228.615ZM1748.09 232.279C1745.02 231.119 1742.97 229.242 1741.95 226.649C1740.93 224.056 1741.05 221.071 1742.33 217.695C1743.6 214.331 1745.48 212.017 1747.98 210.753C1750.46 209.484 1753.23 209.427 1756.28 210.582C1759.33 211.732 1761.36 213.603 1762.38 216.197C1763.42 218.795 1763.3 221.776 1762.03 225.139C1760.75 228.516 1758.88 230.838 1756.39 232.107C1753.91 233.377 1751.14 233.434 1748.09 232.279Z" fill="#131313"/>
<path d="M1773.39 222.178L1770.05 220.644L1771.6 217.272L1774.94 218.805L1775.86 216.793C1776.8 214.756 1778.02 213.517 1779.51 213.076C1780.95 212.638 1782.74 212.913 1784.89 213.901C1785.64 214.243 1786.36 214.651 1787.06 215.124L1785.59 218.328C1785.06 217.966 1784.49 217.643 1783.87 217.357C1781.96 216.483 1780.59 216.978 1779.73 218.841L1778.91 220.63L1783.4 222.695L1781.85 226.067L1777.39 224.02L1769.66 240.845L1765.65 239.003L1773.39 222.178Z" fill="#131313"/>
<path d="M1796.25 223.012L1793.72 227.914L1798.17 230.209L1796.46 233.507L1792.02 231.213L1786.75 241.418C1786.22 242.451 1786.05 243.326 1786.25 244.044C1786.45 244.75 1787.04 245.353 1788.01 245.855C1788.38 246.043 1788.88 246.264 1789.52 246.516L1787.83 249.778C1787.01 249.523 1786.28 249.23 1785.64 248.897C1783.46 247.775 1782.11 246.556 1781.59 245.241C1781.08 243.932 1781.32 242.318 1782.31 240.398L1788.1 229.19L1784.84 227.507L1786.54 224.208L1789.8 225.892L1792.33 220.99L1796.25 223.012Z" fill="#131313"/>
<path d="M1808.81 243.268C1809.84 241.591 1811.38 240.636 1813.43 240.405C1815.48 240.186 1817.58 240.738 1819.73 242.063C1821.88 243.38 1823.32 244.915 1824.05 246.667C1824.79 248.42 1824.73 250.192 1823.89 251.984L1820.29 249.771C1820.84 248.009 1820.03 246.459 1817.85 245.12C1816.79 244.469 1815.78 244.159 1814.81 244.191C1813.82 244.22 1813.09 244.601 1812.64 245.335C1811.98 246.418 1812.51 247.812 1814.24 249.517L1816.95 252.194C1818.52 253.737 1819.48 255.178 1819.83 256.516C1820.17 257.885 1819.92 259.262 1819.07 260.648C1817.98 262.418 1816.35 263.404 1814.17 263.606C1812.03 263.799 1809.81 263.19 1807.52 261.779C1805.26 260.39 1803.73 258.787 1802.94 256.968C1802.13 255.154 1802.16 253.352 1803.04 251.563L1806.79 253.872C1806.33 255.771 1807.22 257.411 1809.47 258.793C1810.65 259.516 1811.76 259.868 1812.8 259.849C1813.83 259.829 1814.59 259.441 1815.05 258.684C1815.73 257.578 1815.28 256.23 1813.69 254.642L1810.84 251.833C1809.29 250.285 1808.35 248.825 1808.02 247.452C1807.68 246.072 1807.94 244.677 1808.81 243.268Z" fill="#131313"/>
<path d="M1843.79 258.338L1848.09 261.279L1835.1 263.996L1835.98 280.059L1831.52 277.002L1830.74 264.547L1828.09 264.97L1823.58 271.571L1819.94 269.081L1837.47 243.456L1841.11 245.945L1830.93 260.823L1831.22 261.02L1843.79 258.338Z" fill="#131313"/>
<path d="M1852.21 264.353L1855.75 266.945L1842.55 284.965L1839.01 282.373L1852.21 264.353ZM1856.29 262.488C1855.63 262.004 1855.23 261.394 1855.11 260.66C1854.97 259.929 1855.12 259.254 1855.58 258.637C1856.03 258.019 1856.63 257.662 1857.38 257.566C1858.11 257.461 1858.81 257.652 1859.48 258.136C1860.14 258.621 1860.54 259.234 1860.67 259.976C1860.79 260.711 1860.63 261.387 1860.18 262.004C1859.72 262.622 1859.13 262.978 1858.4 263.071C1857.66 263.167 1856.95 262.973 1856.29 262.488Z" fill="#131313"/>
<path d="M1866.2 263.866L1869.71 266.538L1850.9 291.239L1847.39 288.568L1866.2 263.866Z" fill="#131313"/>
<path d="M1876.34 271.671L1879.79 274.409L1860.51 298.746L1857.05 296.008L1876.34 271.671Z" fill="#131313"/>
<path d="M1875.6 290.259C1876.86 288.746 1878.52 288.022 1880.59 288.087C1882.64 288.162 1884.64 289.009 1886.58 290.629C1888.52 292.239 1889.72 293.964 1890.2 295.804C1890.68 297.644 1890.37 299.39 1889.28 301.042L1886.03 298.338C1886.83 296.673 1886.25 295.022 1884.29 293.386C1883.33 292.589 1882.37 292.138 1881.41 292.031C1880.42 291.917 1879.65 292.191 1879.1 292.853C1878.28 293.83 1878.61 295.285 1880.08 297.219L1882.38 300.257C1883.71 302.01 1884.46 303.573 1884.61 304.947C1884.76 306.351 1884.31 307.678 1883.27 308.928C1881.94 310.524 1880.18 311.266 1878 311.154C1875.85 311.039 1873.74 310.119 1871.67 308.395C1869.63 306.697 1868.35 304.891 1867.83 302.978C1867.29 301.066 1867.58 299.288 1868.7 297.642L1872.09 300.465C1871.36 302.278 1872.01 304.03 1874.04 305.719C1875.1 306.603 1876.14 307.11 1877.17 307.239C1878.2 307.369 1879 307.092 1879.57 306.41C1880.4 305.412 1880.15 304.013 1878.8 302.214L1876.38 299.026C1875.07 297.272 1874.35 295.692 1874.22 294.286C1874.08 292.872 1874.54 291.529 1875.6 290.259Z" fill="#131313"/>
</svg>
