<svg width="1920" height="359" viewBox="0 0 1920 359" fill="none" xmlns="http://www.w3.org/2000/svg">
<path d="M-25.4268 222.365C30.0732 168.031 172.773 60.1648 299.573 63.3648C458.073 67.3648 584.073 250.865 689.073 261.865C794.073 272.865 870.073 106.865 1010.57 121.365C1151.07 135.865 1212.57 352.365 1476.07 319.865C1739.57 287.365 1753.57 63.3648 1876.57 41.8648C1953.41 28.4343 1992.07 63.3648 2006.57 63.3648" stroke="white" stroke-width="70"/>
<path d="M-25.4268 219.365C30.0732 165.031 172.773 57.1648 299.573 60.3648C458.073 64.3648 584.073 247.865 689.073 258.865C794.073 269.865 870.073 103.865 1010.57 118.365C1151.07 132.865 1212.57 349.365 1476.07 316.865C1739.57 284.365 1753.57 60.3648 1876.57 38.8648C1953.41 25.4343 1992.07 60.3648 2006.57 60.3648" stroke="#566EFA" stroke-width="70"/>
<path d="M-17.2099 200.861L-14.0352 198.043L-11.7616 200.604L-11.5162 200.386C-12.0162 199.349 -12.083 198.193 -11.7166 196.917C-11.3502 195.641 -10.6251 194.522 -9.54128 193.56C-8.91759 193.006 -8.39109 192.621 -7.96177 192.405L-5.07545 195.656C-5.57175 195.859 -6.2391 196.333 -7.07749 197.077C-8.32487 198.184 -9.01998 199.45 -9.16282 200.875C-9.31589 202.309 -8.87507 203.609 -7.84035 204.774L0.91391 214.636L-2.38345 217.563L-17.2099 200.861Z" fill="white"/>
<path d="M15.0124 197.914C16.4752 196.701 17.1798 195.237 17.1261 193.523C17.0706 191.829 16.2661 190.045 14.7126 188.172C13.1678 186.309 11.5635 185.188 9.89969 184.81C8.23406 184.45 6.66984 184.877 5.20704 186.09C3.73371 187.312 3.02478 188.77 3.08028 190.465C3.13577 192.16 3.94026 193.944 5.49376 195.817C7.05599 197.701 8.66466 198.827 10.3198 199.195C11.9749 199.563 13.5391 199.136 15.0124 197.914ZM17.5129 200.929C14.9872 203.024 12.3445 203.874 9.58487 203.481C6.82525 203.087 4.29341 201.501 1.98934 198.723C-0.306002 195.955 -1.38646 193.175 -1.25204 190.381C-1.12813 187.596 0.19141 185.161 2.7066 183.075C5.21126 180.998 7.8434 180.156 10.603 180.55C13.3732 180.934 15.9059 182.511 18.2012 185.278C20.5053 188.057 21.5954 190.838 21.4715 193.623C21.3476 196.408 20.0281 198.843 17.5129 200.929Z" fill="white"/>
<path d="M16.229 172.579L19.5933 169.99L21.757 172.802L22.0171 172.601C21.6917 171.282 21.8039 169.971 22.3538 168.668C22.9062 167.346 23.8487 166.172 25.1814 165.146C27.1533 163.628 29.1134 163.026 31.0616 163.338C33.0181 163.661 34.8051 164.873 36.4227 166.975L45.2405 178.433L41.7462 181.122L33.6039 170.542C31.4193 167.703 29.0376 167.276 26.4589 169.261C25.0504 170.345 24.2538 171.596 24.069 173.015C23.8735 174.442 24.3093 175.849 25.3766 177.236L33.3438 187.589L29.8496 190.278L16.229 172.579Z" fill="white"/>
<path d="M39.1275 148.555L42.3662 153.021L46.417 150.083L48.5962 153.088L44.5454 156.026L51.2877 165.323C51.97 166.263 52.6764 166.807 53.407 166.952C54.1295 167.087 54.9335 166.833 55.8189 166.191C56.1509 165.95 56.5736 165.601 57.0868 165.145L59.242 168.117C58.6441 168.736 58.0518 169.258 57.4652 169.684C55.4841 171.12 53.789 171.776 52.3799 171.649C50.9819 171.514 49.6488 170.573 48.3806 168.824L40.9761 158.614L38.0044 160.769L35.8252 157.764L38.7969 155.609L35.5581 151.143L39.1275 148.555Z" fill="white"/>
<path d="M59.9897 144.558C58.6469 145.477 57.8382 146.668 57.5637 148.131C57.2892 149.594 57.5952 151.083 58.4817 152.597L67.7912 146.228C66.7503 144.804 65.5303 143.94 64.1312 143.638C62.713 143.333 61.3326 143.64 59.9897 144.558ZM75.3422 149.784C76.0594 151.729 76.0425 153.654 75.2917 155.559C74.5295 157.471 73.099 159.146 71.0002 160.581C68.3596 162.388 65.7005 162.956 63.0228 162.286C60.3416 161.636 57.9936 159.838 55.9789 156.893C53.9643 153.948 53.1299 151.081 53.4758 148.294C53.8217 145.506 55.2924 143.225 57.8878 141.449C60.4493 139.697 63.027 139.143 65.621 139.787C68.2037 140.439 70.4869 142.214 72.4707 145.115L73.3391 146.384L60.3227 155.288L60.4616 155.491C61.6296 157.077 62.9779 158.044 64.5064 158.389C66.035 158.735 67.5271 158.41 68.9828 157.414C71.2058 155.894 72.1577 154.149 71.8384 152.181L75.3422 149.784Z" fill="white"/>
<path d="M70.5108 133.423L74.0954 131.149L75.996 134.144L76.2731 133.969C76.0684 132.625 76.2988 131.329 76.9643 130.081C77.634 128.815 78.6788 127.731 80.0988 126.83C82.1999 125.497 84.2065 125.074 86.1184 125.561C88.0377 126.06 89.7077 127.429 91.1286 129.669L98.8738 141.877L95.1507 144.239L87.9987 132.966C86.0798 129.941 83.7465 129.3 80.9989 131.043C79.4981 131.996 78.5916 133.17 78.2792 134.566C77.9554 135.97 78.2622 137.41 79.1997 138.888L86.1978 149.919L82.4747 152.281L70.5108 133.423Z" fill="white"/>
<path d="M111.303 134.9C108.843 136.328 106.371 136.562 103.885 135.602C101.399 134.643 99.2671 132.631 97.4893 129.569C95.7183 126.519 95.0383 123.672 95.4493 121.031C95.8485 118.396 97.2718 116.369 99.7193 114.948C101.044 114.179 102.404 113.785 103.799 113.765C105.201 113.757 106.472 114.134 107.61 114.896L107.893 114.731L101.736 104.125L105.549 101.912L121.138 128.764L117.484 130.885L115.714 127.834L115.412 128.009C115.487 130.97 114.117 133.267 111.303 134.9ZM102.788 117.743C101.18 118.676 100.261 119.992 100.03 121.692C99.7805 123.386 100.246 125.25 101.427 127.283C102.614 129.329 104.003 130.673 105.593 131.315C107.188 131.938 108.789 131.783 110.397 130.849C112.005 129.916 112.931 128.596 113.173 126.89C113.428 125.177 112.968 123.31 111.795 121.288C110.628 119.278 109.234 117.953 107.613 117.313C105.993 116.673 104.385 116.816 102.788 117.743Z" fill="white"/>
<path d="M143.389 117.358C140.845 118.629 138.363 118.708 135.942 117.595C133.521 116.481 131.519 114.341 129.936 111.173C128.359 108.018 127.858 105.135 128.433 102.525C128.996 99.92 130.544 97.9851 133.075 96.72C134.445 96.0355 135.827 95.727 137.221 95.7945C138.621 95.8743 139.865 96.33 140.953 97.1618L141.247 97.0151L135.764 86.045L139.709 84.074L153.588 111.848L149.81 113.736L148.233 110.581L147.921 110.737C147.81 113.696 146.299 115.903 143.389 117.358ZM135.964 99.7013C134.3 100.532 133.3 101.789 132.964 103.47C132.609 105.145 132.957 107.035 134.008 109.138C135.065 111.254 136.368 112.682 137.914 113.422C139.467 114.144 141.075 114.089 142.738 113.258C144.402 112.427 145.408 111.167 145.757 109.48C146.118 107.786 145.776 105.894 144.731 103.803C143.692 101.724 142.383 100.314 140.806 99.5738C139.229 98.8337 137.615 98.8762 135.964 99.7013Z" fill="white"/>
<path d="M160.817 87.6735C159.327 88.3272 158.312 89.3475 157.771 90.7345C157.23 92.1215 157.254 93.641 157.845 95.293L168.174 90.7613C167.415 89.1682 166.376 88.0936 165.057 87.5376C163.72 86.9746 162.307 87.0199 160.817 87.6735ZM174.934 95.6557C175.279 97.6993 174.905 99.5876 173.814 101.32C172.711 103.059 170.994 104.439 168.666 105.46C165.736 106.746 163.018 106.811 160.511 105.657C157.997 104.52 156.023 102.318 154.589 99.0505C153.155 95.7828 152.867 92.8114 153.724 90.1363C154.58 87.4612 156.449 85.4919 159.328 84.2286C162.17 82.9817 164.806 82.9151 167.236 84.029C169.653 85.1483 171.567 87.3167 172.979 90.5343L173.597 91.9428L159.155 98.2789L159.254 98.5043C160.107 100.28 161.253 101.479 162.691 102.102C164.129 102.725 165.656 102.683 167.271 101.974C169.737 100.892 170.996 99.3544 171.047 97.3612L174.934 95.6557Z" fill="white"/>
<path d="M176.748 77.368L188.17 91.8849L188.496 91.7617L187.453 73.3253L191.827 71.6735L192.196 95.4064L187.765 97.08L172.335 79.0343L176.748 77.368Z" fill="white"/>
<path d="M207.998 69.9252C206.444 70.4048 205.318 71.3027 204.623 72.6189C203.927 73.9352 203.778 75.4476 204.177 77.1561L214.955 73.8315C214.383 72.1623 213.473 70.9763 212.226 70.2736C210.962 69.5618 209.553 69.4457 207.998 69.9252ZM221.113 79.4647C221.222 81.5343 220.636 83.3677 219.355 84.9648C218.06 86.5659 216.198 87.7413 213.768 88.4908C210.711 89.4338 208.003 89.1889 205.643 87.7562C203.275 86.3405 201.565 83.9278 200.513 80.518C199.462 77.1081 199.514 74.1232 200.67 71.5632C201.826 69.0033 203.907 67.2598 206.912 66.333C209.877 65.4182 212.503 65.6526 214.79 67.0361C217.064 68.4237 218.718 70.7963 219.754 74.1538L220.208 75.6236L205.138 80.272L205.21 80.5072C205.856 82.3683 206.857 83.6904 208.215 84.4735C209.572 85.2566 211.094 85.3882 212.779 84.8684C215.353 84.0745 216.779 82.6904 217.057 80.716L221.113 79.4647Z" fill="white"/>
<path d="M220.059 53.9448L224.332 52.8606L231.967 82.9562L227.693 84.0403L220.059 53.9448Z" fill="white"/>
<path d="M246.725 76.11C248.591 75.7524 249.914 74.81 250.694 73.2825C251.462 71.7711 251.617 69.8204 251.159 67.4302C250.704 65.0535 249.839 63.2983 248.564 62.1644C247.278 61.0465 245.701 60.6664 243.835 61.0239C241.955 61.3841 240.631 62.3198 239.863 63.8312C239.094 65.3426 238.939 67.2934 239.397 69.6835C239.857 72.0871 240.724 73.8491 241.996 74.9695C243.269 76.0899 244.845 76.4701 246.725 76.11ZM247.462 79.957C244.239 80.5744 241.514 80.0454 239.286 78.3703C237.058 76.6951 235.604 74.085 234.925 70.5401C234.249 67.0086 234.643 64.0516 236.107 61.669C237.559 59.289 239.889 57.7917 243.098 57.1769C246.294 56.5647 249.006 57.0962 251.234 58.7714C253.475 60.444 254.934 63.046 255.611 66.5775C256.29 70.1224 255.904 73.0849 254.453 75.4649C253.001 77.8449 250.671 79.3422 247.462 79.957Z" fill="white"/>
<path d="M270.877 53.2024C273.708 52.9317 276.051 53.7444 277.908 55.6407C279.767 57.5506 280.864 60.268 281.202 63.7929C281.539 67.3178 280.976 70.194 279.513 72.4215C278.065 74.6477 275.931 75.8956 273.114 76.165C269.793 76.4826 267.395 75.4554 265.918 73.0833L265.571 73.1164L266.582 83.6912L262.193 84.111L259.378 54.6731L263.603 54.2689L263.955 57.9436L264.282 57.9123C264.827 56.5828 265.685 55.4982 266.855 54.6584C268.025 53.8323 269.366 53.3469 270.877 53.2024ZM271.451 72.348C273.316 72.1697 274.715 71.3628 275.649 69.9276C276.568 68.48 276.915 66.5789 276.69 64.2244C276.465 61.8699 275.764 60.0759 274.589 58.8424C273.4 57.6102 271.88 57.0826 270.029 57.2596C268.178 57.4367 266.779 58.2503 265.833 59.7005C264.888 61.1643 264.527 63.0598 264.749 65.3871C264.971 67.7008 265.684 69.4867 266.889 70.7448C268.093 71.9893 269.614 72.5237 271.451 72.348Z" fill="white"/>
<path d="M297.314 55.8069C295.687 55.7794 294.339 56.2831 293.268 57.3179C292.198 58.3526 291.586 59.7439 291.434 61.4915L302.711 61.6822C302.686 59.9178 302.191 58.5079 301.224 57.4523C300.244 56.3829 298.941 55.8344 297.314 55.8069ZM306.814 68.9508C306.274 70.9517 305.147 72.512 303.432 73.6316C301.704 74.751 299.569 75.2892 297.026 75.2462C293.827 75.1922 291.33 74.1176 289.533 72.0224C287.722 69.9408 286.847 67.116 286.907 63.5481C286.967 59.9803 287.945 57.1595 289.84 55.0858C291.734 53.012 294.254 52.0017 297.398 52.0549C300.501 52.1073 302.924 53.1465 304.667 55.1723C306.397 57.1979 307.232 59.9673 307.173 63.4805L307.147 65.0184L291.379 64.7518L291.374 64.9979C291.409 66.9675 291.95 68.5355 292.997 69.7018C294.044 70.8681 295.449 71.4661 297.213 71.4959C299.906 71.5414 301.691 70.6692 302.569 68.879L306.814 68.9508Z" fill="white"/>
<path d="M315.228 53.4035L319.443 53.9107L319.034 57.311L319.36 57.3502C319.804 56.2882 320.625 55.4713 321.823 54.8994C323.021 54.3275 324.34 54.1281 325.779 54.3012C326.607 54.4009 327.244 54.5395 327.691 54.7172L327.171 59.0337C326.69 58.7969 325.893 58.6114 324.78 58.4775C323.124 58.2782 321.716 58.5976 320.555 59.4356C319.38 60.2719 318.699 61.4638 318.513 63.0113L316.938 76.1034L312.56 75.5766L315.228 53.4035Z" fill="white"/>
<path d="M354.131 90.2043L373.784 58.8602L377.601 60.1222L357.869 91.4406L354.131 90.2043Z" fill="white"/>
<path d="M411.646 107.769C408.721 106.251 407.233 104.014 407.18 101.06L406.889 100.909L405.264 104.039L401.496 102.083L415.806 74.5277L419.719 76.5597L414.067 87.4433L414.376 87.604C415.459 86.7951 416.707 86.3648 418.12 86.313C419.533 86.2613 420.919 86.5883 422.278 87.294C424.79 88.5983 426.31 90.5509 426.839 93.1517C427.349 95.7584 426.789 98.633 425.157 101.776C423.525 104.918 421.49 107.027 419.052 108.103C416.614 109.178 414.145 109.067 411.646 107.769ZM419.326 90.2206C417.688 89.37 416.078 89.2964 414.495 89.9999C412.907 90.7154 411.568 92.1075 410.478 94.176C409.413 96.2571 409.047 98.1471 409.382 99.8461C409.705 101.539 410.691 102.814 412.341 103.67C413.991 104.527 415.598 104.607 417.162 103.909C418.72 103.193 420.044 101.786 421.134 99.6868C422.218 97.5999 422.602 95.7193 422.285 94.045C421.962 92.3524 420.976 91.0776 419.326 90.2206Z" fill="white"/>
<path d="M432.172 114.888C433.598 115.728 435.023 116.029 436.449 115.79C437.864 115.545 438.925 114.821 439.633 113.62L440.581 112.012L435.704 109.542C433.033 108.206 431.204 108.373 430.218 110.046C429.718 110.894 429.658 111.763 430.038 112.653C430.401 113.518 431.112 114.263 432.172 114.888ZM429.316 117.513C427.431 116.402 426.206 114.981 425.639 113.25C425.058 111.463 425.277 109.704 426.298 107.973C427.311 106.253 428.728 105.263 430.548 105.003C432.361 104.755 434.457 105.237 436.837 106.449L442.226 109.221L443.205 107.56C444.455 105.44 443.766 103.606 441.14 102.058C438.914 100.746 437.157 100.67 435.869 101.831L432.195 99.6653C433.355 98.1275 434.945 97.2875 436.966 97.1451C438.967 97.0077 441.063 97.5846 443.254 98.8759C445.656 100.292 447.18 101.96 447.826 103.881C448.467 105.782 448.187 107.751 446.986 109.789L439.238 122.933L435.581 120.777L437.174 118.074L436.874 117.897C434.485 119.203 431.966 119.075 429.316 117.513Z" fill="white"/>
<path d="M465.217 121.653C465.603 120.551 465.61 119.482 465.238 118.444C464.839 117.324 464.042 116.378 462.848 115.606C461.297 114.605 459.717 114.381 458.105 114.936C456.483 115.482 455.026 116.755 453.735 118.753C452.43 120.775 451.85 122.655 451.997 124.393C452.139 126.113 452.986 127.473 454.536 128.475C456.994 130.062 459.133 129.987 460.955 128.251L464.556 130.576C463.068 132.35 461.259 133.362 459.127 133.613C456.928 133.869 454.691 133.262 452.417 131.793C449.684 130.028 448.096 127.774 447.654 125.031C447.208 122.269 447.972 119.36 449.945 116.306C451.889 113.297 454.198 111.435 456.872 110.721C459.547 110.007 462.251 110.533 464.984 112.299C467.27 113.775 468.739 115.595 469.392 117.758C470.01 119.801 469.818 121.874 468.817 123.978L465.217 121.653Z" fill="white"/>
<path d="M489.122 129.066L493.407 132.028L480.404 134.682L481.214 150.749L476.76 147.67L476.049 135.211L473.396 135.622L468.849 142.201L465.222 139.694L482.877 114.153L486.504 116.66L476.253 131.489L476.54 131.687L489.122 129.066Z" fill="white"/>
<path d="M502.776 142.883C501.458 141.929 500.064 141.569 498.594 141.803C497.124 142.038 495.826 142.827 494.699 144.172L503.832 150.791C504.823 149.331 505.224 147.892 505.037 146.473C504.847 145.035 504.093 143.838 502.776 142.883ZM503.028 159.099C501.439 160.429 499.621 161.062 497.575 160.997C495.517 160.924 493.459 160.141 491.4 158.649C488.809 156.772 487.378 154.46 487.106 151.713C486.815 148.969 487.717 146.153 489.811 143.263C491.905 140.374 494.323 138.623 497.064 138.009C499.805 137.395 502.448 138.011 504.995 139.857C507.507 141.678 508.898 143.918 509.165 146.578C509.422 149.229 508.519 151.977 506.457 154.822L505.555 156.067L492.785 146.812L492.641 147.012C491.541 148.646 491.086 150.241 491.275 151.797C491.465 153.352 492.274 154.648 493.702 155.683C495.882 157.263 497.846 157.572 499.591 156.608L503.028 159.099Z" fill="white"/>
<path d="M517.246 149.334L520.648 151.874L518.526 154.717L518.789 154.913C519.972 154.243 521.265 153.997 522.668 154.174C524.09 154.348 525.475 154.938 526.823 155.944C528.817 157.432 529.927 159.157 530.153 161.117C530.371 163.088 529.687 165.136 528.1 167.261L519.453 178.848L515.919 176.211L523.904 165.512C526.047 162.641 525.814 160.233 523.207 158.286C521.782 157.223 520.362 156.795 518.946 157C517.519 157.198 516.282 157.998 515.236 159.4L507.422 169.87L503.889 167.232L517.246 149.334Z" fill="white"/>
<path d="M530.235 187.438C527.964 185.727 526.787 183.54 526.704 180.877C526.622 178.214 527.645 175.467 529.775 172.639C531.897 169.821 534.255 168.088 536.848 167.439C539.431 166.782 541.852 167.305 544.113 169.007C545.336 169.928 546.228 171.028 546.789 172.306C547.342 173.595 547.488 174.912 547.229 176.256L547.491 176.454L554.868 166.657L558.39 169.309L539.714 194.113L536.339 191.572L538.461 188.754L538.182 188.544C535.484 189.764 532.835 189.395 530.235 187.438ZM542.732 172.922C541.246 171.803 539.676 171.468 538.021 171.916C536.363 172.345 534.827 173.499 533.412 175.377C531.99 177.267 531.292 179.069 531.319 180.783C531.365 182.495 532.13 183.91 533.616 185.029C535.101 186.147 536.677 186.486 538.343 186.046C540.02 185.615 541.561 184.465 542.968 182.598C544.366 180.741 545.044 178.942 545.004 177.2C544.964 175.458 544.206 174.032 542.732 172.922Z" fill="white"/>
<path d="M561.345 210.66C559.048 208.984 557.837 206.816 557.714 204.154C557.591 201.492 558.573 198.731 560.659 195.87C562.738 193.02 565.069 191.251 567.652 190.562C570.224 189.866 572.653 190.352 574.94 192.02C576.177 192.922 577.086 194.008 577.666 195.277C578.239 196.557 578.405 197.872 578.166 199.221L578.431 199.414L585.658 189.505L589.22 192.104L570.924 217.189L567.511 214.7L569.59 211.85L569.308 211.645C566.629 212.906 563.974 212.577 561.345 210.66ZM573.619 195.955C572.116 194.859 570.541 194.548 568.893 195.021C567.242 195.475 565.723 196.652 564.338 198.552C562.944 200.463 562.274 202.276 562.327 203.99C562.399 205.7 563.186 207.104 564.688 208.199C566.191 209.295 567.771 209.61 569.43 209.145C571.101 208.688 572.625 207.515 574.002 205.626C575.372 203.748 576.023 201.939 575.956 200.198C575.889 198.457 575.11 197.042 573.619 195.955Z" fill="white"/>
<path d="M595.671 211.31C594.329 210.39 592.927 210.067 591.463 210.34C590 210.613 588.722 211.437 587.632 212.811L596.935 219.188C597.887 217.702 598.251 216.252 598.027 214.839C597.798 213.406 597.013 212.23 595.671 211.31ZM596.35 227.513C594.797 228.885 592.996 229.566 590.949 229.554C588.89 229.535 586.811 228.807 584.714 227.369C582.075 225.561 580.584 223.287 580.24 220.548C579.877 217.813 580.704 214.974 582.721 212.031C584.739 209.088 587.109 207.273 589.833 206.588C592.557 205.902 595.216 206.448 597.81 208.226C600.37 209.981 601.819 212.184 602.156 214.835C602.483 217.479 601.652 220.249 599.666 223.148L598.796 224.416L585.788 215.5L585.649 215.703C584.592 217.366 584.179 218.972 584.41 220.523C584.64 222.073 585.482 223.346 586.937 224.343C589.159 225.866 591.129 226.123 592.849 225.113L596.35 227.513Z" fill="white"/>
<path d="M613.264 219.051L608.742 236.961L609.039 237.144L623.002 225.061L626.982 227.517L608.411 242.3L604.38 239.812L609.25 216.574L613.264 219.051Z" fill="white"/>
<path d="M637.157 236.779C635.712 236.03 634.281 235.88 632.862 236.33C631.442 236.78 630.275 237.754 629.361 239.251L639.374 244.442C640.137 242.852 640.321 241.368 639.926 239.993C639.524 238.599 638.601 237.527 637.157 236.779ZM639.811 252.777C638.437 254.329 636.733 255.224 634.7 255.463C632.654 255.696 630.502 255.227 628.245 254.057C625.404 252.584 623.646 250.51 622.97 247.834C622.275 245.164 622.749 242.245 624.392 239.077C626.034 235.909 628.165 233.818 630.785 232.805C633.405 231.792 636.111 232.009 638.902 233.456C641.658 234.885 643.365 236.894 644.024 239.484C644.671 242.068 644.186 244.92 642.568 248.039L641.86 249.404L627.86 242.146L627.747 242.364C626.901 244.143 626.687 245.788 627.106 247.299C627.524 248.809 628.516 249.97 630.081 250.782C632.472 252.022 634.46 252.035 636.043 250.823L639.811 252.777Z" fill="white"/>
<path d="M655.727 232.388L659.797 234.085L647.851 262.744L643.781 261.047L655.727 232.388Z" fill="white"/>
<path d="M666.192 265.485C668.021 266 669.626 265.749 671.006 264.732C672.37 263.724 673.381 262.049 674.041 259.706C674.697 257.377 674.708 255.42 674.075 253.835C673.425 252.26 672.186 251.215 670.356 250.7C668.514 250.181 666.911 250.426 665.548 251.434C664.184 252.442 663.173 254.117 662.513 256.459C661.849 258.815 661.836 260.778 662.473 262.35C663.11 263.921 664.35 264.966 666.192 265.485ZM665.13 269.256C661.972 268.366 659.771 266.674 658.528 264.179C657.285 261.684 657.152 258.699 658.131 255.225C659.106 251.764 660.781 249.296 663.157 247.82C665.519 246.341 668.273 246.044 671.418 246.93C674.55 247.812 676.738 249.5 677.981 251.995C679.238 254.494 679.378 257.474 678.404 260.935C677.425 264.409 675.754 266.886 673.392 268.365C671.029 269.845 668.275 270.141 665.13 269.256Z" fill="white"/>
<path d="M698.414 251.191C701.257 251.245 703.493 252.32 705.121 254.416C706.749 256.525 707.529 259.35 707.462 262.891C707.394 266.431 706.507 269.224 704.8 271.27C703.106 273.316 700.845 274.312 698.015 274.259C694.68 274.195 692.414 272.901 691.218 270.375L690.869 270.369L690.667 280.99L686.258 280.906L686.822 251.339L691.066 251.42L690.996 255.111L691.324 255.117C692.018 253.858 692.994 252.879 694.252 252.178C695.509 251.491 696.896 251.162 698.414 251.191ZM696.799 270.277C698.671 270.312 700.154 269.671 701.245 268.351C702.324 267.018 702.885 265.169 702.93 262.804C702.976 260.439 702.485 258.577 701.458 257.218C700.417 255.858 698.967 255.16 697.108 255.124C695.249 255.089 693.767 255.738 692.661 257.07C691.555 258.417 690.98 260.259 690.935 262.596C690.891 264.92 691.396 266.776 692.45 268.163C693.504 269.537 694.953 270.241 696.799 270.277Z" fill="white"/>
<path d="M720.839 252.374C719.255 252.747 718.072 253.566 717.288 254.832C716.505 256.098 716.254 257.597 716.535 259.329L727.514 256.744C727.057 255.04 726.23 253.795 725.034 253.009C723.821 252.213 722.423 252.001 720.839 252.374ZM733.275 262.783C733.244 264.855 732.534 266.645 731.147 268.151C729.747 269.66 727.809 270.706 725.333 271.289C722.219 272.022 719.534 271.594 717.278 270.004C715.011 268.431 713.469 265.907 712.652 262.434C711.834 258.96 712.089 255.986 713.417 253.51C714.744 251.035 716.938 249.437 719.999 248.716C723.02 248.005 725.624 248.418 727.812 249.954C729.986 251.492 731.475 253.972 732.28 257.392L732.633 258.889L717.282 262.503L717.338 262.742C717.856 264.643 718.765 266.03 720.066 266.904C721.368 267.777 722.876 268.012 724.593 267.608C727.215 266.991 728.732 265.707 729.143 263.756L733.275 262.783Z" fill="white"/>
<path d="M735.034 244.735L738.951 243.098L740.272 246.258L740.575 246.131C740.438 244.988 740.749 243.872 741.509 242.784C742.269 241.696 743.318 240.872 744.655 240.313C745.425 239.991 746.047 239.798 746.524 239.732L748.201 243.743C747.666 243.774 746.881 244.006 745.846 244.438C744.307 245.082 743.24 246.054 742.643 247.356C742.033 248.663 742.029 250.035 742.63 251.473L747.717 263.639L743.649 265.34L735.034 244.735Z" fill="white"/>
<path d="M791.725 246.785L778.536 212.22L781.841 209.933L794.963 244.545L791.725 246.785Z" fill="white"/>
<path d="M820.071 198.13C818.863 196.575 818.512 194.796 819.017 192.794C819.531 190.803 820.787 189.032 822.784 187.48C824.771 185.938 826.715 185.13 828.614 185.057C830.513 184.984 832.153 185.658 833.534 187.079L830.197 189.67C828.742 188.532 827.005 188.747 824.985 190.315C824.003 191.078 823.356 191.918 823.046 192.833C822.723 193.777 822.825 194.589 823.354 195.269C824.133 196.273 825.625 196.266 827.829 195.248L831.289 193.651C833.286 192.724 834.972 192.332 836.348 192.476C837.75 192.633 838.951 193.354 839.949 194.639C841.223 196.28 841.572 198.156 840.994 200.266C840.422 202.337 839.072 204.199 836.945 205.851C834.85 207.478 832.812 208.342 830.831 208.443C828.847 208.564 827.172 207.9 825.805 206.452L829.288 203.747C830.903 204.847 832.753 204.588 834.837 202.969C835.928 202.123 836.647 201.209 836.994 200.23C837.342 199.251 837.243 198.41 836.698 197.708C835.901 196.682 834.48 196.635 832.433 197.566L828.802 199.243C826.807 200.152 825.11 200.518 823.709 200.342C822.298 200.174 821.085 199.436 820.071 198.13Z" fill="white"/>
<path d="M853.312 188.323C854.829 187.179 855.6 185.749 855.625 184.034C855.647 182.339 854.926 180.52 853.46 178.578C852.002 176.646 850.451 175.453 848.806 174.999C847.158 174.563 845.576 174.918 844.059 176.063C842.532 177.216 841.757 178.64 841.734 180.335C841.712 182.031 842.434 183.85 843.9 185.792C845.374 187.746 846.929 188.944 848.566 189.388C850.202 189.831 851.785 189.476 853.312 188.323ZM855.672 191.45C853.053 193.427 850.374 194.155 847.635 193.636C844.897 193.116 842.44 191.416 840.266 188.535C838.1 185.665 837.148 182.837 837.41 180.053C837.662 177.277 839.092 174.905 841.7 172.936C844.297 170.976 846.965 170.256 849.704 170.775C852.453 171.287 854.911 172.977 857.077 175.847C859.251 178.728 860.213 181.557 859.961 184.333C859.71 187.109 858.28 189.482 855.672 191.45Z" fill="white"/>
<path d="M858.609 165.702L855.616 167.828L853.467 164.801L856.46 162.676L855.178 160.87C853.88 159.042 853.413 157.369 853.778 155.852C854.115 154.389 855.247 152.973 857.176 151.604C857.845 151.129 858.559 150.706 859.318 150.335L861.36 153.211C860.784 153.486 860.217 153.821 859.66 154.217C857.954 155.428 857.695 156.869 858.882 158.542L860.022 160.147L864.052 157.286L866.201 160.312L862.204 163.15L872.925 178.249L869.33 180.802L858.609 165.702Z" fill="white"/>
<path d="M870.886 146.039L873.925 150.643L878.101 147.887L880.146 150.985L875.969 153.741L882.295 163.327C882.935 164.297 883.617 164.87 884.34 165.048C885.056 165.215 885.87 164.997 886.783 164.394C887.126 164.168 887.563 163.838 888.096 163.405L890.118 166.469C889.493 167.061 888.879 167.557 888.274 167.956C886.231 169.304 884.509 169.884 883.107 169.695C881.716 169.499 880.426 168.5 879.236 166.697L872.289 156.17L869.225 158.192L867.181 155.094L870.245 153.072L867.206 148.468L870.886 146.039Z" fill="white"/>
<path d="M912.619 153.374L908.634 155.618L896.543 143.551L896.239 143.722L900.307 160.307L896.358 162.531L880.038 146.091L883.934 143.897L895.781 156.784L896.067 156.623L891.707 139.519L895.388 137.446L907.753 150.041L908.057 149.87L903.161 133.069L907.003 130.905L912.619 153.374Z" fill="white"/>
<path d="M927.614 142.692C929.141 142.057 930.238 141.097 930.903 139.814C931.556 138.535 931.614 137.252 931.079 135.965L930.362 134.242L925.459 136.659C922.786 137.993 921.822 139.556 922.568 141.349C922.946 142.258 923.605 142.827 924.545 143.058C925.455 143.287 926.478 143.165 927.614 142.692ZM927.998 146.553C925.979 147.393 924.106 147.52 922.382 146.935C920.604 146.327 919.329 145.095 918.557 143.239C917.79 141.397 917.849 139.669 918.733 138.057C919.623 136.458 921.267 135.071 923.665 133.895L929.117 131.25L928.377 129.47C927.432 127.198 925.551 126.647 922.737 127.818C920.351 128.811 919.236 130.171 919.391 131.898L915.453 133.536C914.92 131.685 915.203 129.909 916.302 128.208C917.393 126.524 919.113 125.194 921.461 124.218C924.036 123.146 926.285 122.929 928.208 123.565C930.113 124.194 931.52 125.6 932.429 127.784L938.289 141.872L934.37 143.502L933.165 140.605L932.843 140.739C932.453 143.433 930.838 145.371 927.998 146.553Z" fill="white"/>
<path d="M935.389 119.309L939.45 118.073L940.448 121.349L940.762 121.253C940.74 120.102 941.162 119.024 942.027 118.017C942.893 117.01 944.018 116.296 945.405 115.874C946.203 115.631 946.842 115.501 947.322 115.483L948.589 119.642C948.053 119.619 947.249 119.771 946.176 120.098C944.581 120.584 943.421 121.444 942.696 122.679C941.959 123.919 941.817 125.284 942.271 126.775L946.112 139.39L941.894 140.674L935.389 119.309Z" fill="white"/>
<path d="M962.072 115.832C960.471 116.12 959.245 116.875 958.395 118.097C957.545 119.319 957.214 120.802 957.402 122.547L968.504 120.553C968.138 118.827 967.379 117.54 966.227 116.691C965.058 115.831 963.674 115.545 962.072 115.832ZM973.934 126.892C973.791 128.959 972.987 130.708 971.521 132.138C970.042 133.57 968.051 134.511 965.548 134.961C962.399 135.526 959.741 134.954 957.573 133.246C955.394 131.554 953.989 128.952 953.358 125.439C952.728 121.927 953.141 118.971 954.6 116.57C956.058 114.169 958.334 112.691 961.429 112.135C964.484 111.586 967.062 112.138 969.164 113.788C971.253 115.441 972.608 117.997 973.229 121.455L973.5 122.969L957.978 125.756L958.022 125.998C958.437 127.924 959.271 129.358 960.523 130.3C961.776 131.242 963.27 131.557 965.006 131.245C967.657 130.769 969.24 129.568 969.755 127.642L973.934 126.892Z" fill="white"/>
<path d="M998.736 113.038C997.11 112.975 995.751 113.449 994.658 114.461C993.566 115.472 992.924 116.85 992.734 118.594L1004 119.028C1004.02 117.264 1003.55 115.844 1002.61 114.767C1001.65 113.677 1000.36 113.1 998.736 113.038ZM1007.95 126.384C1007.37 128.373 1006.21 129.908 1004.47 130.991C1002.72 132.072 1000.57 132.564 998.028 132.466C994.831 132.343 992.357 131.215 990.606 129.081C988.84 126.961 988.026 124.118 988.164 120.552C988.301 116.986 989.34 114.187 991.279 112.155C993.218 110.123 995.759 109.167 998.901 109.288C1002 109.408 1004.4 110.499 1006.1 112.562C1007.79 114.625 1008.56 117.412 1008.43 120.923L1008.37 122.46L992.608 121.852L992.599 122.098C992.591 124.068 993.098 125.647 994.12 126.836C995.141 128.025 996.533 128.653 998.295 128.721C1000.99 128.825 1002.79 127.991 1003.71 126.221L1007.95 126.384Z" fill="white"/>
<path d="M1017.81 111.018L1021.95 111.917L1021.2 115.385L1021.52 115.454C1022.32 114.354 1023.4 113.594 1024.75 113.173C1026.11 112.742 1027.62 112.704 1029.26 113.06C1031.69 113.587 1033.42 114.696 1034.44 116.385C1035.45 118.088 1035.68 120.236 1035.12 122.828L1032.06 136.958L1027.75 136.024L1030.57 122.976C1031.33 119.476 1030.12 117.381 1026.94 116.691C1025.21 116.315 1023.74 116.514 1022.53 117.288C1021.32 118.06 1020.52 119.301 1020.15 121.011L1017.38 133.778L1013.08 132.844L1017.81 111.018Z" fill="white"/>
<path d="M1054.58 133.197C1055.41 131.129 1055.57 129.285 1055.05 127.665C1054.55 126.031 1053.42 124.866 1051.69 124.167C1049.95 123.469 1048.34 123.539 1046.87 124.377C1045.44 125.187 1044.3 126.639 1043.46 128.732C1042.62 130.825 1042.44 132.659 1042.91 134.234C1043.39 135.857 1044.5 137.018 1046.24 137.716C1047.98 138.415 1049.6 138.359 1051.1 137.549C1052.58 136.728 1053.74 135.278 1054.58 133.197ZM1041.57 149.499C1039.01 148.47 1037.14 147.098 1035.96 145.385C1034.79 143.695 1034.46 141.919 1034.96 140.056L1039.14 141.738C1039.02 142.571 1039.28 143.375 1039.92 144.15C1040.61 144.941 1041.63 145.609 1042.98 146.154C1044.68 146.837 1046.17 146.985 1047.45 146.599C1048.7 146.22 1049.61 145.345 1050.16 143.975L1051.76 139.998L1051.45 139.876C1049.22 141.678 1046.63 141.982 1043.66 140.789C1041.03 139.734 1039.32 137.957 1038.53 135.458C1037.74 132.976 1037.98 130.175 1039.23 127.054C1040.51 123.882 1042.3 121.656 1044.61 120.375C1046.92 119.094 1049.4 118.983 1052.04 120.044C1053.46 120.614 1054.62 121.464 1055.52 122.593C1056.43 123.709 1056.95 124.949 1057.08 126.312L1057.4 126.442L1058.73 123.131L1062.65 124.706L1054.26 145.6C1053.3 147.972 1051.68 149.51 1049.4 150.212C1047.11 150.914 1044.5 150.677 1041.57 149.499Z" fill="white"/>
<path d="M1069.46 128.188L1073.35 130.217L1063.02 150.019L1059.13 147.989L1069.46 128.188ZM1073.22 125.73C1072.49 125.35 1072.01 124.807 1071.78 124.1C1071.53 123.398 1071.58 122.708 1071.93 122.029C1072.29 121.351 1072.83 120.907 1073.55 120.7C1074.26 120.486 1074.99 120.568 1075.71 120.948C1076.44 121.327 1076.93 121.873 1077.17 122.587C1077.4 123.294 1077.34 123.987 1076.99 124.666C1076.63 125.345 1076.1 125.785 1075.4 125.987C1074.67 126.195 1073.95 126.109 1073.22 125.73Z" fill="white"/>
<path d="M1080.68 134.055L1084.27 136.312L1082.39 139.317L1082.66 139.492C1083.79 138.729 1085.06 138.379 1086.47 138.443C1087.9 138.502 1089.33 138.979 1090.75 139.873C1092.86 141.196 1094.11 142.826 1094.49 144.761C1094.86 146.708 1094.35 148.805 1092.94 151.051L1085.25 163.296L1081.52 160.952L1088.61 149.645C1090.52 146.611 1090.09 144.229 1087.34 142.499C1085.83 141.554 1084.38 141.241 1082.99 141.56C1081.58 141.871 1080.41 142.768 1079.48 144.25L1072.54 155.314L1068.8 152.97L1080.68 134.055Z" fill="white"/>
<path d="M1107.42 155.856C1106.11 154.891 1104.71 154.52 1103.24 154.744C1101.77 154.967 1100.47 155.747 1099.33 157.083L1108.41 163.772C1109.41 162.319 1109.83 160.883 1109.65 159.462C1109.47 158.023 1108.73 156.821 1107.42 155.856ZM1107.54 172.073C1105.95 173.391 1104.12 174.01 1102.08 173.93C1100.02 173.841 1097.97 173.043 1095.92 171.535C1093.34 169.638 1091.93 167.315 1091.68 164.566C1091.41 161.82 1092.33 159.011 1094.45 156.137C1096.56 153.264 1098.99 151.531 1101.74 150.938C1104.49 150.346 1107.13 150.981 1109.66 152.846C1112.16 154.686 1113.53 156.937 1113.78 159.598C1114.01 162.252 1113.09 164.993 1111.01 167.822L1110.09 169.061L1097.4 159.709L1097.25 159.907C1096.14 161.533 1095.67 163.124 1095.85 164.681C1096.03 166.239 1096.82 167.54 1098.24 168.586C1100.41 170.183 1102.37 170.506 1104.13 169.556L1107.54 172.073Z" fill="white"/>
<path d="M1128.34 172.065C1127.08 171.04 1125.71 170.605 1124.22 170.76C1122.74 170.915 1121.4 171.633 1120.21 172.915L1128.97 180.018C1130.04 178.614 1130.52 177.198 1130.41 175.771C1130.29 174.324 1129.61 173.089 1128.34 172.065ZM1127.72 188.27C1126.06 189.513 1124.21 190.047 1122.17 189.871C1120.12 189.687 1118.11 188.794 1116.13 187.193C1113.65 185.179 1112.34 182.793 1112.22 180.035C1112.08 177.28 1113.13 174.516 1115.38 171.744C1117.62 168.972 1120.13 167.354 1122.9 166.889C1125.67 166.424 1128.28 167.182 1130.72 169.162C1133.13 171.116 1134.4 173.428 1134.52 176.098C1134.64 178.759 1133.59 181.455 1131.37 184.184L1130.41 185.379L1118.15 175.448L1118 175.64C1116.81 177.212 1116.27 178.78 1116.38 180.344C1116.48 181.907 1117.22 183.245 1118.59 184.355C1120.68 186.051 1122.63 186.465 1124.42 185.597L1127.72 188.27Z" fill="white"/>
<path d="M1142.74 179.615L1145.99 182.35L1143.78 184.969L1144.03 185.181C1144.98 184.537 1146.12 184.304 1147.43 184.482C1148.75 184.661 1149.96 185.217 1151.07 186.151C1151.71 186.688 1152.17 187.154 1152.44 187.547L1149.64 190.872C1149.37 190.41 1148.8 189.818 1147.95 189.096C1146.67 188.021 1145.32 187.516 1143.89 187.58C1142.45 187.635 1141.22 188.259 1140.22 189.451L1131.72 199.535L1128.35 196.695L1142.74 179.615Z" fill="white"/>
<path d="M1160.76 232.453L1190.47 210.402L1193.56 212.965L1163.79 234.964L1160.76 232.453Z" fill="white"/>
<path d="M1217.94 245.966L1214.96 243.821L1217.13 240.808L1220.11 242.953L1221.4 241.156C1222.71 239.336 1224.14 238.354 1225.7 238.209C1227.19 238.054 1228.89 238.667 1230.81 240.049C1231.48 240.528 1232.11 241.067 1232.71 241.665L1230.65 244.528C1230.2 244.072 1229.7 243.644 1229.14 243.245C1227.45 242.022 1226 242.243 1224.8 243.908L1223.65 245.505L1227.66 248.393L1225.49 251.406L1221.52 248.542L1210.7 263.57L1207.12 260.994L1217.94 245.966Z" fill="white"/>
<path d="M1230.96 250.578L1234.49 252.945L1232.58 255.788L1232.85 255.971C1233.73 255.227 1234.83 254.873 1236.16 254.908C1237.49 254.943 1238.75 255.365 1239.95 256.173C1240.65 256.638 1241.15 257.051 1241.47 257.412L1239.04 261.021C1238.72 260.592 1238.1 260.064 1237.17 259.439C1235.78 258.509 1234.38 258.153 1232.97 258.372C1231.54 258.583 1230.39 259.336 1229.52 260.629L1222.17 271.575L1218.51 269.117L1230.96 250.578Z" fill="white"/>
<path d="M1242.69 280.602C1244.32 281.582 1245.94 281.763 1247.54 281.146C1249.12 280.534 1250.54 279.185 1251.79 277.099C1253.04 275.026 1253.57 273.141 1253.37 271.446C1253.16 269.755 1252.24 268.42 1250.61 267.44C1248.97 266.453 1247.36 266.266 1245.78 266.879C1244.2 267.491 1242.78 268.84 1241.53 270.925C1240.27 273.022 1239.74 274.913 1239.94 276.596C1240.13 278.28 1241.05 279.615 1242.69 280.602ZM1240.68 283.959C1237.86 282.267 1236.19 280.054 1235.65 277.319C1235.11 274.585 1235.77 271.671 1237.63 268.578C1239.48 265.497 1241.75 263.559 1244.43 262.762C1247.1 261.959 1249.83 262.399 1252.63 264.084C1255.42 265.761 1257.09 267.967 1257.63 270.702C1258.18 273.444 1257.53 276.355 1255.67 279.436C1253.81 282.529 1251.55 284.477 1248.88 285.28C1246.21 286.084 1243.48 285.643 1240.68 283.959Z" fill="white"/>
<path d="M1267.52 273.309L1271.31 275.229L1269.71 278.393L1270 278.541C1271.05 277.679 1272.28 277.215 1273.69 277.15C1275.12 277.078 1276.59 277.423 1278.09 278.183C1280.31 279.309 1281.7 280.818 1282.26 282.71C1282.81 284.615 1282.48 286.75 1281.28 289.116L1274.74 302.01L1270.81 300.016L1276.85 288.109C1278.47 284.914 1277.83 282.581 1274.93 281.11C1273.34 280.306 1271.87 280.126 1270.51 280.571C1269.14 281.01 1268.06 282.009 1267.26 283.57L1261.36 295.221L1257.42 293.227L1267.52 273.309Z" fill="white"/>
<path d="M1297.96 281.919L1295.77 286.984L1300.37 288.967L1298.89 292.375L1294.3 290.392L1289.75 300.937C1289.29 302.004 1289.18 302.889 1289.43 303.591C1289.68 304.281 1290.31 304.843 1291.32 305.276C1291.69 305.439 1292.21 305.624 1292.86 305.832L1291.41 309.203C1290.57 309.005 1289.82 308.762 1289.16 308.475C1286.91 307.506 1285.48 306.383 1284.87 305.107C1284.27 303.836 1284.4 302.209 1285.26 300.226L1290.25 288.645L1286.88 287.191L1288.35 283.783L1291.72 285.237L1293.91 280.172L1297.96 281.919Z" fill="white"/>
<path d="M1311.45 296.637C1309.92 296.087 1308.48 296.129 1307.13 296.764C1305.78 297.399 1304.76 298.519 1304.05 300.124L1314.67 303.937C1315.21 302.259 1315.2 300.765 1314.62 299.454C1314.04 298.126 1312.98 297.187 1311.45 296.637ZM1316.21 312.14C1315.05 313.86 1313.48 314.974 1311.5 315.482C1309.5 315.985 1307.31 315.807 1304.91 314.947C1301.9 313.866 1299.88 312.044 1298.86 309.481C1297.81 306.927 1297.9 303.971 1299.1 300.613C1300.31 297.255 1302.14 294.899 1304.6 293.546C1307.07 292.193 1309.78 292.048 1312.74 293.112C1315.66 294.161 1317.62 295.925 1318.61 298.405C1319.6 300.879 1319.5 303.77 1318.31 307.077L1317.79 308.524L1302.95 303.193L1302.86 303.424C1302.26 305.3 1302.27 306.959 1302.89 308.4C1303.5 309.842 1304.64 310.86 1306.3 311.457C1308.83 312.367 1310.8 312.117 1312.21 310.705L1316.21 312.14Z" fill="white"/>
<path d="M1325.95 298.214L1330.04 299.329L1329.11 302.753L1329.43 302.839C1330.28 301.782 1331.39 301.079 1332.76 300.729C1334.15 300.37 1335.66 300.411 1337.28 300.853C1339.68 301.507 1341.35 302.704 1342.27 304.444C1343.2 306.198 1343.31 308.355 1342.62 310.914L1338.82 324.864L1334.57 323.706L1338.07 310.824C1339.01 307.368 1337.91 305.213 1334.77 304.358C1333.06 303.891 1331.58 304.013 1330.34 304.723C1329.08 305.43 1328.23 306.628 1327.77 308.317L1324.33 320.921L1320.08 319.763L1325.95 298.214Z" fill="white"/>
<path d="M1356.4 328.942C1353.6 328.434 1351.57 327.009 1350.3 324.666C1349.03 322.324 1348.71 319.411 1349.34 315.926C1349.97 312.456 1351.3 309.848 1353.32 308.104C1355.34 306.357 1357.73 305.736 1360.52 306.241C1362.03 306.514 1363.32 307.096 1364.39 307.986C1365.46 308.889 1366.19 310 1366.56 311.318L1366.88 311.376L1369.07 299.31L1373.41 300.097L1367.87 330.647L1363.71 329.893L1364.34 326.422L1364 326.36C1362.13 328.662 1359.6 329.522 1356.4 328.942ZM1361.04 310.359C1359.21 310.027 1357.66 310.433 1356.38 311.577C1355.09 312.704 1354.24 314.425 1353.82 316.739C1353.4 319.066 1353.58 320.99 1354.38 322.51C1355.19 324.018 1356.51 324.939 1358.34 325.271C1360.17 325.602 1361.73 325.198 1363.02 324.056C1364.32 322.917 1365.18 321.198 1365.6 318.897C1366.02 316.61 1365.81 314.698 1365 313.16C1364.18 311.622 1362.86 310.688 1361.04 310.359Z" fill="white"/>
<path d="M1393.63 333.893C1390.8 333.694 1388.62 332.5 1387.1 330.31C1385.58 328.12 1384.95 325.259 1385.19 321.727C1385.44 318.208 1386.48 315.471 1388.3 313.516C1390.11 311.56 1392.43 310.681 1395.25 310.879C1396.78 310.986 1398.12 311.423 1399.29 312.19C1400.45 312.971 1401.29 313.996 1401.81 315.266L1402.13 315.289L1402.99 303.055L1407.39 303.364L1405.22 334.336L1401 334.041L1401.25 330.522L1400.9 330.497C1399.3 332.989 1396.88 334.121 1393.63 333.893ZM1396.22 314.915C1394.36 314.784 1392.86 315.358 1391.72 316.634C1390.56 317.896 1389.9 319.7 1389.74 322.046C1389.57 324.405 1389.97 326.297 1390.92 327.721C1391.89 329.132 1393.3 329.903 1395.16 330.033C1397.01 330.163 1398.52 329.59 1399.68 328.315C1400.85 327.04 1401.52 325.237 1401.68 322.905C1401.84 320.586 1401.44 318.707 1400.45 317.268C1399.47 315.828 1398.06 315.044 1396.22 314.915Z" fill="white"/>
<path d="M1423.28 315.676C1421.66 315.678 1420.32 316.206 1419.27 317.26C1418.21 318.314 1417.63 319.716 1417.51 321.466L1428.79 321.453C1428.73 319.69 1428.21 318.289 1427.22 317.251C1426.22 316.199 1424.91 315.674 1423.28 315.676ZM1433.02 328.647C1432.52 330.657 1431.42 332.238 1429.72 333.388C1428.01 334.538 1425.89 335.115 1423.35 335.118C1420.15 335.121 1417.63 334.092 1415.8 332.029C1413.95 329.981 1413.02 327.172 1413.02 323.604C1413.01 320.035 1413.94 317.197 1415.8 315.09C1417.65 312.982 1420.16 311.927 1423.3 311.923C1426.4 311.92 1428.84 312.915 1430.62 314.909C1432.39 316.903 1433.28 319.657 1433.28 323.171L1433.28 324.709L1417.51 324.727L1417.51 324.973C1417.58 326.941 1418.15 328.499 1419.22 329.647C1420.29 330.794 1421.7 331.367 1423.47 331.365C1426.16 331.362 1427.93 330.457 1428.77 328.652L1433.02 328.647Z" fill="white"/>
<path d="M1441.09 312.03L1447.71 329.273L1448.06 329.251L1452.51 311.329L1457.18 311.043L1450.52 333.826L1445.79 334.116L1436.38 312.318L1441.09 312.03Z" fill="white"/>
<path d="M1469.98 313.045C1468.36 313.231 1467.09 313.908 1466.17 315.074C1465.24 316.24 1464.82 317.7 1464.89 319.452L1476.1 318.161C1475.84 316.415 1475.17 315.083 1474.07 314.163C1472.96 313.232 1471.59 312.859 1469.98 313.045ZM1481.12 324.829C1480.85 326.883 1479.94 328.578 1478.38 329.913C1476.82 331.249 1474.77 332.063 1472.24 332.354C1469.07 332.72 1466.45 331.983 1464.39 330.142C1462.32 328.316 1461.09 325.63 1460.68 322.085C1460.27 318.54 1460.87 315.616 1462.47 313.311C1464.08 311.007 1466.44 309.675 1469.57 309.315C1472.65 308.959 1475.19 309.672 1477.18 311.451C1479.17 313.232 1480.36 315.868 1480.76 319.359L1480.93 320.887L1465.27 322.692L1465.3 322.936C1465.59 324.884 1466.33 326.368 1467.52 327.386C1468.71 328.405 1470.18 328.814 1471.94 328.612C1474.61 328.304 1476.27 327.204 1476.9 325.315L1481.12 324.829Z" fill="white"/>
<path d="M1485.96 298.834L1490.32 298.136L1495.23 328.794L1490.87 329.492L1485.96 298.834Z" fill="white"/>
<path d="M1513.11 321.993C1514.97 321.608 1516.28 320.645 1517.04 319.106C1517.78 317.583 1517.91 315.631 1517.41 313.248C1516.92 310.878 1516.03 309.136 1514.74 308.021C1513.44 306.923 1511.85 306.567 1509.99 306.952C1508.12 307.341 1506.81 308.296 1506.06 309.819C1505.32 311.342 1505.19 313.295 1505.69 315.678C1506.18 318.074 1507.08 319.823 1508.36 320.924C1509.65 322.025 1511.24 322.381 1513.11 321.993ZM1513.9 325.829C1510.69 326.494 1507.96 326.007 1505.71 324.365C1503.45 322.724 1501.96 320.136 1501.23 316.601C1500.5 313.081 1500.85 310.118 1502.28 307.714C1503.69 305.312 1506 303.78 1509.2 303.117C1512.38 302.457 1515.1 302.947 1517.36 304.589C1519.62 306.227 1521.12 308.807 1521.85 312.328C1522.58 315.862 1522.24 318.83 1520.83 321.232C1519.41 323.633 1517.1 325.166 1513.9 325.829Z" fill="white"/>
<path d="M1537.51 296.312C1540.25 295.546 1542.7 295.933 1544.86 297.472C1547.02 299.025 1548.58 301.506 1549.54 304.916C1550.49 308.327 1550.44 311.257 1549.4 313.708C1548.36 316.154 1546.48 317.759 1543.76 318.52C1540.54 319.418 1538 318.83 1536.13 316.755L1535.8 316.849L1538.65 327.08L1534.41 328.267L1526.45 299.787L1530.54 298.644L1531.53 302.199L1531.85 302.111C1532.15 300.706 1532.8 299.487 1533.8 298.454C1534.81 297.434 1536.05 296.72 1537.51 296.312ZM1541.45 315.056C1543.25 314.552 1544.49 313.511 1545.15 311.934C1545.8 310.347 1545.81 308.414 1545.17 306.136C1544.54 303.859 1543.53 302.216 1542.16 301.209C1540.77 300.206 1539.18 299.954 1537.39 300.455C1535.6 300.956 1534.36 302.003 1533.69 303.597C1533.02 305.205 1532.99 307.134 1533.62 309.386C1534.25 311.624 1535.27 313.256 1536.67 314.282C1538.08 315.295 1539.67 315.553 1541.45 315.056Z" fill="white"/>
<path d="M1561.26 292.62C1559.73 293.166 1558.64 294.112 1558.01 295.457C1557.37 296.802 1557.29 298.32 1557.76 300.009L1568.38 296.221C1567.74 294.579 1566.78 293.433 1565.5 292.785C1564.21 292.129 1562.79 292.073 1561.26 292.62ZM1574.78 301.583C1574.98 303.646 1574.47 305.503 1573.26 307.154C1572.03 308.81 1570.23 310.064 1567.83 310.918C1564.82 311.993 1562.1 311.865 1559.68 310.536C1557.25 309.224 1555.44 306.888 1554.24 303.527C1553.04 300.165 1552.97 297.181 1554.01 294.573C1555.06 291.966 1557.06 290.134 1560.02 289.078C1562.94 288.036 1565.58 288.156 1567.92 289.44C1570.25 290.727 1572.01 293.026 1573.19 296.336L1573.71 297.785L1558.85 303.081L1558.93 303.313C1559.66 305.144 1560.72 306.422 1562.11 307.145C1563.5 307.869 1565.02 307.934 1566.69 307.342C1569.22 306.438 1570.59 304.993 1570.78 303.009L1574.78 301.583Z" fill="white"/>
<path d="M1572.82 284.775L1576.73 283.123L1578.06 286.278L1578.37 286.15C1578.22 285.008 1578.53 283.891 1579.29 282.8C1580.04 281.708 1581.09 280.881 1582.42 280.317C1583.19 279.992 1583.81 279.796 1584.29 279.728L1585.98 283.733C1585.45 283.766 1584.66 284.001 1583.63 284.438C1582.09 285.087 1581.03 286.063 1580.44 287.367C1579.83 288.676 1579.84 290.049 1580.44 291.485L1585.57 303.631L1581.51 305.347L1572.82 284.775Z" fill="white"/>
<path d="M1631.55 287.871L1620.26 252.64L1623.69 250.536L1634.91 285.81L1631.55 287.871Z" fill="white"/>
<path d="M1681.35 244.716C1678.85 246.858 1676.21 247.4 1673.46 246.341L1673.21 246.555L1675.5 249.235L1672.27 251.994L1652.09 228.401L1655.44 225.535L1663.41 234.854L1663.68 234.627C1663.33 233.32 1663.4 232.002 1663.88 230.672C1664.37 229.343 1665.19 228.18 1666.35 227.185C1668.5 225.345 1670.88 224.667 1673.49 225.152C1676.1 225.655 1678.55 227.253 1680.86 229.943C1683.16 232.634 1684.35 235.311 1684.43 237.975C1684.52 240.638 1683.49 242.885 1681.35 244.716ZM1667.96 231.019C1666.56 232.219 1665.88 233.684 1665.94 235.414C1666.01 237.156 1666.8 238.919 1668.31 240.704C1669.84 242.472 1671.45 243.519 1673.16 243.845C1674.85 244.18 1676.4 243.744 1677.81 242.535C1679.22 241.326 1679.9 239.866 1679.84 238.155C1679.76 236.442 1678.95 234.687 1677.41 232.89C1675.88 231.103 1674.28 230.042 1672.61 229.709C1670.92 229.373 1669.37 229.81 1667.96 231.019Z" fill="white"/>
<path d="M1695.75 226.556C1696.94 225.403 1697.6 224.107 1697.75 222.669C1697.89 221.24 1697.47 220.025 1696.5 219.025L1695.2 217.687L1691.53 221.74C1689.53 223.964 1689.21 225.773 1690.57 227.165C1691.25 227.871 1692.08 228.158 1693.03 228.026C1693.96 227.904 1694.87 227.414 1695.75 226.556ZM1697.53 230.004C1695.96 231.529 1694.27 232.336 1692.45 232.427C1690.57 232.516 1688.93 231.841 1687.53 230.4C1686.14 228.968 1685.56 227.341 1685.79 225.517C1686.03 223.702 1687.05 221.807 1688.84 219.831L1692.94 215.364L1691.59 213.982C1689.88 212.217 1687.93 212.398 1685.74 214.523C1683.89 216.324 1683.35 217.999 1684.13 219.547L1681.07 222.521C1679.9 220.996 1679.51 219.24 1679.9 217.254C1680.3 215.287 1681.41 213.418 1683.23 211.645C1685.23 209.701 1687.24 208.67 1689.26 208.554C1691.27 208.437 1693.09 209.227 1694.74 210.923L1705.38 221.863L1702.33 224.822L1700.14 222.572L1699.89 222.815C1700.52 225.463 1699.74 227.86 1697.53 230.004Z" fill="white"/>
<path d="M1708.63 196.529C1707.61 195.957 1706.56 195.763 1705.48 195.948C1704.3 196.146 1703.23 196.766 1702.27 197.807C1701.01 199.159 1700.51 200.677 1700.78 202.36C1701.03 204.053 1702.03 205.71 1703.77 207.329C1705.54 208.967 1707.29 209.866 1709.02 210.024C1710.74 210.184 1712.23 209.588 1713.49 208.236C1715.48 206.092 1715.78 203.973 1714.39 201.876L1717.3 198.736C1718.79 200.51 1719.47 202.468 1719.35 204.611C1719.22 206.821 1718.23 208.918 1716.39 210.901C1714.17 213.285 1711.67 214.455 1708.9 214.411C1706.1 214.369 1703.37 213.11 1700.7 210.634C1698.08 208.196 1696.65 205.597 1696.41 202.839C1696.18 200.081 1697.17 197.51 1699.38 195.127C1701.23 193.134 1703.28 192.004 1705.53 191.738C1707.64 191.486 1709.65 192.037 1711.55 193.389L1708.63 196.529Z" fill="white"/>
<path d="M1719.5 172.952L1722.88 168.984L1724.22 182.188L1740.29 182.986L1736.78 187.11L1724.31 186.574L1724.45 189.254L1730.55 194.436L1727.69 197.794L1704.04 177.677L1706.9 174.318L1720.63 185.998L1720.85 185.733L1719.5 172.952Z" fill="white"/>
<path d="M1734.04 160.401C1733.02 161.672 1732.59 163.047 1732.76 164.526C1732.92 166.006 1733.65 167.341 1734.94 168.53L1741.99 159.723C1740.57 158.664 1739.15 158.194 1737.73 158.313C1736.28 158.435 1735.05 159.131 1734.04 160.401ZM1750.24 160.921C1751.5 162.572 1752.04 164.418 1751.88 166.459C1751.71 168.511 1750.83 170.529 1749.24 172.515C1747.24 175.013 1744.87 176.333 1742.11 176.473C1739.35 176.633 1736.58 175.599 1733.8 173.369C1731.01 171.14 1729.38 168.642 1728.89 165.875C1728.41 163.107 1729.15 160.496 1731.12 158.041C1733.06 155.617 1735.36 154.335 1738.03 154.194C1740.69 154.064 1743.39 155.097 1746.14 157.292L1747.34 158.253L1737.48 170.567L1737.68 170.721C1739.26 171.897 1740.83 172.428 1742.39 172.313C1743.95 172.198 1745.29 171.452 1746.39 170.074C1748.07 167.971 1748.47 166.025 1747.59 164.236L1750.24 160.921Z" fill="white"/>
<path d="M1740.41 147.02L1743.01 143.665L1745.81 145.839L1746.01 145.58C1745.36 144.385 1745.14 143.088 1745.34 141.689C1745.55 140.27 1746.16 138.896 1747.19 137.567C1748.72 135.6 1750.46 134.522 1752.42 134.332C1754.4 134.15 1756.43 134.872 1758.53 136.497L1769.96 145.355L1767.25 148.84L1756.7 140.66C1753.87 138.465 1751.46 138.654 1749.47 141.225C1748.38 142.63 1747.92 144.042 1748.1 145.461C1748.27 146.892 1749.05 148.143 1750.43 149.215L1760.76 157.219L1758.06 160.704L1740.41 147.02Z" fill="white"/>
<path d="M1779.7 133.387C1777.94 135.626 1775.73 136.762 1773.07 136.794C1770.4 136.826 1767.68 135.751 1764.89 133.568C1762.11 131.393 1760.42 129.004 1759.82 126.398C1759.22 123.804 1759.79 121.393 1761.53 119.164C1762.47 117.959 1763.59 117.087 1764.88 116.551C1766.18 116.023 1767.5 115.901 1768.84 116.186L1769.04 115.927L1759.38 108.367L1762.1 104.896L1786.55 124.036L1783.94 127.363L1781.17 125.188L1780.95 125.463C1782.12 128.184 1781.7 130.825 1779.7 133.387ZM1765.42 120.619C1764.27 122.083 1763.91 123.647 1764.32 125.31C1764.72 126.976 1765.85 128.534 1767.7 129.983C1769.56 131.441 1771.35 132.173 1773.06 132.179C1774.77 132.165 1776.2 131.426 1777.35 129.962C1778.5 128.498 1778.87 126.929 1778.46 125.255C1778.06 123.57 1776.94 122.007 1775.1 120.566C1773.27 119.133 1771.48 118.42 1769.74 118.428C1768 118.436 1766.56 119.166 1765.42 120.619Z" fill="white"/>
<path d="M1802.64 105.181C1800.76 107.315 1798.49 108.32 1795.83 108.198C1793.17 108.075 1790.51 106.843 1787.85 104.502C1785.2 102.17 1783.66 99.6861 1783.21 97.0505C1782.75 94.4251 1783.46 92.0508 1785.33 89.9275C1786.35 88.7787 1787.51 87.9738 1788.83 87.5129C1790.15 87.061 1791.48 87.0161 1792.8 87.3783L1793.02 87.1322L1783.82 79.024L1786.73 75.716L1810.03 96.2441L1807.23 99.4136L1804.59 97.0814L1804.36 97.343C1805.36 100.127 1804.79 102.74 1802.64 105.181ZM1789.13 91.6058C1787.9 93.0008 1787.45 94.5407 1787.76 96.2254C1788.06 97.9113 1789.1 99.5316 1790.86 101.086C1792.64 102.65 1794.38 103.485 1796.09 103.59C1797.8 103.675 1799.27 103.021 1800.5 101.626C1801.73 100.231 1802.19 98.6858 1801.88 96.9909C1801.58 95.2857 1800.55 93.6602 1798.79 92.1145C1797.05 90.5778 1795.31 89.7627 1793.57 89.6691C1791.83 89.5755 1790.35 90.2211 1789.13 91.6058Z" fill="white"/>
<path d="M1808.17 71.2352C1806.99 72.3503 1806.37 73.6519 1806.33 75.14C1806.28 76.6282 1806.82 78.0515 1807.93 79.4101L1816.14 71.6792C1814.89 70.4325 1813.55 69.7682 1812.12 69.6862C1810.68 69.6038 1809.36 70.1201 1808.17 71.2352ZM1824.15 74.0251C1825.16 75.8353 1825.44 77.7395 1824.99 79.7377C1824.54 81.7453 1823.38 83.6206 1821.53 85.3636C1819.2 87.5563 1816.66 88.5289 1813.91 88.2813C1811.16 88.0531 1808.56 86.6398 1806.12 84.0415C1803.67 81.4431 1802.41 78.7402 1802.32 75.9326C1802.23 73.1251 1803.33 70.6437 1805.62 68.4884C1807.88 66.3612 1810.34 65.4153 1813 65.6506C1815.65 65.8952 1818.18 67.2968 1820.59 69.8553L1821.65 70.9753L1810.16 81.7845L1810.33 81.9637C1811.73 83.3504 1813.21 84.0964 1814.77 84.2017C1816.34 84.3071 1817.76 83.7553 1819.05 82.5465C1821.01 80.7004 1821.68 78.8299 1821.06 76.9348L1824.15 74.0251Z" fill="white"/>
<path d="M1821.44 55.3921L1836.1 66.6267L1836.39 66.4265L1830.81 48.8233L1834.64 46.1393L1840.87 69.041L1836.99 71.7603L1817.58 58.0997L1821.44 55.3921Z" fill="white"/>
<path d="M1849.36 42.5551C1847.87 43.2142 1846.86 44.2383 1846.32 45.6273C1845.78 47.0163 1845.81 48.5357 1846.41 50.1854L1856.72 45.6156C1855.96 44.0253 1854.92 42.9546 1853.59 42.4035C1852.26 41.8454 1850.84 41.8959 1849.36 42.5551ZM1863.5 50.4849C1863.85 52.5273 1863.49 54.4169 1862.4 56.1537C1861.31 57.8961 1859.59 59.2824 1857.27 60.3127C1854.34 61.6089 1851.63 61.6844 1849.12 60.5392C1846.6 59.4121 1844.61 57.2174 1843.17 53.955C1841.72 50.6926 1841.42 47.7223 1842.27 45.0441C1843.12 42.3658 1844.98 40.3897 1847.85 39.1157C1850.69 37.8582 1853.33 37.782 1855.76 38.8868C1858.18 39.9971 1860.1 42.1585 1861.53 45.3709L1862.15 46.7771L1847.73 53.1666L1847.83 53.3916C1848.69 55.1638 1849.84 56.3589 1851.28 56.9767C1852.72 57.5946 1854.25 57.5463 1855.86 56.8317C1858.32 55.7405 1859.58 54.1982 1859.62 52.2049L1863.5 50.4849Z" fill="white"/>
<path d="M1863.13 24.8711L1867.41 23.8246L1874.78 53.9861L1870.5 55.0326L1863.13 24.8711Z" fill="white"/>
<path d="M1889.26 48.1194C1891.14 47.9017 1892.53 47.0602 1893.42 45.595C1894.3 44.145 1894.6 42.2111 1894.32 39.7936C1894.05 37.3896 1893.32 35.5748 1892.13 34.3492C1890.93 33.1388 1889.39 32.6425 1887.5 32.8602C1885.6 33.0795 1884.21 33.9141 1883.33 35.3642C1882.45 36.8143 1882.15 38.7481 1882.43 41.1657C1882.71 43.5968 1883.44 45.4184 1884.63 46.6304C1885.81 47.8423 1887.36 48.3387 1889.26 48.1194ZM1889.71 52.0106C1886.45 52.3865 1883.77 51.6563 1881.67 49.8201C1879.57 47.9838 1878.32 45.2728 1877.9 41.6872C1877.49 38.1152 1878.11 35.1957 1879.74 32.9287C1881.37 30.6632 1883.8 29.3433 1887.05 28.969C1890.28 28.5962 1892.95 29.328 1895.04 31.1642C1897.15 32.9989 1898.42 35.7023 1898.83 39.2743C1899.24 42.86 1898.64 45.7855 1897.01 48.0509C1895.39 50.3164 1892.95 51.6363 1889.71 52.0106Z" fill="white"/>
<path d="M1916.74 27.6791C1919.58 27.7538 1921.81 28.845 1923.42 30.9525C1925.04 33.0738 1925.8 35.9043 1925.7 39.4441C1925.61 42.9839 1924.7 45.7706 1922.98 47.8041C1921.27 49.8381 1919 50.8179 1916.17 50.7435C1912.84 50.6559 1910.58 49.3452 1909.4 46.8114L1909.06 46.8022L1908.78 57.4216L1904.37 57.3058L1905.15 27.7437L1909.39 27.8552L1909.29 31.5454L1909.62 31.554C1910.32 30.3006 1911.31 29.328 1912.57 28.6363C1913.83 27.9583 1915.22 27.6393 1916.74 27.6791ZM1914.99 46.7529C1916.86 46.8022 1918.35 46.1711 1919.45 44.8597C1920.53 43.5343 1921.11 41.6894 1921.17 39.325C1921.23 36.9606 1920.76 35.0949 1919.74 33.7278C1918.71 32.3604 1917.26 31.6523 1915.4 31.6034C1913.55 31.5546 1912.06 32.1925 1910.94 33.5172C1909.83 34.8555 1909.24 36.6932 1909.18 39.0303C1909.12 41.3537 1909.61 43.213 1910.65 44.6081C1911.7 45.9895 1913.14 46.7044 1914.99 46.7529Z" fill="white"/>
</svg>
