<svg width="202" height="212" viewBox="0 0 202 212" fill="none" xmlns="http://www.w3.org/2000/svg">
<path d="M104.585 8.17871L116.551 72.8211M92.6186 72.8211C92.6186 72.8211 84.3245 64.9395 74.6591 55.7549C70.8298 52.1161 66.7854 48.2728 62.9561 44.634C53.2907 35.4493 44.9966 27.5678 44.9966 27.5678M8.16917 78.3291L65.862 109.701M8.16917 141.074L73.2573 132.495M44.9966 191.835L92.6186 146.582M104.585 211.224L116.551 146.582C116.551 146.582 124.845 154.463 134.51 163.648C138.339 167.287 142.384 171.13 146.213 174.769C155.879 183.953 164.173 191.835 164.173 191.835L135.912 132.495L201 141.074M143.307 109.701L201 78.3291M135.912 86.9081L164.173 27.5678" stroke="white"/>
<mask id="path-2-inside-1_19_4380" fill="white">
<path d="M37.8281 20.3896L55.7876 37.4559L62.9561 44.6346L44.9965 27.5684L37.8281 20.3896Z"/>
</mask>
<path d="M55.7876 37.4559L56.4765 36.7309C56.4828 36.737 56.489 36.7431 56.4952 36.7493L55.7876 37.4559ZM37.8281 20.3896L37.1204 21.0962C36.7338 20.7091 36.7302 20.083 37.1122 19.6914C37.4943 19.2997 38.1203 19.2878 38.5169 19.6647L37.8281 20.3896ZM44.9965 27.5684L44.3077 28.2933C44.3013 28.2873 44.2951 28.2812 44.2889 28.275L44.9965 27.5684ZM62.9561 44.6346L63.6637 43.928C64.0503 44.3152 64.054 44.9412 63.6719 45.3329C63.2898 45.7245 62.6639 45.7364 62.2672 45.3595L62.9561 44.6346ZM55.0988 38.1808L37.1392 21.1146L38.5169 19.6647L56.4765 36.7309L55.0988 38.1808ZM38.5357 19.683L45.7041 26.8618L44.2889 28.275L37.1204 21.0962L38.5357 19.683ZM45.6854 26.8435L63.6449 43.9097L62.2672 45.3595L44.3077 28.2933L45.6854 26.8435ZM62.2484 45.3412L55.08 38.1625L56.4952 36.7493L63.6637 43.928L62.2484 45.3412Z" fill="white" mask="url(#path-2-inside-1_19_4380)"/>
<path d="M71.5548 84.4955L44.5826 27.8609L39.5317 22.8028L66.5039 79.4374L71.5548 84.4955Z" stroke="white" stroke-linejoin="round"/>
<mask id="path-5-inside-2_19_4380" fill="white">
<path d="M55.7887 37.4551L67.4917 48.5759L74.6602 55.7547L62.9572 44.6338L55.7887 37.4551Z"/>
</mask>
<path d="M67.4917 48.5759L68.1806 47.851C68.1869 47.857 68.1931 47.8631 68.1993 47.8693L67.4917 48.5759ZM55.7887 37.4551L55.0811 38.1617C54.6945 37.7745 54.6908 37.1485 55.0729 36.7568C55.455 36.3651 56.0809 36.3533 56.4776 36.7302L55.7887 37.4551ZM62.9572 44.6338L62.2683 45.3587C62.262 45.3527 62.2557 45.3466 62.2496 45.3404L62.9572 44.6338ZM74.6602 55.7547L75.3678 55.0481C75.7544 55.4352 75.7581 56.0613 75.376 56.453C74.9939 56.8446 74.368 56.8565 73.9713 56.4796L74.6602 55.7547ZM66.8029 49.3008L55.0999 38.18L56.4776 36.7302L68.1806 47.851L66.8029 49.3008ZM56.4963 36.7485L63.6648 43.9272L62.2496 45.3404L55.0811 38.1617L56.4963 36.7485ZM63.646 43.9089L75.349 55.0298L73.9713 56.4796L62.2683 45.3587L63.646 43.9089ZM73.9525 56.4613L66.7841 49.2825L68.1993 47.8693L75.3678 55.0481L73.9525 56.4613Z" fill="white" mask="url(#path-5-inside-2_19_4380)"/>
<path d="M66.0879 79.7294L0.999737 71.1504L8.16819 78.3291" stroke="white" stroke-linejoin="round"/>
<path d="M63.0725 107.615L58.3913 102.927L3.79086 73.2366L8.47209 77.9245L63.0725 107.615Z" stroke="white" stroke-linejoin="round"/>
<path d="M92.62 72.8211L85.4515 65.6423L97.4175 1L104.586 8.17873" stroke="white" stroke-linejoin="round"/>
<mask id="path-10-inside-3_19_4380" fill="white">
<path d="M67.4912 48.5752L85.4507 65.6414L92.6191 72.8201L74.6596 55.7539L67.4912 48.5752Z"/>
</mask>
<path d="M85.4507 65.6414L86.1395 64.9165C86.1459 64.9225 86.1521 64.9286 86.1583 64.9348L85.4507 65.6414ZM67.4912 48.5752L66.7835 49.2818C66.3969 48.8946 66.3933 48.2686 66.7753 47.8769C67.1574 47.4852 67.7834 47.4734 68.18 47.8503L67.4912 48.5752ZM74.6596 55.7539L73.9708 56.4788C73.9644 56.4728 73.9582 56.4667 73.952 56.4605L74.6596 55.7539ZM92.6191 72.8201L93.3268 72.1135C93.7134 72.5007 93.717 73.1267 93.335 73.5184C92.9529 73.9101 92.3269 73.922 91.9303 73.545L92.6191 72.8201ZM84.7618 66.3663L66.8023 49.3001L68.18 47.8503L86.1395 64.9165L84.7618 66.3663ZM68.1988 47.8686L75.3672 55.0473L73.952 56.4605L66.7835 49.2818L68.1988 47.8686ZM75.3484 55.029L93.308 72.0952L91.9303 73.545L73.9708 56.4788L75.3484 55.029ZM91.9115 73.5267L84.7431 66.348L86.1583 64.9348L93.3268 72.1135L91.9115 73.5267Z" fill="white" mask="url(#path-10-inside-3_19_4380)"/>
<path d="M104.121 8.42227L98.2014 2.49374L109.846 65.3988L115.766 71.3273L104.121 8.42227Z" stroke="white" stroke-linejoin="round"/>
<path d="M58.6934 102.523L1.00057 133.896L8.16902 141.074" stroke="white" stroke-linejoin="round"/>
<path d="M72.1884 132.132L65.91 125.844L2.07067 134.259L8.34907 140.546L72.1884 132.132Z" stroke="white" stroke-linejoin="round"/>
<path d="M116.551 72.8216L109.382 65.6429L157.004 20.3896L164.173 27.5684" stroke="white" stroke-linejoin="round"/>
<path d="M163.57 27.672L157.151 21.2443L129.347 79.6263L135.765 86.054L163.57 27.672Z" stroke="white" stroke-linejoin="round"/>
<path d="M44.9971 191.835L37.8286 184.657L66.0894 125.316L73.2578 132.495" stroke="white" stroke-linejoin="round"/>
<path d="M91.9032 146.573L85.4415 140.102L38.5446 184.666L45.0062 191.137L91.9032 146.573Z" stroke="white" stroke-linejoin="round"/>
<path d="M135.912 86.9081L128.743 79.7294L193.832 71.1504L201 78.3291" stroke="white" stroke-linejoin="round"/>
<path d="M200.174 78.2093L193.742 71.7683L136.965 102.642L143.397 109.083L200.174 78.2093Z" stroke="white" stroke-linejoin="round"/>
<path d="M104.586 211.224L97.4175 204.046L85.4515 139.403L92.62 146.582" stroke="white" stroke-linejoin="round"/>
<mask id="path-22-inside-4_19_4380" fill="white">
<path d="M127.341 156.469L109.382 139.403L116.55 146.582L134.51 163.648L127.341 156.469Z"/>
</mask>
<path d="M109.382 139.403L108.674 140.11C108.288 139.723 108.284 139.097 108.666 138.705C109.048 138.313 109.674 138.301 110.071 138.678L109.382 139.403ZM127.341 156.469L128.03 155.745C128.037 155.751 128.043 155.757 128.049 155.763L127.341 156.469ZM134.51 163.648L135.217 162.942C135.604 163.329 135.608 163.955 135.226 164.347C134.843 164.738 134.218 164.75 133.821 164.373L134.51 163.648ZM116.55 146.582L115.861 147.307C115.855 147.301 115.849 147.295 115.843 147.289L116.55 146.582ZM110.071 138.678L128.03 155.745L126.652 157.194L108.693 140.128L110.071 138.678ZM128.049 155.763L135.217 162.942L133.802 164.355L126.634 157.176L128.049 155.763ZM133.821 164.373L115.861 147.307L117.239 145.857L135.199 162.923L133.821 164.373ZM115.843 147.289L108.674 140.11L110.089 138.697L117.258 145.875L115.843 147.289Z" fill="white" mask="url(#path-22-inside-4_19_4380)"/>
<path d="M116.011 146.749L109.701 140.43L97.9559 203.878L104.266 210.198L116.011 146.749Z" stroke="white" stroke-linejoin="round"/>
<path d="M143.307 109.702L136.139 102.523L193.832 133.896L201 141.074" stroke="white" stroke-linejoin="round"/>
<path d="M199.606 140.386L193.598 134.369L130.137 126.004L136.146 132.022L199.606 140.386Z" stroke="white" stroke-linejoin="round"/>
<mask id="path-27-inside-5_19_4380" fill="white">
<path d="M139.045 167.591L127.342 156.47L134.511 163.648L146.214 174.769L139.045 167.591Z"/>
</mask>
<path d="M127.342 156.47L126.635 157.176C126.248 156.789 126.244 156.163 126.627 155.771C127.009 155.38 127.635 155.368 128.031 155.745L127.342 156.47ZM139.045 167.591L139.734 166.866C139.741 166.872 139.747 166.878 139.753 166.884L139.045 167.591ZM146.214 174.769L146.921 174.063C147.308 174.45 147.312 175.076 146.93 175.468C146.548 175.859 145.922 175.871 145.525 175.494L146.214 174.769ZM134.511 163.648L133.822 164.373C133.816 164.367 133.809 164.361 133.803 164.355L134.511 163.648ZM128.031 155.745L139.734 166.866L138.357 168.316L126.654 157.195L128.031 155.745ZM139.753 166.884L146.921 174.063L145.506 175.476L138.338 168.297L139.753 166.884ZM145.525 175.494L133.822 164.373L135.2 162.924L146.903 174.044L145.525 175.494ZM133.803 164.355L126.635 157.176L128.05 155.763L135.218 162.942L133.803 164.355Z" fill="white" mask="url(#path-27-inside-5_19_4380)"/>
<path d="M135.498 132.788L130.447 127.73L157.419 184.364L162.47 189.422L135.498 132.788Z" stroke="white" stroke-linejoin="round"/>
<mask id="path-30-inside-6_19_4380" fill="white">
<path d="M157.004 184.656L139.045 167.59L146.213 174.769L164.173 191.835L157.004 184.656Z"/>
</mask>
<path d="M139.045 167.59L138.337 168.296C137.951 167.909 137.947 167.283 138.329 166.892C138.711 166.5 139.337 166.488 139.734 166.865L139.045 167.59ZM157.004 184.656L157.693 183.931C157.7 183.937 157.706 183.943 157.712 183.949L157.004 184.656ZM164.173 191.835L164.88 191.128C165.267 191.515 165.271 192.141 164.889 192.533C164.507 192.925 163.881 192.937 163.484 192.56L164.173 191.835ZM146.213 174.769L145.525 175.493C145.518 175.487 145.512 175.481 145.506 175.475L146.213 174.769ZM139.734 166.865L157.693 183.931L156.316 185.381L138.356 168.315L139.734 166.865ZM157.712 183.949L164.88 191.128L163.465 192.541L156.297 185.363L157.712 183.949ZM163.484 192.56L145.525 175.493L146.902 174.044L164.862 191.11L163.484 192.56ZM145.506 175.475L138.337 168.296L139.753 166.883L146.921 174.062L145.506 175.475Z" fill="white" mask="url(#path-30-inside-6_19_4380)"/>
<path d="M97.4156 1L85.4497 65.6423L37.8276 20.3891L66.0884 79.7293L1.00023 71.1504L58.693 102.523L1.00023 133.895L66.0884 125.316L37.8276 184.656L85.4497 139.403L97.4156 204.045L109.382 139.403L157.004 184.656L128.743 125.316L193.831 133.895L136.138 102.523L193.831 71.1504L128.743 79.7293L157.004 20.3891L109.382 65.6423L97.4156 1Z" fill="#FD9DB6"/>
</svg>
